<svg width="595" height="567" viewBox="0 0 595 567" fill="none" xmlns="http://www.w3.org/2000/svg">
<path d="M594.836 506.41L522.067 546.693L541.559 564.236L594.836 525.122V525.902L541.689 565.015C541.559 565.145 541.429 565.145 541.299 565.015L521.157 546.953C521.027 546.823 521.027 546.823 521.027 546.693C521.027 546.563 521.157 546.563 521.157 546.433L594.836 505.76V506.41Z" fill="#00BCC8"/>
<path d="M594.577 451.316L522.587 545.657L594.837 505.763V506.413L521.678 546.826C521.548 546.956 521.418 546.826 521.288 546.696C521.158 546.566 521.158 546.436 521.288 546.306L594.577 450.277V451.316Z" fill="#00BCC8"/>
<path d="M297.647 1.19087L395.625 45.3722L405.241 0.671059H405.891L396.145 45.892C396.145 46.0219 396.015 46.0219 396.015 46.1519C395.885 46.1519 395.885 46.1519 395.755 46.1519L296.217 1.32079L297.647 1.19087Z" fill="#00BCC8"/>
<path d="M592.358 20.5312L528.035 -0.000106812H529.984L592.358 19.8815V20.5312Z" fill="#00BCC8"/>
<path d="M594.966 525.78L542.598 564.374L595.226 566.063V566.713L541.688 564.894C541.558 564.894 541.428 564.764 541.428 564.634C541.428 564.504 541.428 564.374 541.558 564.244L595.096 524.871L594.966 525.78Z" fill="#00BCC8"/>
<path d="M593.803 306.29L522.853 310.449L580.159 345.144L593.933 334.488V335.268L580.418 345.794C580.288 345.924 580.158 345.924 580.029 345.794L521.683 310.449C521.553 310.319 521.553 310.189 521.553 310.059C521.553 309.929 521.683 309.799 521.813 309.799L593.803 305.511V306.29Z" fill="#00BCC8"/>
<path d="M67.3666 2.35028L79.0617 22.2319L81.4007 2.22033H82.0504L79.5814 23.1415C79.5814 23.2714 79.4515 23.4014 79.3215 23.4014C79.1916 23.4014 79.0616 23.4014 78.9317 23.2715L66.5869 2.22033L67.3666 2.35028Z" fill="#00BCC8"/>
<path d="M592.35 20.5396L528.027 0.00819397H529.976L592.35 19.8898V20.5396Z" fill="#00BCC8"/>
<path d="M592.367 23.7859L524.926 40.5488C524.796 40.5488 524.536 40.5488 524.536 40.2889L514.4 0.00592422H515.05L525.185 39.8991L592.367 23.1362V23.7859Z" fill="#00BCC8"/>
<path d="M593.023 163.49L556.249 142.309L528.441 149.716L593.153 174.535V175.185L527.401 149.976C527.271 149.976 527.141 149.846 527.141 149.716C527.141 149.586 527.271 149.456 527.401 149.456L556.249 141.789C556.249 141.789 556.249 141.789 556.379 141.789H556.509L593.153 162.84L593.023 163.49Z" fill="#00BCC8"/>
<path d="M405.767 0.660835L396.151 45.362L433.315 32.1076L417.202 0.530922H417.852L433.965 32.1076C433.965 32.2375 433.965 32.2375 433.965 32.3675C433.965 32.4974 433.835 32.4974 433.835 32.4974L395.761 46.0117C395.631 46.0117 395.501 46.0117 395.501 46.0117C395.371 45.8818 395.371 45.8818 395.371 45.7518L405.117 0.660835H405.767Z" fill="#00BCC8"/>
<path d="M417.961 0.547684L433.814 31.6046L453.566 0.287777H454.346L434.204 32.3842C434.204 32.5142 434.074 32.5142 433.944 32.5142C433.814 32.5142 433.685 32.3842 433.685 32.3842L417.441 0.547684H417.961Z" fill="#00BCC8"/>
<path d="M453.572 0.392273H454.352L434.73 31.5791L501.912 0.132366H503.341L434.081 32.6187C433.951 32.6187 433.821 32.6186 433.691 32.4887C433.561 32.3588 433.561 32.2288 433.691 32.0989L453.572 0.392273Z" fill="#00BCC8"/>
<path d="M433.683 31.9763L501.775 0.139782H503.204L434.983 32.1063L524.515 39.903L514.379 0.00983047H515.029L525.165 40.1629C525.165 40.2929 525.165 40.4228 525.165 40.4228C525.165 40.5527 525.035 40.5527 524.905 40.5527L433.813 32.4961C433.683 32.4961 433.553 32.3662 433.553 32.2363C433.423 32.2363 433.553 32.1063 433.683 31.9763Z" fill="#00BCC8"/>
<path d="M82.0864 2.21924L79.7474 22.4907L111.454 1.95934H112.624L79.6174 23.2704C79.4875 23.2704 79.3575 23.4003 79.2276 23.2704C79.0976 23.2704 79.0977 23.1404 79.0977 23.0105L81.5666 2.08929L82.0864 2.21924Z" fill="#00BCC8"/>
<path d="M284.256 207.803H284.126C283.996 207.803 283.996 207.933 283.996 208.062L280.877 223.136C280.877 223.266 280.877 223.266 280.877 223.396C280.877 223.526 281.007 223.526 281.137 223.526L358.585 232.492C358.715 232.492 358.845 232.362 358.974 232.232C358.974 232.102 358.974 231.972 358.715 231.842L284.256 207.803C284.386 207.803 284.386 207.803 284.256 207.803ZM281.527 222.876L284.516 208.452L355.596 231.453L281.527 222.876Z" fill="#00BCC8"/>
<path d="M38.7869 2.47676L42.8152 46.1383L78.94 23.138L66.7251 2.34681H67.3749L79.4598 23.0081C79.5897 23.138 79.4598 23.2679 79.3298 23.3979L42.5553 46.918C42.4254 46.918 42.2954 46.918 42.2954 46.918C42.1655 46.918 42.1655 46.788 42.1655 46.6581L38.1372 2.47676H38.7869Z" fill="#00BCC8"/>
<path d="M79.2194 22.886H79.0895L42.315 46.4061C42.1851 46.4061 42.1851 46.536 42.1851 46.666C42.1851 46.7959 42.1851 46.9259 42.315 46.9259L105.079 90.9772C105.208 91.1072 105.338 91.1072 105.468 90.9772C105.598 90.8473 105.598 90.7174 105.598 90.5874L79.6093 23.016C79.4793 23.016 79.4793 23.016 79.2194 22.886C79.3494 22.886 79.3494 22.886 79.2194 22.886ZM43.0947 46.666L79.2194 23.6657L104.689 89.9377L43.0947 46.666Z" fill="#00BCC8"/>
<path d="M190.729 21.1823L79.2361 23.0015C79.1062 23.0015 79.1062 23.0015 78.9762 23.1315C78.9762 23.2614 78.8463 23.2614 78.9762 23.3913L104.965 90.9628C104.965 91.0928 105.095 91.0928 105.225 91.0928C105.355 91.0928 105.485 91.0928 105.485 91.0928L190.989 21.7021C191.119 21.5721 191.119 21.4422 191.119 21.3122C190.989 21.1823 190.859 21.1823 190.729 21.1823ZM79.7559 23.5213L189.949 21.7021L105.485 90.1832L79.7559 23.5213Z" fill="#00BCC8"/>
<path d="M111.309 2.09463H112.478L80.382 22.8858L189.666 21.1966L154.711 1.96467H156.01L190.965 21.1966C191.095 21.3265 191.095 21.4565 191.095 21.5864C191.095 21.7163 190.965 21.8463 190.835 21.8463L79.3424 23.6655C79.2125 23.6655 79.0825 23.5356 79.0825 23.4056C79.0825 23.2757 79.0825 23.1457 79.2125 23.0158L111.309 2.09463Z" fill="#00BCC8"/>
<path d="M155.882 1.96336L189.798 20.6755L178.233 1.83345H178.882L190.837 21.3252C190.967 21.4552 190.837 21.5851 190.837 21.715C190.707 21.845 190.577 21.845 190.447 21.715L154.453 1.96336H155.882Z" fill="#00BCC8"/>
<path d="M179.016 1.84685L190.84 21.2087L258.412 1.457H260.621L190.84 21.8584C190.711 21.8584 190.581 21.8584 190.451 21.7284L178.236 1.97677L179.016 1.84685Z" fill="#00BCC8"/>
<path d="M487.499 180.126C487.499 180.126 487.369 180.126 487.499 180.126L358.463 231.844C358.333 231.844 358.333 231.974 358.333 232.104C358.333 232.234 358.333 232.364 358.463 232.364L423.696 286.162C423.826 286.162 423.826 286.292 423.956 286.292C424.086 286.292 424.086 286.162 424.216 286.162L487.889 180.646C488.019 180.516 487.889 180.386 487.889 180.256C487.629 180.126 487.629 180.126 487.499 180.126ZM359.243 232.234L486.849 181.036L423.826 285.512L359.243 232.234Z" fill="#00BCC8"/>
<path d="M487.49 180.119C487.36 180.119 487.23 180.119 487.23 180.249L423.557 285.765C423.557 285.895 423.557 285.895 423.557 286.025C423.557 286.155 423.687 286.155 423.687 286.155L477.095 310.064C477.224 310.064 477.224 310.064 477.354 310.064C477.484 310.064 477.484 309.935 477.484 309.805L487.62 180.379C487.75 180.249 487.75 180.119 487.49 180.119ZM424.337 285.765L487.1 181.679L477.095 309.415L424.337 285.765Z" fill="#00BCC8"/>
<path d="M487.501 180.115C487.371 180.115 487.241 180.245 487.241 180.375L477.105 309.8C477.105 309.93 477.105 309.93 477.235 310.06C477.235 310.06 477.365 310.19 477.495 310.19L522.067 310.58C522.067 310.58 522.196 310.58 522.326 310.45C522.326 310.32 522.456 310.32 522.326 310.19L488.021 180.375C487.761 180.245 487.631 180.115 487.501 180.115ZM477.625 309.541L487.631 182.194L521.417 309.93L477.625 309.541Z" fill="#00BCC8"/>
<path d="M593.133 175.197L527.511 150.118L488.268 180.265L593.133 191.57V192.22L487.358 180.915C487.228 180.915 487.098 180.785 487.098 180.655C487.098 180.525 487.098 180.395 487.228 180.395L527.121 149.728H527.251H527.381L592.874 174.807L593.133 175.197Z" fill="#00BCC8"/>
<path d="M477.379 309.544C477.249 309.544 477.119 309.674 477.119 309.674C477.119 309.803 477.119 309.933 477.249 310.063L521.43 352.425C521.56 352.555 521.69 352.555 521.82 352.425C521.95 352.425 521.95 352.296 521.95 352.166L522.08 310.193C522.08 310.063 521.95 309.933 521.82 309.933L477.379 309.544ZM521.43 351.516L478.158 310.193L521.56 310.583L521.43 351.516Z" fill="#00BCC8"/>
<path d="M594.184 387.627L521.935 352.671L521.805 545.64L594.574 450.26V451.3L521.805 546.81C521.675 546.939 521.545 546.939 521.415 546.939C521.285 546.939 521.155 546.81 521.155 546.68L521.415 352.282C521.415 352.152 521.415 352.022 521.545 352.022H521.675H521.805L594.184 387.107V387.627Z" fill="#00BCC8"/>
<path d="M521.812 309.935H521.682C521.552 309.935 521.552 310.065 521.552 310.195L521.422 352.167C521.422 352.297 521.422 352.297 521.552 352.427C521.682 352.427 521.682 352.557 521.812 352.557L580.287 345.929C580.417 345.929 580.547 345.799 580.547 345.67C580.547 345.54 580.547 345.41 580.417 345.28L522.072 309.935C521.942 309.935 521.942 309.935 521.812 309.935ZM521.942 351.907L522.072 310.714L579.117 345.28L521.942 351.907Z" fill="#00BCC8"/>
<path d="M594.051 362.555L580.017 345.922L522.711 352.419L594.181 386.985V387.634L521.542 352.419C521.412 352.419 521.412 352.289 521.412 352.029C521.412 351.899 521.542 351.769 521.672 351.769L580.147 345.142C580.277 345.142 580.277 345.142 580.407 345.272L594.051 361.515V362.555Z" fill="#00BCC8"/>
<path d="M593.934 339.046L580.679 345.674L594.063 361.657V362.566L579.9 345.803C579.9 345.674 579.77 345.674 579.77 345.544C579.77 345.414 579.9 345.414 579.9 345.284L593.804 338.397L593.934 339.046Z" fill="#00BCC8"/>
<path d="M593.915 335.277L582.739 343.983L593.915 338.396V339.045L580.27 345.803C580.14 345.933 580.01 345.803 579.88 345.673C579.751 345.543 579.88 345.413 580.01 345.283L593.915 334.497V335.277Z" fill="#00BCC8"/>
<path d="M190.696 21.214L258.398 1.4623H260.607L191.606 21.6038L314.144 84.6272L284.517 1.33235H285.167L314.924 85.147C314.924 85.2769 314.924 85.4069 314.794 85.5368C314.664 85.6668 314.534 85.6668 314.404 85.5368L190.566 21.7337C190.437 21.7337 190.437 21.6038 190.437 21.4738C190.437 21.3439 190.566 21.214 190.696 21.214Z" fill="#00BCC8"/>
<path d="M285.032 1.18815L314.66 84.7429L394.966 45.7593L296.077 1.18815H297.507L395.875 45.4994C396.005 45.4994 396.005 45.6294 396.005 45.7593C396.005 45.8893 395.875 46.0192 395.875 46.0192L314.66 85.3926C314.53 85.3926 314.53 85.3926 314.4 85.3926C314.27 85.3926 314.27 85.2626 314.27 85.2626L284.382 1.18815H285.032Z" fill="#00BCC8"/>
<path d="M319.868 181.025H319.738L284.133 207.793C284.003 207.923 284.003 208.053 284.003 208.183C284.133 208.313 284.263 208.313 284.393 208.313L340.789 187.782C340.919 187.782 341.049 187.652 341.049 187.522C341.049 187.392 340.919 187.262 340.789 187.262L319.868 181.025C319.998 181.025 319.868 181.025 319.868 181.025ZM286.082 207.014L319.868 181.544L339.749 187.522L286.082 207.014Z" fill="#00BCC8"/>
<path d="M340.804 187.262C340.804 187.262 340.674 187.262 340.804 187.262L284.277 207.793C284.148 207.793 284.018 207.923 284.018 208.053C284.018 208.183 284.148 208.313 284.277 208.313L358.606 232.353C358.736 232.353 358.866 232.353 358.866 232.223C358.996 232.093 358.996 231.963 358.866 231.963L341.063 187.392C341.063 187.262 340.934 187.262 340.804 187.262ZM285.317 208.053L340.674 187.912L358.216 231.703L285.317 208.053Z" fill="#00BCC8"/>
<path d="M314.534 84.857C314.274 84.857 314.274 84.9869 314.274 85.1168L319.602 181.146C319.602 181.276 319.732 181.406 319.862 181.406L340.783 187.644C340.913 187.644 341.043 187.644 341.043 187.514C341.173 187.384 341.173 187.384 341.173 187.254L314.924 84.9869C314.794 84.9869 314.664 84.857 314.534 84.857ZM320.121 181.016L315.054 88.2355L340.393 186.994L320.121 181.016Z" fill="#00BCC8"/>
<path d="M487.476 180.112L340.768 187.259C340.638 187.259 340.638 187.259 340.508 187.389C340.508 187.518 340.508 187.518 340.508 187.648L358.441 232.35C358.441 232.48 358.571 232.479 358.571 232.479C358.701 232.479 358.701 232.479 358.831 232.479L487.736 180.761C487.866 180.761 487.996 180.501 487.866 180.372C487.736 180.242 487.606 180.112 487.476 180.112ZM341.158 187.778L485.657 180.761L358.701 231.7L341.158 187.778Z" fill="#00BCC8"/>
<path d="M358.59 231.838C358.33 231.838 358.33 231.968 358.33 232.098L343.257 348.529C343.257 348.659 343.257 348.789 343.387 348.789C343.517 348.789 343.647 348.789 343.777 348.789L424.083 286.155C424.213 286.155 424.213 286.026 424.213 285.896C424.213 285.766 424.213 285.766 424.083 285.636L358.85 231.838C358.72 231.838 358.72 231.838 358.59 231.838ZM344.037 347.879L358.98 232.748L423.563 285.896L344.037 347.879Z" fill="#00BCC8"/>
<path d="M423.809 285.623C423.679 285.623 423.679 285.623 423.679 285.623L343.373 348.256C343.243 348.386 343.243 348.386 343.243 348.516C343.243 348.646 343.373 348.776 343.373 348.776L413.284 380.093C413.414 380.093 413.414 380.093 413.544 380.093C413.673 380.093 413.673 379.963 413.673 379.833L424.069 285.753C424.069 285.623 424.069 285.493 423.939 285.493C423.939 285.623 423.939 285.623 423.809 285.623ZM344.153 348.516L423.419 286.662L413.154 379.573L344.153 348.516Z" fill="#00BCC8"/>
<path d="M413.547 379.736C413.547 379.736 413.417 379.736 413.547 379.736C413.417 379.736 413.288 379.866 413.288 379.996L379.892 518.517C379.892 518.647 379.892 518.647 379.892 518.777C379.892 518.907 380.022 518.907 380.152 518.907L521.402 546.845C521.532 546.845 521.662 546.845 521.662 546.715C521.792 546.585 521.792 546.455 521.662 546.325L413.807 379.866C413.677 379.736 413.677 379.736 413.547 379.736ZM380.541 518.387L413.677 380.775L520.882 546.195L380.541 518.387Z" fill="#00BCC8"/>
<path d="M423.817 285.633H423.687C423.557 285.633 423.557 285.763 423.557 285.893L413.162 379.973C413.162 380.103 413.162 380.233 413.292 380.233C413.422 380.233 413.551 380.233 413.681 380.103L477.484 309.933C477.614 309.803 477.614 309.803 477.614 309.673C477.614 309.543 477.484 309.543 477.484 309.413L423.817 285.633C423.947 285.633 423.947 285.633 423.817 285.633ZM413.941 379.063L424.077 286.413L476.705 309.933L413.941 379.063Z" fill="#00BCC8"/>
<path d="M477.361 309.548C477.231 309.548 477.231 309.548 477.101 309.678L413.298 379.848C413.168 379.978 413.168 380.108 413.298 380.238C413.428 380.368 413.558 380.368 413.687 380.368L521.802 352.56C521.932 352.56 521.932 352.43 522.062 352.3C522.062 352.17 522.062 352.04 521.932 352.04L477.62 309.678C477.491 309.548 477.361 309.548 477.361 309.548ZM414.467 379.459L477.361 310.328L521.022 352.17L414.467 379.459Z" fill="#00BCC8"/>
<path d="M521.688 351.909L413.444 379.718C413.314 379.718 413.314 379.848 413.184 379.848C413.184 379.978 413.184 379.978 413.184 380.108L521.169 546.697C521.298 546.827 521.428 546.827 521.558 546.827C521.688 546.827 521.818 546.697 521.818 546.567L522.078 352.169C522.078 352.039 522.078 352.039 521.948 351.909C521.818 351.909 521.688 351.909 521.688 351.909ZM414.094 380.237L521.428 352.689L521.169 545.658L414.094 380.237Z" fill="#00BCC8"/>
<path d="M314.561 84.8608C314.431 84.8608 314.431 84.8608 314.301 84.9907C314.171 85.1207 314.171 85.1207 314.171 85.2506L340.42 187.517C340.42 187.647 340.55 187.647 340.55 187.777C340.68 187.777 340.81 187.777 340.81 187.777L451.913 110.98C452.043 110.85 452.043 110.85 452.043 110.72C452.043 110.59 451.913 110.46 451.783 110.46L314.561 84.8608C314.691 84.8608 314.561 84.8608 314.561 84.8608ZM340.94 186.998L314.951 85.5105L451.003 110.85L340.94 186.998Z" fill="#00BCC8"/>
<path d="M395.755 45.5086H395.625L314.41 84.882C314.28 84.882 314.28 85.0119 314.28 85.1419C314.28 85.2718 314.41 85.4018 314.54 85.4018L451.762 111.001C451.892 111.001 452.022 111.001 452.022 110.871C452.022 110.741 452.022 110.611 452.022 110.481L395.885 45.5086C396.015 45.5086 395.885 45.5086 395.755 45.5086ZM315.579 85.012L395.755 46.1583L451.112 110.351L315.579 85.012Z" fill="#00BCC8"/>
<path d="M451.896 110.465H451.766L340.663 187.263C340.533 187.393 340.533 187.523 340.533 187.653C340.533 187.783 340.663 187.913 340.793 187.913L487.501 180.766C487.631 180.766 487.761 180.766 487.761 180.636C487.761 180.506 487.761 180.376 487.761 180.376L452.156 110.725C452.026 110.595 452.026 110.465 451.896 110.465ZM341.832 187.133L451.766 111.245L486.981 180.116L341.832 187.133Z" fill="#00BCC8"/>
<path d="M433.82 31.9635C433.82 31.9635 433.69 31.9635 433.82 31.9635L395.746 45.4778C395.616 45.4778 395.616 45.6077 395.616 45.7377C395.616 45.8676 395.616 45.9976 395.616 45.9976L451.752 110.97C451.882 111.1 452.012 111.1 452.142 111.1C452.272 111.1 452.272 110.84 452.272 110.71L434.209 32.2234C434.209 32.0934 434.079 32.0934 434.079 31.9635C433.95 31.9635 433.82 31.9635 433.82 31.9635ZM396.265 45.8676L433.56 32.6132L451.232 109.541L396.265 45.8676Z" fill="#00BCC8"/>
<path d="M433.824 31.9884C433.694 31.9884 433.694 31.9884 433.565 32.1183C433.565 32.2483 433.435 32.2483 433.435 32.3782L451.497 110.865C451.497 110.995 451.627 110.995 451.757 111.125C451.887 111.125 452.017 111.125 452.017 110.995L525.046 40.4348C525.176 40.3049 525.176 40.175 525.176 40.175C525.176 40.045 525.046 40.045 524.916 39.915L433.824 31.9884ZM452.017 110.215L434.214 32.6381L524.266 40.5648L452.017 110.215Z" fill="#00BCC8"/>
<path d="M451.891 110.467C451.761 110.467 451.761 110.467 451.631 110.597C451.501 110.727 451.501 110.857 451.631 110.987L487.236 180.638C487.236 180.768 487.366 180.768 487.496 180.768C487.626 180.768 487.626 180.768 487.756 180.768L527.649 150.101C527.779 150.101 527.779 149.971 527.779 149.841C527.779 149.711 527.649 149.581 527.649 149.581L452.021 110.727C451.891 110.467 451.891 110.467 451.891 110.467ZM487.626 179.988L452.541 111.507L526.869 149.711L487.626 179.988Z" fill="#00BCC8"/>
<path d="M524.913 40.0271C524.783 40.0271 524.783 40.0271 524.653 40.1571L451.624 110.587C451.494 110.717 451.494 110.717 451.494 110.847C451.494 110.977 451.624 110.977 451.754 111.107L556.23 142.294C556.36 142.294 556.49 142.294 556.49 142.164C556.62 142.034 556.62 141.904 556.62 141.904L525.173 40.1571C525.173 40.0271 525.043 40.0271 524.913 40.0271ZM452.404 110.587L524.653 40.8068L555.71 141.514L452.404 110.587Z" fill="#00BCC8"/>
<path d="M451.889 110.454C451.759 110.454 451.629 110.584 451.629 110.584C451.629 110.714 451.629 110.844 451.759 110.974L527.387 149.828C527.517 149.828 527.517 149.828 527.647 149.828L556.495 142.161C556.625 142.161 556.755 142.031 556.755 141.901C556.755 141.771 556.625 141.641 556.495 141.641L451.889 110.454ZM527.517 149.308L454.878 112.014L555.066 142.031L527.517 149.308Z" fill="#00BCC8"/>
<path d="M0.851703 71.6019C0.721758 71.6019 0.591797 71.7318 0.591797 71.8618C0.591797 71.9917 0.591805 72.1216 0.72175 72.2516L87.1353 122.93C87.2652 122.93 87.2652 122.93 87.3952 122.93C87.5251 122.93 87.5251 122.8 87.5251 122.8L105.458 90.9637C105.458 90.8337 105.458 90.8337 105.458 90.7038C105.458 90.5739 105.328 90.5738 105.198 90.5738L0.851703 71.6019C0.981648 71.6019 0.981648 71.6019 0.851703 71.6019ZM87.2652 122.151L2.54097 72.5115L104.808 90.9637L87.2652 122.151Z" fill="#00BCC8"/>
<path d="M105.33 90.4755C105.2 90.4755 105.2 90.4755 105.33 90.4755C105.2 90.4755 105.07 90.6054 105.07 90.6054L87.1377 122.442C87.1377 122.572 87.1377 122.572 87.1377 122.702C87.1377 122.832 87.2676 122.832 87.3976 122.832L140.805 133.487C140.935 133.487 141.065 133.487 141.065 133.357C141.195 133.227 141.065 133.097 141.065 132.968L105.59 90.4755C105.46 90.6054 105.33 90.4755 105.33 90.4755ZM87.9174 122.442L105.33 91.3851L140.025 132.838L87.9174 122.442Z" fill="#00BCC8"/>
<path d="M256.33 304.854C256.07 304.854 255.94 305.114 256.07 305.244L272.833 369.827C272.833 369.957 273.093 370.087 273.223 370.087C273.353 370.087 273.483 369.827 273.483 369.697L256.72 305.114C256.59 304.984 256.46 304.854 256.33 304.854Z" fill="#00BCC8"/>
<path d="M256.313 304.864C256.183 304.864 256.183 304.864 256.183 304.994C256.053 305.124 256.053 305.254 256.053 305.254L272.816 369.836C272.816 369.966 272.946 369.966 272.946 369.966C273.076 369.966 273.076 369.966 273.206 369.966L343.636 348.785C343.766 348.785 343.896 348.655 343.896 348.525C343.896 348.395 343.896 348.265 343.766 348.265L256.573 304.864C256.443 304.864 256.443 304.864 256.313 304.864ZM273.336 369.447L256.833 305.773L342.727 348.525L273.336 369.447Z" fill="#00BCC8"/>
<path d="M281.141 222.862C281.011 222.862 280.881 222.992 280.881 223.122L256.062 305.117C256.062 305.247 256.062 305.377 256.191 305.507C256.321 305.637 256.451 305.637 256.581 305.507L358.848 232.478C358.978 232.348 358.978 232.218 358.978 232.218C358.978 232.088 358.848 231.958 358.718 231.958L281.141 222.862C281.271 222.862 281.141 222.862 281.141 222.862ZM256.841 304.467L281.401 223.512L357.809 232.348L256.841 304.467Z" fill="#00BCC8"/>
<path d="M358.59 231.848H358.46L256.193 304.877C256.063 304.877 256.063 305.007 256.063 305.137C256.063 305.267 256.193 305.397 256.193 305.397L343.386 348.799C343.516 348.799 343.516 348.799 343.646 348.799C343.776 348.799 343.776 348.669 343.776 348.539L358.85 232.108C358.85 231.978 358.85 231.848 358.72 231.848C358.72 231.848 358.72 231.848 358.59 231.848ZM256.973 305.137L358.33 232.758L343.386 348.149L256.973 305.137Z" fill="#00BCC8"/>
<path d="M227.994 165.426C227.864 165.426 227.864 165.426 227.734 165.556C227.604 165.686 227.604 165.816 227.734 165.946L281.011 223.381C281.141 223.511 281.141 223.511 281.271 223.511C281.401 223.511 281.401 223.381 281.531 223.251L284.65 208.178C284.65 208.048 284.65 207.918 284.52 207.918L228.124 165.426H227.994ZM281.011 222.472L230.463 167.895L284 208.178L281.011 222.472Z" fill="#00BCC8"/>
<path d="M228 165.443C227.87 165.443 227.74 165.573 227.74 165.573C227.74 165.703 227.74 165.833 227.87 165.963L284.266 208.325C284.396 208.455 284.526 208.455 284.656 208.325L320.261 181.557C320.391 181.427 320.391 181.297 320.391 181.297C320.391 181.297 320.261 181.037 320.131 181.037L228 165.443ZM284.266 207.676L229.04 166.223L318.962 181.427L284.266 207.676Z" fill="#00BCC8"/>
<path d="M314.535 84.8642C314.405 84.8642 314.405 84.8642 314.275 84.9941L227.602 165.56C227.472 165.69 227.472 165.82 227.472 165.82C227.472 165.95 227.602 165.95 227.732 166.08L319.603 181.673C319.733 181.673 319.733 181.673 319.863 181.543C319.993 181.543 319.993 181.413 319.993 181.284L314.665 85.254C314.925 84.9941 314.795 84.9941 314.535 84.8642C314.665 84.8642 314.665 84.8642 314.535 84.8642ZM228.641 165.56L314.275 85.9037L319.473 181.024L228.641 165.56Z" fill="#00BCC8"/>
<path d="M593.521 247.426L488.006 181.024L522.051 309.67L593.651 279.392V280.042L521.921 310.319C521.791 310.319 521.791 310.319 521.662 310.319C521.532 310.319 521.532 310.189 521.532 310.059L487.226 180.244C487.226 180.114 487.226 179.984 487.356 179.984H487.486H487.616L593.391 246.646L593.521 247.426Z" fill="#00BCC8"/>
<path d="M593.134 192.079L488.658 180.904L593.394 246.786V247.565L487.229 180.774C487.099 180.644 487.099 180.514 487.099 180.384C487.099 180.254 487.229 180.124 487.359 180.124L593.004 191.429L593.134 192.079Z" fill="#00BCC8"/>
<path d="M593.679 280.175L523.638 309.802L593.809 305.644V306.294L521.949 310.582C521.819 310.582 521.689 310.452 521.689 310.322C521.689 310.192 521.689 310.062 521.819 309.932L593.679 279.525V280.175Z" fill="#00BCC8"/>
<path d="M105.325 90.4572C105.195 90.4572 105.195 90.4572 105.065 90.5872C104.935 90.7171 104.935 90.847 105.065 90.977L140.54 133.469C140.54 133.599 140.67 133.599 140.8 133.599L210.97 133.859C211.1 133.859 211.23 133.729 211.23 133.599C211.23 133.469 211.23 133.339 211.1 133.209L105.325 90.4572ZM140.93 132.949L106.234 91.4968L209.281 133.079L140.93 132.949Z" fill="#00BCC8"/>
<path d="M190.698 21.1794C190.568 21.1794 190.568 21.1794 190.568 21.3093L105.065 90.7C104.935 90.83 104.935 90.8299 104.935 90.9599C104.935 91.0898 105.065 91.2198 105.065 91.2198L210.71 133.842C210.84 133.842 210.97 133.842 210.97 133.842C211.1 133.712 211.1 133.712 211.1 133.582L190.828 21.5692C190.958 21.3093 190.958 21.1794 190.698 21.1794C190.828 21.1794 190.828 21.1794 190.698 21.1794ZM105.844 90.7L190.568 21.959L210.58 132.932L105.844 90.7Z" fill="#00BCC8"/>
<path d="M140.805 132.94C140.675 132.94 140.545 133.07 140.545 133.2C140.545 133.33 140.545 133.46 140.675 133.59L227.869 166.076C227.998 166.076 228.128 166.076 228.258 165.946C228.388 165.816 228.388 165.686 228.258 165.556L211.236 133.33C211.236 133.2 211.106 133.2 210.976 133.2L140.805 132.94ZM227.349 165.167L142.495 133.59L210.846 133.85L227.349 165.167Z" fill="#00BCC8"/>
<path d="M190.705 21.1926H190.575C190.445 21.3225 190.445 21.3225 190.445 21.4525L210.716 133.465C210.716 133.595 210.846 133.595 210.846 133.725C210.976 133.725 210.976 133.725 211.106 133.725L314.672 85.3855C314.802 85.3855 314.802 85.2555 314.802 85.1256C314.802 84.9957 314.802 84.8657 314.672 84.8657L190.835 21.0627C190.835 21.1926 190.835 21.1926 190.705 21.1926ZM211.236 133.075L191.225 22.1022L314.023 85.2556L211.236 133.075Z" fill="#00BCC8"/>
<path d="M314.53 84.863L210.834 133.203C210.704 133.203 210.704 133.332 210.704 133.332C210.704 133.462 210.704 133.462 210.704 133.592L227.726 165.819C227.726 165.949 227.856 165.949 227.986 165.949C228.116 165.949 228.116 165.949 228.246 165.819L314.92 85.2528C315.05 85.1228 315.05 84.9929 314.92 84.863C314.79 84.863 314.66 84.863 314.53 84.863ZM211.353 133.592L312.97 86.2924L228.116 165.299L211.353 133.592Z" fill="#00BCC8"/>
<path d="M592.87 128.663L557.005 142.047L593 162.709V163.358L556.095 142.177C555.965 142.177 555.965 142.047 555.965 141.917C555.965 141.788 556.095 141.658 556.225 141.658L592.87 128.013V128.663Z" fill="#00BCC8"/>
<path d="M273.086 369.582C272.956 369.582 272.956 369.582 272.826 369.712C272.696 369.841 272.826 370.101 272.956 370.101L343.387 417.141C343.516 417.271 343.776 417.141 343.776 417.012C343.906 416.882 343.776 416.622 343.646 416.622L273.216 369.582C273.216 369.582 273.216 369.582 273.086 369.582Z" fill="#00BCC8"/>
<path d="M343.649 348.268C343.519 348.268 343.519 348.268 343.649 348.268L273.089 369.449C272.959 369.449 272.829 369.579 272.829 369.709C272.829 369.839 272.829 369.969 272.959 369.969L343.389 417.009C343.519 417.009 343.649 417.139 343.649 417.009C343.779 417.009 343.779 416.879 343.779 416.749V348.398C343.779 348.268 343.779 348.268 343.649 348.138C343.779 348.268 343.649 348.268 343.649 348.268ZM273.869 369.969L343.389 349.048V416.359L273.869 369.969Z" fill="#00BCC8"/>
<path d="M343.652 348.264H343.522C343.393 348.264 343.393 348.394 343.393 348.524V416.875C343.393 417.005 343.393 417.135 343.522 417.135C343.652 417.135 343.782 417.135 343.782 417.135L413.823 380.23C413.953 380.23 413.953 380.1 413.953 379.97C413.953 379.841 413.823 379.711 413.823 379.711L343.652 348.264ZM343.782 416.355V349.044L412.783 379.97L343.782 416.355Z" fill="#00BCC8"/>
<path d="M413.558 379.711H413.428L343.388 416.615C343.258 416.745 343.128 416.875 343.258 417.005L379.902 518.752C379.902 518.882 380.032 519.012 380.162 519.012C380.292 519.012 380.422 518.882 380.422 518.752L413.818 380.1C413.818 379.97 413.818 379.84 413.688 379.84C413.688 379.711 413.558 379.711 413.558 379.711ZM343.908 417.005L413.038 380.49L380.032 517.582L343.908 417.005Z" fill="#00BCC8"/>
<path d="M592.611 86.4302L525.43 41.0793L556.357 141.397L592.611 94.7467V95.7862L556.487 142.307C556.357 142.437 556.357 142.437 556.227 142.437C556.097 142.437 555.967 142.307 555.967 142.177L524.52 40.4296C524.52 40.2996 524.52 40.1697 524.65 40.0398H524.78H524.91L592.481 85.6505L592.611 86.4302Z" fill="#00BCC8"/>
<path d="M592.351 23.7991L525.69 40.432L592.741 85.653V86.4326L524.65 40.562C524.52 40.432 524.52 40.432 524.52 40.3021C524.52 40.1721 524.65 40.0422 524.78 40.0422L592.351 23.2793V23.7991Z" fill="#00BCC8"/>
<path d="M592.74 95.6475L557.265 141.388L593 128.134V128.783L556.485 142.428C556.355 142.428 556.225 142.428 556.096 142.298C555.966 142.168 555.966 142.038 556.096 141.908L592.74 94.7379V95.6475Z" fill="#00BCC8"/>
</svg>
