<svg width="474" height="452" viewBox="0 0 474 452" fill="none" xmlns="http://www.w3.org/2000/svg">
<g opacity="0.6">
<path d="M0.0834386 49.7333L57.8657 17.7467L42.3883 3.81709L0.0834399 34.875L0.08344 34.256L42.2852 3.19799C42.3883 3.09481 42.4915 3.09481 42.5947 3.19799L58.588 17.5404C58.6912 17.6436 58.6912 17.6436 58.6912 17.7467C58.6912 17.8499 58.588 17.8499 58.588 17.9531L0.0834386 50.2493L0.0834386 49.7333Z" fill="#00BCC8"/>
<path d="M0.289342 93.4801L57.4526 18.5695L0.0829668 50.2466L0.0829669 49.7307L58.1748 17.6409C58.278 17.5377 58.3812 17.6409 58.4844 17.7441C58.5876 17.8472 58.5876 17.9504 58.4844 18.0536L0.289342 94.3056L0.289342 93.4801Z" fill="#00BCC8"/>
<path d="M236.066 450.902L158.266 415.82L150.631 451.315L150.115 451.315L157.854 415.407C157.854 415.304 157.957 415.304 157.957 415.201C158.06 415.201 158.06 415.201 158.163 415.201L237.201 450.799L236.066 450.902Z" fill="#00BCC8"/>
<path d="M2.05179 435.544L53.1272 451.847L51.5795 451.847L2.05179 436.06L2.05179 435.544Z" fill="#00BCC8"/>
<path d="M-0.0193128 34.3526L41.5633 3.70739L-0.225689 2.36601L-0.225689 1.85009L42.2856 3.29466C42.3887 3.29466 42.4919 3.39784 42.4919 3.50102C42.4919 3.6042 42.4919 3.70739 42.3887 3.81057L-0.122535 35.0749L-0.0193128 34.3526Z" fill="#00BCC8"/>
<path d="M0.904096 208.638L57.2419 205.336L11.7383 177.787L0.800941 186.248L0.800941 185.629L11.532 177.271C11.6351 177.168 11.7383 177.168 11.8415 177.271L58.1705 205.336C58.2736 205.44 58.2737 205.543 58.2737 205.646C58.2737 205.749 58.1705 205.852 58.0673 205.852L0.904096 209.257L0.904096 208.638Z" fill="#00BCC8"/>
<path d="M418.919 449.981L409.633 434.194L407.776 450.084L407.26 450.084L409.22 433.472C409.22 433.369 409.323 433.266 409.427 433.266C409.53 433.266 409.633 433.266 409.736 433.369L419.539 450.084L418.919 449.981Z" fill="#00BCC8"/>
<path d="M2.0579 435.538L53.1333 451.84L51.5856 451.84L2.0579 436.054L2.0579 435.538Z" fill="#00BCC8"/>
<path d="M2.04426 432.96L55.596 419.649C55.6992 419.649 55.9056 419.649 55.9056 419.856L63.9539 451.842L63.4379 451.842L55.3897 420.165L2.04426 433.476L2.04426 432.96Z" fill="#00BCC8"/>
<path d="M1.52307 322.028L30.7237 338.847L52.8048 332.965L1.41985 313.258L1.41985 312.742L53.6303 332.759C53.7335 332.759 53.8367 332.862 53.8367 332.965C53.8367 333.069 53.7335 333.172 53.6303 333.172L30.7237 339.26C30.7237 339.26 30.7238 339.26 30.6206 339.26L30.5174 339.26L1.41984 322.544L1.52307 322.028Z" fill="#00BCC8"/>
<path d="M150.214 451.322L157.849 415.827L128.339 426.352L141.134 451.425L140.618 451.425L127.823 426.352C127.823 426.249 127.823 426.249 127.823 426.146C127.823 426.043 127.926 426.043 127.926 426.043L158.159 415.312C158.262 415.312 158.365 415.312 158.365 415.312C158.468 415.415 158.468 415.415 158.468 415.518L150.73 451.322L150.214 451.322Z" fill="#00BCC8"/>
<path d="M140.531 451.413L127.942 426.752L112.259 451.619L111.639 451.619L127.633 426.133C127.633 426.03 127.736 426.03 127.839 426.03C127.942 426.03 128.046 426.133 128.046 426.133L140.943 451.413L140.531 451.413Z" fill="#00BCC8"/>
<path d="M112.254 451.536L111.635 451.536L127.215 426.772L73.8697 451.742L72.7347 451.742L127.731 425.946C127.834 425.946 127.937 425.946 128.041 426.049C128.144 426.153 128.144 426.256 128.041 426.359L112.254 451.536Z" fill="#00BCC8"/>
<path d="M128.047 426.456L73.979 451.736L72.844 451.736L127.015 426.353L55.9221 420.162L63.9703 451.839L63.4544 451.839L55.4062 419.956C55.4062 419.852 55.4062 419.749 55.4062 419.749C55.4062 419.646 55.5093 419.646 55.6125 419.646L127.944 426.043C128.047 426.043 128.15 426.146 128.15 426.25C128.253 426.25 128.15 426.353 128.047 426.456Z" fill="#00BCC8"/>
<path d="M407.231 450.085L409.088 433.988L383.912 450.291L382.983 450.291L409.192 433.369C409.295 433.369 409.398 433.266 409.501 433.369C409.604 433.369 409.604 433.472 409.604 433.575L407.644 450.188L407.231 450.085Z" fill="#00BCC8"/>
<path d="M246.699 286.842L246.802 286.842C246.905 286.842 246.905 286.739 246.905 286.636L249.382 274.666C249.382 274.563 249.382 274.563 249.382 274.46C249.382 274.357 249.278 274.357 249.175 274.357L187.678 267.237C187.575 267.237 187.472 267.34 187.369 267.444C187.369 267.547 187.369 267.65 187.575 267.753L246.699 286.842C246.596 286.842 246.596 286.842 246.699 286.842ZM248.866 274.873L246.492 286.326L190.052 268.063L248.866 274.873Z" fill="#00BCC8"/>
<path d="M441.613 449.88L438.415 415.211L409.73 433.474L419.429 449.983L418.913 449.983L409.317 433.577C409.214 433.474 409.317 433.371 409.42 433.268L438.621 414.592C438.724 414.592 438.827 414.592 438.827 414.592C438.93 414.592 438.93 414.695 438.93 414.798L442.129 449.88L441.613 449.88Z" fill="#00BCC8"/>
<path d="M409.508 433.674L409.611 433.674L438.812 414.998C438.915 414.998 438.915 414.895 438.915 414.792C438.915 414.689 438.915 414.586 438.812 414.586L388.974 379.607C388.871 379.503 388.768 379.503 388.665 379.607C388.562 379.71 388.562 379.813 388.562 379.916L409.198 433.571C409.301 433.571 409.301 433.571 409.508 433.674C409.405 433.674 409.405 433.674 409.508 433.674ZM438.193 414.792L409.508 433.055L389.284 380.432L438.193 414.792Z" fill="#00BCC8"/>
<path d="M320.964 435.028L409.495 433.583C409.598 433.583 409.598 433.583 409.701 433.48C409.701 433.377 409.804 433.377 409.701 433.274L389.064 379.619C389.064 379.516 388.961 379.516 388.858 379.516C388.755 379.516 388.652 379.516 388.652 379.516L320.758 434.615C320.654 434.718 320.654 434.821 320.654 434.925C320.758 435.028 320.861 435.028 320.964 435.028ZM409.082 433.171L321.583 434.615L388.652 380.238L409.082 433.171Z" fill="#00BCC8"/>
<path d="M384.027 450.184L383.099 450.184L408.585 433.675L321.808 435.016L349.564 450.287L348.532 450.287L320.776 435.016C320.673 434.913 320.673 434.81 320.673 434.707C320.673 434.603 320.776 434.5 320.879 434.5L409.41 433.056C409.513 433.056 409.616 433.159 409.616 433.262C409.616 433.365 409.616 433.468 409.513 433.572L384.027 450.184Z" fill="#00BCC8"/>
<path d="M348.634 450.288L321.703 435.43L330.886 450.391L330.37 450.391L320.878 434.914C320.774 434.811 320.878 434.707 320.878 434.604C320.981 434.501 321.084 434.501 321.187 434.604L349.769 450.288L348.634 450.288Z" fill="#00BCC8"/>
<path d="M330.265 450.38L320.875 435.006L267.22 450.69L265.466 450.69L320.875 434.49C320.979 434.49 321.082 434.49 321.185 434.593L330.884 450.277L330.265 450.38Z" fill="#00BCC8"/>
<path d="M85.3144 308.818C85.3144 308.818 85.4176 308.818 85.3144 308.818L187.775 267.752C187.878 267.752 187.878 267.648 187.878 267.545C187.878 267.442 187.878 267.339 187.775 267.339L135.977 224.621C135.874 224.621 135.874 224.518 135.771 224.518C135.668 224.518 135.668 224.621 135.564 224.621L85.0048 308.406C84.9016 308.509 85.0048 308.612 85.0048 308.715C85.2112 308.818 85.2112 308.818 85.3144 308.818ZM187.156 267.442L85.8303 308.096L135.874 225.137L187.156 267.442Z" fill="#00BCC8"/>
<path d="M85.3216 308.824C85.4248 308.824 85.5279 308.824 85.5279 308.721L136.087 224.937C136.087 224.834 136.087 224.834 136.087 224.73C136.087 224.627 135.984 224.627 135.984 224.627L93.5762 205.642C93.473 205.642 93.473 205.642 93.3698 205.642C93.2666 205.642 93.2666 205.745 93.2666 205.848L85.2184 308.618C85.1152 308.721 85.1152 308.824 85.3216 308.824ZM135.468 224.937L85.6311 307.586L93.5762 206.158L135.468 224.937Z" fill="#00BCC8"/>
<path d="M85.3128 308.827C85.416 308.827 85.5191 308.724 85.5191 308.621L93.5674 205.851C93.5674 205.748 93.5674 205.748 93.4642 205.645C93.4642 205.645 93.361 205.541 93.2578 205.541L57.8662 205.232C57.8662 205.232 57.763 205.232 57.6598 205.335C57.6598 205.438 57.5566 205.438 57.6598 205.541L84.9 308.621C85.1064 308.724 85.2096 308.827 85.3128 308.827ZM93.1547 206.057L85.2096 307.176L58.3821 205.748L93.1547 206.057Z" fill="#00BCC8"/>
<path d="M1.4355 312.733L53.5427 332.647L84.7039 308.709L1.4355 299.732L1.4355 299.216L85.4262 308.193C85.5294 308.193 85.6326 308.296 85.6326 308.399C85.6326 308.502 85.6325 308.605 85.5293 308.605L53.8523 332.957L53.7491 332.957L53.6459 332.957L1.64188 313.042L1.4355 312.733Z" fill="#00BCC8"/>
<path d="M93.3505 206.054C93.4537 206.054 93.5569 205.951 93.5569 205.951C93.5569 205.848 93.5569 205.745 93.4537 205.642L58.3716 172.004C58.2684 171.901 58.1652 171.901 58.0621 172.004C57.9589 172.004 57.9589 172.107 57.9589 172.211L57.8557 205.538C57.8557 205.642 57.9589 205.745 58.0621 205.745L93.3505 206.054ZM58.3716 172.726L92.7314 205.538L58.2684 205.229L58.3716 172.726Z" fill="#00BCC8"/>
<path d="M0.601178 144.053L57.9708 171.809L58.0739 18.5831L0.291646 94.3191L0.291646 93.4937L58.0739 17.6545C58.1771 17.5513 58.2803 17.5513 58.3835 17.5513C58.4866 17.5513 58.5898 17.6544 58.5898 17.7576L58.3835 172.119C58.3835 172.222 58.3835 172.325 58.2803 172.325L58.1771 172.325L58.0739 172.325L0.601178 144.466L0.601178 144.053Z" fill="#00BCC8"/>
<path d="M58.0686 205.744L58.1718 205.744C58.275 205.744 58.275 205.641 58.275 205.538L58.3782 172.21C58.3782 172.107 58.3782 172.107 58.275 172.004C58.1718 172.004 58.1718 171.9 58.0686 171.9L11.6364 177.163C11.5333 177.163 11.4301 177.266 11.4301 177.369C11.4301 177.472 11.4301 177.575 11.5333 177.679L57.8623 205.744C57.9654 205.744 57.9655 205.744 58.0686 205.744ZM57.9655 172.416L57.8623 205.125L12.5651 177.679L57.9655 172.416Z" fill="#00BCC8"/>
<path d="M0.706927 163.962L11.8506 177.169L57.3542 172.01L0.60371 144.563L0.60371 144.047L58.2828 172.01C58.386 172.01 58.386 172.113 58.386 172.319C58.386 172.423 58.2828 172.526 58.1796 172.526L11.7474 177.788C11.6442 177.788 11.6443 177.788 11.5411 177.685L0.706926 164.787L0.706927 163.962Z" fill="#00BCC8"/>
<path d="M0.800429 182.628L11.3251 177.366L0.697273 164.674L0.697273 163.952L11.9441 177.263C11.9441 177.366 12.0474 177.366 12.0474 177.469C12.0474 177.572 11.9441 177.572 11.9441 177.675L0.903587 183.144L0.800429 182.628Z" fill="#00BCC8"/>
<path d="M0.815253 185.622L9.68893 178.708L0.815253 183.145L0.815253 182.629L11.6494 177.264C11.7526 177.161 11.8558 177.264 11.959 177.367C12.0621 177.47 11.959 177.573 11.8558 177.677L0.815252 186.241L0.815253 185.622Z" fill="#00BCC8"/>
<path d="M320.99 435.002L267.232 450.686L265.477 450.686L320.267 434.693L222.966 384.649L246.492 450.789L245.976 450.789L222.347 384.237C222.347 384.133 222.347 384.03 222.45 383.927C222.553 383.824 222.657 383.824 222.76 383.927L321.093 434.59C321.196 434.59 321.196 434.693 321.196 434.796C321.196 434.899 321.093 435.002 320.99 435.002Z" fill="#00BCC8"/>
<path d="M246.083 450.904L222.557 384.557L158.79 415.512L237.312 450.904L236.177 450.904L158.068 415.719C157.965 415.719 157.965 415.615 157.965 415.512C157.965 415.409 158.068 415.306 158.068 415.306L222.557 384.042C222.66 384.042 222.66 384.042 222.763 384.042C222.867 384.042 222.867 384.145 222.867 384.145L246.599 450.904L246.083 450.904Z" fill="#00BCC8"/>
<path d="M218.422 308.105L218.525 308.105L246.797 286.849C246.9 286.746 246.9 286.643 246.9 286.54C246.797 286.437 246.694 286.437 246.591 286.437L201.809 302.739C201.706 302.739 201.603 302.843 201.603 302.946C201.603 303.049 201.706 303.152 201.809 303.152L218.422 308.105C218.319 308.105 218.422 308.105 218.422 308.105ZM245.249 287.468L218.422 307.692L202.635 302.946L245.249 287.468Z" fill="#00BCC8"/>
<path d="M201.798 303.152C201.798 303.152 201.901 303.152 201.798 303.152L246.682 286.849C246.785 286.849 246.888 286.746 246.888 286.643C246.888 286.54 246.785 286.436 246.682 286.436L187.662 267.348C187.558 267.348 187.455 267.348 187.455 267.451C187.352 267.554 187.352 267.657 187.455 267.657L201.591 303.049C201.591 303.152 201.694 303.152 201.798 303.152ZM245.857 286.643L201.901 302.636L187.971 267.864L245.857 286.643Z" fill="#00BCC8"/>
<path d="M222.657 384.467C222.864 384.467 222.864 384.363 222.864 384.26L218.633 308.008C218.633 307.905 218.53 307.802 218.427 307.802L201.814 302.849C201.711 302.849 201.608 302.849 201.608 302.952C201.505 303.055 201.505 303.055 201.505 303.159L222.348 384.363C222.451 384.363 222.554 384.467 222.657 384.467ZM218.22 308.111L222.244 381.784L202.124 303.365L218.22 308.111Z" fill="#00BCC8"/>
<path d="M85.3325 308.83L201.826 303.155C201.929 303.155 201.929 303.155 202.032 303.052C202.032 302.949 202.032 302.949 202.032 302.846L187.793 267.351C187.793 267.248 187.69 267.248 187.69 267.248C187.586 267.248 187.586 267.248 187.483 267.248L85.1261 308.314C85.0229 308.314 84.9197 308.521 85.0229 308.624C85.126 308.727 85.2293 308.83 85.3325 308.83ZM201.516 302.742L86.777 308.314L187.586 267.867L201.516 302.742Z" fill="#00BCC8"/>
<path d="M187.674 267.756C187.88 267.756 187.88 267.653 187.88 267.55L199.849 175.098C199.849 174.995 199.849 174.892 199.746 174.892C199.643 174.892 199.54 174.892 199.437 174.892L135.67 224.626C135.567 224.626 135.567 224.729 135.567 224.832C135.567 224.936 135.567 224.936 135.67 225.039L187.467 267.756C187.571 267.756 187.571 267.756 187.674 267.756ZM199.23 175.614L187.364 267.034L136.083 224.832L199.23 175.614Z" fill="#00BCC8"/>
<path d="M135.887 225.049C135.99 225.049 135.99 225.049 135.99 225.049L199.757 175.315C199.86 175.212 199.86 175.212 199.86 175.109C199.86 175.006 199.757 174.903 199.757 174.903L144.245 150.036C144.142 150.036 144.142 150.036 144.039 150.036C143.935 150.036 143.935 150.139 143.935 150.242L135.681 224.946C135.681 225.049 135.681 225.153 135.784 225.153C135.784 225.049 135.784 225.049 135.887 225.049ZM199.138 175.109L136.197 224.224L144.348 150.448L199.138 175.109Z" fill="#00BCC8"/>
<path d="M144.035 150.319C144.035 150.319 144.138 150.319 144.035 150.319C144.138 150.319 144.242 150.216 144.242 150.113L170.76 40.1203C170.76 40.0171 170.76 40.0171 170.76 39.9139C170.76 39.8107 170.656 39.8107 170.553 39.8107L58.3936 17.6265C58.2904 17.6265 58.1872 17.6265 58.1872 17.7296C58.0841 17.8328 58.0841 17.936 58.1872 18.0392L143.829 150.216C143.932 150.319 143.932 150.319 144.035 150.319ZM170.244 40.2235L143.932 149.494L58.8064 18.1424L170.244 40.2235Z" fill="#00BCC8"/>
<path d="M135.881 225.041L135.984 225.041C136.087 225.041 136.087 224.938 136.087 224.835L144.342 150.131C144.342 150.027 144.342 149.924 144.239 149.924C144.135 149.924 144.032 149.924 143.929 150.028L93.2664 205.746C93.1632 205.849 93.1632 205.849 93.1632 205.952C93.1632 206.056 93.2664 206.056 93.2664 206.159L135.881 225.041C135.778 225.041 135.778 225.041 135.881 225.041ZM143.723 150.853L135.674 224.422L93.8855 205.746L143.723 150.853Z" fill="#00BCC8"/>
<path d="M93.3649 206.051C93.4681 206.051 93.468 206.051 93.5712 205.948L144.234 150.23C144.337 150.126 144.337 150.023 144.234 149.92C144.131 149.817 144.028 149.817 143.924 149.817L58.0764 171.898C57.9732 171.898 57.9732 172.001 57.87 172.104C57.87 172.208 57.8701 172.311 57.9733 172.311L93.1585 205.948C93.2617 206.051 93.3649 206.051 93.3649 206.051ZM143.305 150.539L93.3649 205.432L58.6955 172.208L143.305 150.539Z" fill="#00BCC8"/>
<path d="M58.1664 172.415L144.118 150.333C144.221 150.333 144.221 150.23 144.324 150.23C144.324 150.127 144.324 150.127 144.324 150.024L58.5792 17.7438C58.476 17.6406 58.3729 17.6406 58.2697 17.6406C58.1665 17.6406 58.0633 17.7438 58.0633 17.847L57.8569 172.208C57.8569 172.311 57.8569 172.311 57.9601 172.415C58.0633 172.415 58.1664 172.415 58.1664 172.415ZM143.602 149.921L58.3728 171.795L58.5792 18.5693L143.602 149.921Z" fill="#00BCC8"/>
<path d="M222.636 384.464C222.739 384.464 222.739 384.464 222.842 384.361C222.945 384.257 222.945 384.257 222.945 384.154L202.102 302.95C202.102 302.846 201.999 302.846 201.999 302.743C201.896 302.743 201.793 302.743 201.793 302.743L113.572 363.724C113.469 363.827 113.469 363.827 113.469 363.93C113.469 364.034 113.572 364.137 113.675 364.137L222.636 384.464C222.533 384.464 222.636 384.464 222.636 384.464ZM201.69 303.362L222.326 383.948L114.294 363.827L201.69 303.362Z" fill="#00BCC8"/>
<path d="M158.163 415.711L158.266 415.711L222.755 384.447C222.859 384.447 222.859 384.344 222.859 384.24C222.859 384.137 222.755 384.034 222.652 384.034L113.691 363.707C113.588 363.707 113.485 363.707 113.485 363.81C113.485 363.913 113.485 364.017 113.485 364.12L158.06 415.711C157.957 415.711 158.06 415.711 158.163 415.711ZM221.827 384.344L158.163 415.195L114.207 364.223L221.827 384.344Z" fill="#00BCC8"/>
<path d="M113.585 364.133L113.688 364.133L201.91 303.152C202.013 303.048 202.013 302.945 202.013 302.842C202.013 302.739 201.91 302.636 201.806 302.636L85.3132 308.311C85.21 308.311 85.1068 308.311 85.1068 308.414C85.1068 308.517 85.1068 308.62 85.1068 308.62L113.379 363.926C113.482 364.029 113.482 364.133 113.585 364.133ZM200.981 303.255L113.688 363.513L85.7259 308.827L200.981 303.255Z" fill="#00BCC8"/>
<path d="M127.938 426.467C127.938 426.467 128.041 426.467 127.938 426.467L158.171 415.736C158.274 415.736 158.274 415.632 158.274 415.529C158.274 415.426 158.274 415.323 158.274 415.323L113.699 363.732C113.596 363.628 113.493 363.628 113.389 363.628C113.286 363.628 113.286 363.835 113.286 363.938L127.629 426.26C127.629 426.363 127.732 426.363 127.732 426.467C127.835 426.467 127.938 426.467 127.938 426.467ZM157.758 415.426L128.145 425.951L114.112 364.867L157.758 415.426Z" fill="#00BCC8"/>
<path d="M127.935 426.447C128.038 426.447 128.038 426.447 128.141 426.344C128.141 426.241 128.244 426.241 128.244 426.138L113.902 363.815C113.902 363.712 113.799 363.712 113.695 363.609C113.592 363.609 113.489 363.609 113.489 363.712L55.5004 419.74C55.3972 419.843 55.3972 419.947 55.3972 419.947C55.3972 420.05 55.5004 420.05 55.6035 420.153L127.935 426.447ZM113.489 364.331L127.625 425.931L56.1195 419.637L113.489 364.331Z" fill="#00BCC8"/>
<path d="M113.589 364.131C113.692 364.131 113.692 364.131 113.795 364.028C113.898 363.925 113.898 363.822 113.795 363.719L85.5231 308.413C85.5231 308.31 85.42 308.31 85.3168 308.31C85.2136 308.31 85.2136 308.31 85.1104 308.31L53.4333 332.661C53.3301 332.661 53.3302 332.764 53.3302 332.867C53.3302 332.97 53.4333 333.073 53.4333 333.073L113.486 363.925C113.589 364.131 113.589 364.131 113.589 364.131ZM85.2136 308.929L113.073 363.306L54.0524 332.97L85.2136 308.929Z" fill="#00BCC8"/>
<path d="M55.6058 420.064C55.709 420.064 55.709 420.064 55.8122 419.961L113.801 364.036C113.904 363.933 113.904 363.933 113.904 363.83C113.904 363.726 113.801 363.726 113.698 363.623L30.7388 338.859C30.6357 338.859 30.5325 338.859 30.5325 338.963C30.4293 339.066 30.4293 339.169 30.4293 339.169L55.3995 419.961C55.3995 420.064 55.5026 420.064 55.6058 420.064ZM113.182 364.036L55.8122 419.445L31.1516 339.478L113.182 364.036Z" fill="#00BCC8"/>
<path d="M113.59 364.141C113.693 364.141 113.797 364.038 113.797 364.038C113.797 363.935 113.797 363.832 113.693 363.729L53.6412 332.877C53.538 332.877 53.538 332.877 53.4348 332.877L30.5282 338.965C30.425 338.965 30.3219 339.068 30.3219 339.171C30.3219 339.274 30.425 339.377 30.5282 339.377L113.59 364.141ZM53.5379 333.29L111.217 362.903L31.6633 339.068L53.5379 333.29Z" fill="#00BCC8"/>
<path d="M471.736 394.992C471.839 394.992 471.942 394.889 471.942 394.786C471.942 394.682 471.942 394.579 471.839 394.476L403.222 354.235C403.119 354.235 403.119 354.235 403.016 354.235C402.913 354.235 402.913 354.338 402.913 354.338L388.673 379.618C388.673 379.721 388.673 379.721 388.673 379.824C388.673 379.927 388.777 379.927 388.88 379.927L471.736 394.992C471.632 394.992 471.632 394.992 471.736 394.992ZM403.119 354.854L470.394 394.27L389.189 379.618L403.119 354.854Z" fill="#00BCC8"/>
<path d="M388.775 380.006C388.878 380.006 388.878 380.006 388.775 380.006C388.878 380.006 388.981 379.902 388.981 379.902L403.22 354.623C403.22 354.519 403.22 354.519 403.22 354.416C403.22 354.313 403.117 354.313 403.014 354.313L360.606 345.852C360.503 345.852 360.399 345.852 360.399 345.955C360.296 346.058 360.399 346.162 360.399 346.265L388.568 380.006C388.671 379.902 388.775 380.006 388.775 380.006ZM402.601 354.623L388.775 379.283L361.225 346.368L402.601 354.623Z" fill="#00BCC8"/>
<path d="M268.874 209.778C269.08 209.778 269.183 209.572 269.08 209.469L255.77 158.187C255.77 158.084 255.563 157.98 255.46 157.98C255.357 157.98 255.254 158.187 255.254 158.29L268.564 209.572C268.667 209.675 268.771 209.778 268.874 209.778Z" fill="#00BCC8"/>
<path d="M268.887 209.771C268.99 209.771 268.99 209.771 268.99 209.667C269.093 209.564 269.093 209.461 269.093 209.461L255.783 158.179C255.783 158.076 255.68 158.076 255.68 158.076C255.576 158.076 255.576 158.076 255.473 158.076L199.548 174.895C199.445 174.895 199.342 174.998 199.342 175.101C199.342 175.204 199.342 175.308 199.445 175.308L268.681 209.771C268.784 209.771 268.784 209.771 268.887 209.771ZM255.37 158.489L268.474 209.048L200.27 175.101L255.37 158.489Z" fill="#00BCC8"/>
<path d="M249.172 274.884C249.276 274.884 249.379 274.781 249.379 274.678L269.087 209.57C269.087 209.466 269.087 209.363 268.983 209.26C268.88 209.157 268.777 209.157 268.674 209.26L187.469 267.249C187.366 267.352 187.366 267.455 187.366 267.455C187.366 267.558 187.469 267.661 187.572 267.661L249.172 274.884C249.069 274.884 249.172 274.884 249.172 274.884ZM268.468 210.085L248.966 274.368L188.295 267.352L268.468 210.085Z" fill="#00BCC8"/>
<path d="M187.675 267.749L187.778 267.749L268.983 209.76C269.086 209.76 269.086 209.657 269.086 209.554C269.086 209.45 268.983 209.347 268.983 209.347L199.747 174.884C199.644 174.884 199.644 174.884 199.541 174.884C199.437 174.884 199.437 174.987 199.437 175.091L187.468 267.542C187.468 267.645 187.468 267.749 187.571 267.749C187.571 267.749 187.571 267.749 187.675 267.749ZM268.363 209.554L187.881 267.026L199.747 175.4L268.363 209.554Z" fill="#00BCC8"/>
<path d="M291.374 320.491C291.477 320.491 291.477 320.491 291.581 320.388C291.684 320.285 291.684 320.182 291.581 320.079L249.276 274.472C249.173 274.369 249.173 274.369 249.069 274.369C248.966 274.369 248.966 274.472 248.863 274.575L246.387 286.544C246.387 286.647 246.387 286.751 246.49 286.751L291.271 320.491L291.374 320.491ZM249.276 275.194L289.414 318.531L246.902 286.544L249.276 275.194Z" fill="#00BCC8"/>
<path d="M291.369 320.477C291.472 320.477 291.575 320.374 291.575 320.374C291.575 320.271 291.575 320.168 291.472 320.065L246.691 286.427C246.588 286.324 246.485 286.324 246.381 286.427L218.109 307.683C218.006 307.786 218.006 307.889 218.006 307.889C218.006 307.889 218.109 308.095 218.213 308.095L291.369 320.477ZM246.691 286.943L290.544 319.858L219.141 307.786L246.691 286.943Z" fill="#00BCC8"/>
<path d="M222.656 384.461C222.759 384.461 222.759 384.461 222.863 384.358L291.685 320.385C291.789 320.281 291.789 320.178 291.789 320.178C291.789 320.075 291.685 320.075 291.582 319.972L218.632 307.59C218.529 307.59 218.529 307.59 218.426 307.693C218.323 307.693 218.323 307.796 218.323 307.899L222.553 384.151C222.347 384.358 222.45 384.358 222.656 384.461C222.553 384.461 222.553 384.461 222.656 384.461ZM290.86 320.385L222.863 383.635L218.735 308.106L290.86 320.385Z" fill="#00BCC8"/>
<path d="M1.12763 255.379L84.9119 308.106L57.8781 205.955L1.02447 229.996L1.02447 229.481L57.9813 205.439C58.0845 205.439 58.0844 205.439 58.1876 205.439C58.2908 205.439 58.2908 205.542 58.2908 205.645L85.531 308.725C85.531 308.828 85.531 308.931 85.4278 308.931L85.3247 308.931L85.2215 308.931L1.23085 255.998L1.12763 255.379Z" fill="#00BCC8"/>
<path d="M1.43524 299.328L84.3941 308.201L1.22893 255.888L1.22893 255.269L85.5291 308.304C85.6323 308.408 85.6323 308.511 85.6323 308.614C85.6323 308.717 85.5291 308.82 85.4259 308.82L1.53846 299.843L1.43524 299.328Z" fill="#00BCC8"/>
<path d="M1.00263 229.375L56.618 205.849L0.899406 209.151L0.899406 208.635L57.9595 205.23C58.0626 205.23 58.1658 205.333 58.1658 205.436C58.1658 205.54 58.1658 205.643 58.0626 205.746L1.00263 229.891L1.00263 229.375Z" fill="#00BCC8"/>
<path d="M388.779 380.02C388.882 380.02 388.882 380.02 388.985 379.916C389.089 379.813 389.089 379.71 388.985 379.607L360.816 345.866C360.816 345.763 360.713 345.763 360.61 345.763L304.892 345.557C304.788 345.557 304.685 345.66 304.685 345.763C304.685 345.866 304.685 345.969 304.788 346.073L388.779 380.02ZM360.507 346.279L388.057 379.194L306.233 346.176L360.507 346.279Z" fill="#00BCC8"/>
<path d="M320.988 435.03C321.091 435.03 321.091 435.03 321.091 434.927L388.985 379.827C389.089 379.724 389.089 379.724 389.089 379.621C389.089 379.518 388.985 379.415 388.985 379.415L305.098 345.571C304.995 345.571 304.892 345.571 304.892 345.571C304.788 345.674 304.788 345.674 304.788 345.777L320.885 434.721C320.782 434.927 320.782 435.03 320.988 435.03C320.885 435.03 320.885 435.03 320.988 435.03ZM388.366 379.827L321.091 434.411L305.201 346.293L388.366 379.827Z" fill="#00BCC8"/>
<path d="M360.606 346.286C360.709 346.286 360.812 346.183 360.812 346.08C360.812 345.977 360.812 345.873 360.709 345.77L291.474 319.975C291.37 319.975 291.267 319.975 291.164 320.078C291.061 320.181 291.061 320.284 291.164 320.387L304.681 345.977C304.681 346.08 304.784 346.08 304.887 346.08L360.606 346.286ZM291.886 320.697L359.265 345.77L304.99 345.564L291.886 320.697Z" fill="#00BCC8"/>
<path d="M320.983 435.02L321.086 435.02C321.189 434.917 321.189 434.917 321.189 434.813L305.093 345.87C305.093 345.767 304.99 345.767 304.99 345.664C304.887 345.664 304.887 345.664 304.783 345.664L222.547 384.048C222.444 384.048 222.444 384.151 222.444 384.254C222.444 384.357 222.444 384.46 222.547 384.46L320.88 435.123C320.88 435.02 320.88 435.02 320.983 435.02ZM304.68 346.179L320.57 434.297L223.063 384.151L304.68 346.179Z" fill="#00BCC8"/>
<path d="M222.66 384.462L305 346.078C305.103 346.078 305.103 345.975 305.103 345.975C305.103 345.872 305.103 345.872 305.103 345.769L291.586 320.179C291.586 320.076 291.483 320.076 291.38 320.076C291.277 320.076 291.277 320.076 291.173 320.179L222.351 384.153C222.247 384.256 222.247 384.359 222.351 384.462C222.454 384.462 222.557 384.462 222.66 384.462ZM304.587 345.769L223.898 383.327L291.277 320.592L304.587 345.769Z" fill="#00BCC8"/>
<path d="M1.64483 349.683L30.1233 339.055L1.54168 322.649L1.54168 322.133L30.8455 338.952C30.9487 338.952 30.9487 339.055 30.9487 339.158C30.9487 339.261 30.8455 339.364 30.7424 339.364L1.64483 350.198L1.64483 349.683Z" fill="#00BCC8"/>
<path d="M255.568 158.381C255.671 158.381 255.671 158.381 255.775 158.278C255.878 158.175 255.775 157.969 255.671 157.969L199.746 120.616C199.643 120.513 199.437 120.616 199.437 120.72C199.334 120.823 199.437 121.029 199.54 121.029L255.465 158.381C255.465 158.381 255.465 158.381 255.568 158.381Z" fill="#00BCC8"/>
<path d="M199.538 175.305C199.641 175.305 199.641 175.305 199.538 175.305L255.566 158.486C255.669 158.486 255.772 158.383 255.772 158.28C255.772 158.177 255.772 158.074 255.669 158.074L199.744 120.722C199.641 120.722 199.538 120.618 199.538 120.722C199.435 120.722 199.435 120.825 199.435 120.928L199.435 175.202C199.435 175.305 199.435 175.305 199.538 175.408C199.435 175.305 199.538 175.305 199.538 175.305ZM254.947 158.074L199.744 174.686L199.744 121.238L254.947 158.074Z" fill="#00BCC8"/>
<path d="M199.535 175.309L199.638 175.309C199.741 175.309 199.741 175.206 199.741 175.102L199.741 120.828C199.741 120.725 199.741 120.622 199.638 120.622C199.535 120.622 199.432 120.622 199.432 120.622L143.816 149.926C143.713 149.926 143.713 150.029 143.713 150.132C143.713 150.235 143.816 150.339 143.816 150.339L199.535 175.309ZM199.432 121.241L199.432 174.69L144.642 150.132L199.432 121.241Z" fill="#00BCC8"/>
<path d="M144.027 150.339L144.13 150.339L199.745 121.035C199.849 120.932 199.952 120.829 199.849 120.725L170.751 39.9334C170.751 39.8302 170.648 39.727 170.545 39.727C170.442 39.727 170.338 39.8302 170.338 39.9334L143.82 150.029C143.82 150.132 143.82 150.236 143.924 150.236C143.924 150.339 144.027 150.339 144.027 150.339ZM199.333 120.725L144.44 149.72L170.648 40.8621L199.333 120.725Z" fill="#00BCC8"/>
<path d="M1.85024 383.218L55.1957 419.229L30.6382 339.572L1.85024 376.614L1.85024 375.789L30.535 338.849C30.6382 338.746 30.6382 338.746 30.7414 338.746C30.8446 338.746 30.9478 338.849 30.9478 338.952L55.918 419.744C55.918 419.848 55.9179 419.951 55.8147 420.054L55.7116 420.054L55.6084 420.054L1.9534 383.837L1.85024 383.218Z" fill="#00BCC8"/>
<path d="M2.05637 432.95L54.9891 419.742L1.74684 383.835L1.74684 383.216L55.8145 419.639C55.9177 419.742 55.9177 419.742 55.9177 419.846C55.9177 419.949 55.8145 420.052 55.7113 420.052L2.05637 433.363L2.05637 432.95Z" fill="#00BCC8"/>
<path d="M1.748 375.899L29.9169 339.578L1.54163 350.103L1.54163 349.587L30.5359 338.753C30.6391 338.753 30.7423 338.753 30.8455 338.856C30.9486 338.959 30.9486 339.062 30.8455 339.166L1.748 376.621L1.748 375.899Z" fill="#00BCC8"/>
<path d="M42.3943 1.021C43.8389 1.021 44.9739 2.156 44.9739 3.49737C44.9739 4.94193 43.8389 6.07694 42.4975 6.07694C41.053 6.07694 39.918 4.94194 39.918 3.60056C39.8148 2.156 40.9498 1.021 42.3943 1.021Z" fill="#00BCC8"/>
<path d="M42.3841 1.03183C40.9395 1.03183 39.9078 2.16683 39.9078 3.61139C39.9078 5.05595 41.0428 6.08777 42.4873 6.08777C43.9319 6.08777 44.9637 4.95276 44.9637 3.5082C44.8605 2.06365 43.7255 1.03183 42.3841 1.03183ZM42.3841 -3.067e-07C44.3446 -1.3531e-07 45.8923 1.54773 45.8923 3.5082C45.8923 5.46867 44.3446 7.01641 42.3841 7.01641C40.4236 7.01641 38.8759 5.46867 38.8759 3.5082C38.8759 1.65092 40.4236 -4.78089e-07 42.3841 -3.067e-07Z" fill="#00BCC8"/>
<path d="M438.713 413.253C439.538 413.253 440.26 413.976 440.26 414.801C440.26 415.627 439.538 416.349 438.713 416.349C437.887 416.349 437.165 415.627 437.165 414.801C437.062 413.976 437.784 413.253 438.713 413.253Z" fill="#00BCC8"/>
<path d="M438.72 413.234C437.895 413.234 437.172 413.956 437.172 414.782C437.172 415.607 437.895 416.329 438.72 416.329C439.546 416.329 440.268 415.607 440.268 414.782C440.268 413.853 439.546 413.234 438.72 413.234ZM438.617 412.202C439.958 412.202 441.197 413.337 441.197 414.679C441.197 416.02 440.062 417.258 438.72 417.258C437.276 417.258 436.141 416.123 436.141 414.782C436.141 413.44 437.276 412.202 438.617 412.202Z" fill="#00BCC8"/>
<path d="M409.504 431.296C410.742 431.296 411.671 432.225 411.671 433.463C411.671 434.701 410.742 435.63 409.504 435.63C408.266 435.63 407.337 434.701 407.337 433.463C407.337 432.225 408.266 431.296 409.504 431.296Z" fill="#00BCC8"/>
<path d="M409.512 431.296C408.273 431.296 407.345 432.225 407.345 433.463C407.345 434.702 408.273 435.63 409.512 435.63C410.75 435.63 411.678 434.702 411.678 433.463C411.575 432.225 410.647 431.193 409.512 431.296ZM409.408 430.265C411.163 430.265 412.504 431.606 412.504 433.36C412.504 435.114 411.163 436.456 409.408 436.456C407.654 436.456 406.313 435.114 406.313 433.36C406.313 431.709 407.758 430.265 409.408 430.265Z" fill="#00BCC8"/>
<path d="M11.7293 175.608C12.7612 175.608 13.5867 176.433 13.5867 177.465C13.5867 178.497 12.7612 179.322 11.7293 179.322C10.6975 179.322 9.87206 178.497 9.87206 177.465C9.87206 176.433 10.6975 175.608 11.7293 175.608Z" fill="#00BCC8"/>
<path d="M11.7334 175.618C10.7016 175.618 9.87612 176.443 9.87612 177.475C9.87612 178.507 10.7016 179.332 11.7334 179.332C12.7652 179.332 13.5907 178.507 13.5907 177.475C13.5907 176.443 12.7652 175.515 11.7334 175.618ZM11.7334 174.586C13.2811 174.586 14.6226 175.824 14.6226 177.372C14.6226 178.92 13.3844 180.261 11.8366 180.261C10.2889 180.261 8.94751 179.023 8.94751 177.475C8.84433 175.927 10.0825 174.586 11.7334 174.586Z" fill="#00BCC8"/>
<path d="M135.863 228.031C134.097 228.031 132.664 226.599 132.664 224.832C132.664 223.066 134.097 221.634 135.863 221.634C137.63 221.634 139.062 223.066 139.062 224.832C139.062 226.599 137.63 228.031 135.863 228.031Z" fill="#00BCC8"/>
<path d="M135.768 221.638C134.014 221.638 132.57 223.082 132.57 224.836C132.57 226.591 134.014 228.035 135.768 228.035C137.522 228.035 138.967 226.591 138.967 224.836C139.07 222.979 137.626 221.638 135.768 221.638ZM135.768 220.606C138.038 220.606 139.999 222.463 139.999 224.733C139.999 227.003 138.141 228.964 135.871 228.964C133.601 228.964 131.641 227.106 131.641 224.836C131.641 222.566 133.498 220.606 135.768 220.606Z" fill="#00BCC8"/>
<path d="M92.0297 205.842C92.0297 205.12 92.6488 204.5 93.371 204.5C94.0933 204.5 94.7124 205.12 94.7124 205.842C94.7124 206.564 94.0933 207.183 93.371 207.183C92.6488 207.183 92.0297 206.564 92.0297 205.842Z" fill="#00BCC8"/>
<path d="M93.3622 204.407C92.6399 204.407 92.0208 205.026 92.0208 205.748C92.0208 206.47 92.6399 207.089 93.3622 207.089C94.0844 207.089 94.7035 206.47 94.7035 205.748C94.7035 205.026 94.1876 204.407 93.3622 204.407ZM93.3622 203.478C94.7035 203.478 95.7354 204.51 95.7354 205.851C95.7354 207.193 94.7035 208.224 93.3622 208.224C92.0208 208.224 90.989 207.193 90.989 205.851C90.989 204.51 92.124 203.478 93.3622 203.478Z" fill="#00BCC8"/>
<path d="M58.1774 175.291C56.4233 175.291 54.9788 173.846 54.9788 172.195C54.9788 170.441 56.4233 168.997 58.0742 168.997C59.8283 168.997 61.2729 170.441 61.2729 172.092C61.3761 173.846 59.9315 175.291 58.1774 175.291Z" fill="#00BCC8"/>
<path d="M58.1708 169.008C56.4167 169.008 54.9721 170.453 55.0753 172.207C55.0753 173.961 56.5199 175.406 58.274 175.303C60.0281 175.303 61.4727 173.858 61.3695 172.104C61.3695 170.35 59.9249 169.008 58.1708 169.008ZM58.1708 167.977C60.4408 167.977 62.2981 169.834 62.2981 172.104C62.2981 174.374 60.4408 176.231 58.1708 176.231C55.9008 176.231 54.0435 174.374 54.0435 172.104C54.0435 169.937 55.9008 168.08 58.1708 167.977Z" fill="#00BCC8"/>
<path d="M56.4267 17.8443C56.4267 16.7093 57.2522 15.8838 58.3872 15.8838C59.5222 15.8838 60.3477 16.7093 60.3477 17.8443C60.3477 18.9793 59.5222 19.8047 58.3872 19.8047C57.2522 19.8047 56.4267 18.9793 56.4267 17.8443Z" fill="#00BCC8"/>
<path d="M58.3795 15.8897C57.2445 15.8897 56.4191 16.8184 56.4191 17.8502C56.4191 18.9852 57.3477 19.8107 58.3795 19.8107C59.5145 19.8107 60.34 18.882 60.34 17.8502C60.34 16.7152 59.4113 15.8897 58.3795 15.8897ZM58.3795 14.8579C60.0304 14.8579 61.3718 16.1993 61.3718 17.747C61.3718 19.3979 60.0305 20.7393 58.4827 20.7393C56.8318 20.7393 55.4904 19.3979 55.4904 17.8502C55.3872 16.1993 56.7286 14.8579 58.3795 14.8579Z" fill="#00BCC8"/>
<path d="M201.811 300.051C203.359 300.051 204.7 301.289 204.7 302.94C204.7 304.488 203.462 305.829 201.811 305.829C200.16 305.829 198.922 304.591 198.922 302.94C198.922 301.393 200.263 300.051 201.811 300.051Z" fill="#00BCC8"/>
<path d="M201.806 300.056C200.259 300.056 198.917 301.397 198.917 302.945C198.917 304.492 200.259 305.834 201.806 305.834C203.354 305.834 204.696 304.492 204.696 302.945C204.696 301.397 203.354 300.056 201.806 300.056ZM201.806 299.127C203.87 299.127 205.624 300.778 205.624 302.945C205.624 305.008 203.973 306.762 201.806 306.762C199.743 306.762 197.989 305.112 197.989 302.945C197.989 300.881 199.743 299.127 201.806 299.127Z" fill="#00BCC8"/>
<path d="M158.163 413.035C159.505 413.035 160.64 414.17 160.64 415.512C160.64 416.853 159.505 417.988 158.163 417.988C156.822 417.988 155.687 416.853 155.687 415.512C155.687 414.17 156.822 413.035 158.163 413.035Z" fill="#00BCC8"/>
<path d="M158.163 413.036C156.821 413.036 155.686 414.171 155.686 415.512C155.686 416.854 156.821 417.989 158.163 417.989C159.504 417.989 160.639 416.854 160.639 415.512C160.639 414.171 159.504 413.036 158.163 413.036ZM158.163 412.107C160.02 412.107 161.568 413.655 161.568 415.512C161.568 417.37 160.02 418.917 158.163 418.917C156.306 418.917 154.758 417.37 154.758 415.512C154.758 413.655 156.202 412.107 158.163 412.107Z" fill="#00BCC8"/>
<path d="M127.921 423.052C129.675 423.052 131.12 424.497 131.12 426.251C131.12 428.005 129.675 429.45 127.921 429.45C126.167 429.45 124.722 428.005 124.722 426.251C124.722 424.497 126.167 423.052 127.921 423.052Z" fill="#00BCC8"/>
<path d="M127.925 423.041C126.171 423.041 124.727 424.486 124.727 426.24C124.727 427.994 126.171 429.438 127.925 429.438C129.679 429.438 131.124 427.994 131.124 426.24C131.124 424.382 129.679 423.041 127.925 423.041ZM127.925 422.009C130.195 422.009 132.052 423.867 132.052 426.137C132.052 428.407 130.195 430.264 127.925 430.264C125.655 430.264 123.798 428.407 123.798 426.137C123.798 423.97 125.655 422.112 127.925 422.009Z" fill="#00BCC8"/>
<path d="M113.585 362.056C114.617 362.056 115.339 362.882 115.339 363.81C115.339 364.842 114.513 365.564 113.585 365.564C112.553 365.564 111.831 364.739 111.831 363.81C111.831 362.882 112.656 362.056 113.585 362.056Z" fill="#00BCC8"/>
<path d="M113.597 362.059C112.565 362.059 111.843 362.885 111.843 363.814C111.843 364.845 112.668 365.568 113.597 365.568C114.628 365.568 115.351 364.742 115.351 363.814C115.351 362.885 114.628 362.059 113.597 362.059ZM113.597 361.131C115.144 361.131 116.383 362.369 116.383 363.917C116.383 365.465 115.144 366.703 113.597 366.703C112.049 366.703 110.811 365.465 110.811 363.917C110.914 362.369 112.049 361.131 113.597 361.131Z" fill="#00BCC8"/>
<path d="M53.5474 329.548C55.4047 329.548 56.9525 331.096 57.0557 332.953C57.0557 334.81 55.5079 336.358 53.6506 336.461C51.7934 336.461 50.2456 334.913 50.1424 333.056C50.1424 331.096 51.6901 329.548 53.5474 329.548Z" fill="#00BCC8"/>
<path d="M53.5301 329.559C51.6728 329.559 50.1251 331.107 50.1251 333.067C50.1251 334.925 51.6729 336.472 53.6334 336.472C55.4906 336.472 57.0384 334.925 57.0384 332.964C57.0384 331.107 55.4906 329.559 53.5301 329.559ZM53.5301 328.527C56.0065 328.527 57.967 330.488 57.967 332.964C57.967 335.441 56.0065 337.401 53.5301 337.401C51.0538 337.401 49.0933 335.441 49.0933 332.964C49.1965 330.591 51.1569 328.527 53.5301 328.527Z" fill="#00BCC8"/>
<path d="M471.615 393.224C472.44 393.224 473.059 393.843 473.059 394.669C473.059 395.494 472.44 396.113 471.615 396.113C470.789 396.113 470.17 395.494 470.17 394.669C470.273 393.946 470.892 393.327 471.615 393.224Z" fill="#00BCC8"/>
<path d="M471.627 393.226C470.801 393.226 470.182 393.846 470.182 394.671C470.182 395.496 470.801 396.116 471.627 396.116C472.452 396.116 473.071 395.496 473.071 394.671C473.071 393.949 472.452 393.226 471.627 393.226ZM471.627 392.298C472.968 392.298 474 393.33 474 394.671C474 396.012 472.968 397.044 471.627 397.044C470.285 397.044 469.254 396.012 469.254 394.671C469.254 393.433 470.389 392.298 471.627 392.298Z" fill="#00BCC8"/>
<path d="M403.02 352.157C404.258 352.157 405.29 353.189 405.29 354.427C405.29 355.665 404.258 356.697 403.02 356.697C401.781 356.697 400.75 355.665 400.75 354.427C400.75 353.189 401.781 352.157 403.02 352.157Z" fill="#00BCC8"/>
<path d="M403.008 352.162C401.77 352.162 400.738 353.194 400.738 354.432C400.738 355.67 401.77 356.702 403.008 356.702C404.246 356.702 405.278 355.67 405.278 354.432C405.278 353.194 404.246 352.162 403.008 352.162ZM403.008 351.233C404.762 351.233 406.31 352.678 406.31 354.432C406.31 356.186 404.865 357.734 403.111 357.734C401.357 357.734 399.809 356.289 399.809 354.535C399.706 352.678 401.151 351.233 403.008 351.233Z" fill="#00BCC8"/>
<path d="M268.861 208.122C269.583 208.122 270.202 208.741 270.202 209.463C270.202 210.186 269.583 210.805 268.861 210.805C268.138 210.805 267.519 210.186 267.519 209.463C267.416 208.741 268.035 208.122 268.861 208.122Z" fill="#00BCC8"/>
<path d="M268.87 208.117C268.148 208.117 267.529 208.736 267.529 209.458C267.529 210.18 268.148 210.8 268.87 210.8C269.592 210.8 270.211 210.18 270.211 209.458C270.211 208.736 269.592 208.117 268.87 208.117ZM268.87 207.085C270.211 207.085 271.243 208.117 271.243 209.458C271.243 210.8 270.211 211.831 268.87 211.831C267.529 211.831 266.497 210.8 266.497 209.458C266.497 208.22 267.529 207.188 268.87 207.085Z" fill="#00BCC8"/>
<path d="M187.676 264.343C189.43 264.343 190.874 265.788 190.874 267.439C190.874 269.193 189.43 270.637 187.779 270.637C186.025 270.637 184.58 269.193 184.58 267.542C184.477 265.788 185.921 264.343 187.676 264.343Z" fill="#00BCC8"/>
<path d="M187.676 264.347C185.922 264.347 184.477 265.792 184.58 267.546C184.58 269.3 186.025 270.744 187.779 270.641C189.533 270.641 190.978 269.197 190.875 267.443C190.771 265.688 189.327 264.347 187.676 264.347ZM187.573 263.418C189.843 263.418 191.7 265.276 191.7 267.546C191.7 269.816 189.843 271.673 187.573 271.673C185.303 271.673 183.445 269.816 183.445 267.546C183.549 265.276 185.303 263.418 187.573 263.418Z" fill="#00BCC8"/>
<path d="M249.169 276.206C248.344 276.206 247.621 275.484 247.621 274.658C247.621 273.833 248.344 273.11 249.169 273.11C249.995 273.11 250.717 273.833 250.717 274.658C250.717 275.484 249.995 276.206 249.169 276.206Z" fill="#00BCC8"/>
<path d="M249.167 273.013C248.342 273.013 247.619 273.735 247.619 274.56C247.619 275.386 248.342 276.108 249.167 276.108C249.992 276.108 250.715 275.386 250.715 274.56C250.715 273.735 249.992 273.013 249.167 273.013ZM249.167 272.084C250.612 272.084 251.747 273.219 251.747 274.664C251.747 276.108 250.612 277.243 249.167 277.243C247.722 277.243 246.587 276.108 246.587 274.664C246.587 273.219 247.722 272.084 249.167 272.084Z" fill="#00BCC8"/>
<path d="M246.599 284.859C247.631 284.859 248.353 285.684 248.353 286.613C248.353 287.645 247.528 288.367 246.599 288.367C245.567 288.367 244.845 287.542 244.845 286.613C244.845 285.684 245.67 284.859 246.599 284.859Z" fill="#00BCC8"/>
<path d="M246.589 284.876C245.557 284.876 244.834 285.701 244.834 286.63C244.834 287.662 245.66 288.384 246.589 288.384C247.62 288.384 248.343 287.558 248.343 286.63C248.446 285.598 247.62 284.876 246.589 284.876ZM246.589 283.844C248.136 283.844 249.375 285.082 249.375 286.527C249.375 288.074 248.136 289.312 246.692 289.312C245.144 289.312 243.906 288.074 243.906 286.63C243.906 285.082 245.144 283.844 246.589 283.844Z" fill="#00BCC8"/>
<path d="M218.416 306.568C219.139 306.568 219.861 307.187 219.861 307.91C219.861 308.632 219.242 309.354 218.519 309.354C217.797 309.354 217.075 308.735 217.075 308.013C216.972 307.187 217.591 306.568 218.416 306.568Z" fill="#00BCC8"/>
<path d="M218.415 306.556C217.693 306.556 217.074 307.175 217.074 308C217.074 308.723 217.693 309.342 218.519 309.342C219.344 309.342 219.86 308.723 219.86 307.897C219.757 307.175 219.138 306.556 218.415 306.556ZM218.415 305.524C219.757 305.524 220.789 306.556 220.789 307.897C220.789 309.239 219.757 310.27 218.415 310.27C217.074 310.27 216.042 309.239 216.042 307.897C216.042 306.659 217.074 305.524 218.415 305.524Z" fill="#00BCC8"/>
<path d="M85.3076 306.137C86.649 306.137 87.7839 307.169 87.7839 308.51C87.7839 309.851 86.7521 310.986 85.4107 310.986C84.0694 310.986 82.9343 309.954 82.9343 308.613C82.8312 307.272 83.9662 306.137 85.3076 306.137Z" fill="#00BCC8"/>
<path d="M85.2996 306.148C83.9582 306.148 82.9263 307.283 82.9263 308.625C82.9263 309.966 84.0614 310.998 85.4027 310.998C86.7441 310.998 87.7759 309.863 87.7759 308.522C87.6727 307.283 86.6409 306.148 85.2996 306.148ZM85.2996 305.22C87.1569 305.22 88.7046 306.767 88.7046 308.625C88.7046 310.482 87.1569 312.03 85.2996 312.03C83.4423 312.03 81.8945 310.482 81.8945 308.625C81.8945 306.767 83.4423 305.22 85.2996 305.22Z" fill="#00BCC8"/>
<path d="M58.062 202.774C59.6097 202.774 60.8479 204.013 60.8479 205.56C60.8479 207.108 59.6097 208.346 58.062 208.346C56.5142 208.346 55.276 207.108 55.276 205.56C55.276 204.013 56.5142 202.774 58.062 202.774Z" fill="#00BCC8"/>
<path d="M58.076 202.742C56.5283 202.742 55.2901 203.98 55.2901 205.528C55.2901 207.076 56.5283 208.314 58.076 208.314C59.6238 208.314 60.862 207.076 60.862 205.528C60.862 203.98 59.5206 202.742 58.076 202.742ZM57.9729 201.71C60.0365 201.71 61.6874 203.361 61.7906 205.425C61.8938 207.489 60.1397 209.14 58.076 209.243C56.0124 209.243 54.3615 207.592 54.2583 205.528C54.2583 203.465 55.9092 201.814 57.9729 201.71Z" fill="#00BCC8"/>
<path d="M388.775 376.721C390.426 376.721 391.767 378.062 391.767 379.713C391.767 381.364 390.426 382.705 388.775 382.705C387.124 382.705 385.783 381.364 385.783 379.713C385.783 378.062 387.124 376.721 388.775 376.721Z" fill="#00BCC8"/>
<path d="M388.765 376.719C387.115 376.719 385.773 378.06 385.773 379.711C385.773 381.362 387.115 382.703 388.765 382.703C390.416 382.703 391.758 381.362 391.758 379.711C391.861 378.06 390.416 376.719 388.765 376.719ZM388.765 375.79C390.932 375.79 392.79 377.544 392.79 379.711C392.79 381.878 391.035 383.735 388.869 383.735C386.702 383.735 384.844 381.981 384.844 379.814C384.844 377.544 386.599 375.79 388.765 375.79Z" fill="#00BCC8"/>
<path d="M358.84 346.075C358.84 345.146 359.562 344.321 360.594 344.321C361.523 344.321 362.348 345.043 362.348 346.075C362.348 347.004 361.626 347.829 360.594 347.829C359.666 347.829 358.84 347.004 358.84 346.075Z" fill="#00BCC8"/>
<path d="M360.608 344.309C359.679 344.309 358.853 345.134 358.853 346.063C358.853 346.992 359.679 347.817 360.608 347.817C361.536 347.817 362.362 346.992 362.362 346.063C362.362 345.031 361.536 344.309 360.608 344.309ZM360.608 343.38C362.052 343.38 363.29 344.619 363.29 346.063C363.29 347.508 362.052 348.746 360.608 348.746C359.163 348.746 357.925 347.508 357.925 346.063C357.925 344.619 359.163 343.38 360.608 343.38Z" fill="#00BCC8"/>
<path d="M320.985 432.121C322.533 432.121 323.771 433.359 323.771 434.804C323.771 436.352 322.533 437.59 321.088 437.59C319.541 437.59 318.302 436.352 318.302 434.907C318.199 433.359 319.437 432.121 320.985 432.121Z" fill="#00BCC8"/>
<path d="M320.983 432.126C319.435 432.126 318.3 433.364 318.3 434.911C318.3 436.459 319.539 437.594 321.086 437.594C322.634 437.594 323.769 436.356 323.769 434.808C323.666 433.261 322.428 432.126 320.983 432.126ZM320.983 431.094C323.047 431.094 324.698 432.745 324.698 434.808C324.698 436.872 323.047 438.523 320.983 438.523C318.92 438.523 317.269 436.872 317.269 434.808C317.269 432.848 318.92 431.094 320.983 431.094Z" fill="#00BCC8"/>
<path d="M304.877 342.979C306.425 342.979 307.766 344.217 307.766 345.868C307.766 347.416 306.528 348.757 304.877 348.757C303.33 348.757 301.988 347.519 301.988 345.868C301.988 344.32 303.33 342.979 304.877 342.979Z" fill="#00BCC8"/>
<path d="M304.879 342.985C303.331 342.985 301.99 344.326 301.99 345.874C301.99 347.422 303.331 348.763 304.879 348.763C306.427 348.763 307.768 347.422 307.768 345.874C307.768 344.326 306.427 342.985 304.879 342.985ZM304.879 342.056C306.942 342.056 308.697 343.707 308.697 345.874C308.697 347.938 307.046 349.692 304.879 349.692C302.815 349.692 301.061 348.041 301.061 345.874C301.061 343.81 302.815 342.056 304.879 342.056Z" fill="#00BCC8"/>
<path d="M222.636 381.674C223.978 381.674 225.113 382.809 225.113 384.15C225.113 385.492 223.978 386.627 222.636 386.627C221.295 386.627 220.16 385.492 220.16 384.15C220.16 382.809 221.192 381.674 222.636 381.674Z" fill="#00BCC8"/>
<path d="M222.644 381.677C221.303 381.677 220.168 382.812 220.168 384.153C220.168 385.494 221.303 386.629 222.644 386.629C223.986 386.629 225.121 385.494 225.121 384.153C225.121 382.812 223.986 381.677 222.644 381.677ZM222.644 380.748C224.501 380.748 226.152 382.296 226.152 384.153C226.152 386.01 224.605 387.661 222.747 387.661C220.89 387.661 219.239 386.114 219.239 384.256C219.136 382.296 220.684 380.748 222.644 380.748Z" fill="#00BCC8"/>
<path d="M291.373 318.416C292.405 318.416 293.23 319.241 293.23 320.273C293.23 321.305 292.405 322.131 291.373 322.131C290.341 322.131 289.515 321.305 289.515 320.273C289.515 319.241 290.341 318.416 291.373 318.416Z" fill="#00BCC8"/>
<path d="M291.361 318.423C290.329 318.423 289.504 319.249 289.504 320.281C289.504 321.312 290.329 322.138 291.361 322.138C292.393 322.138 293.219 321.312 293.219 320.281C293.219 319.249 292.393 318.423 291.361 318.423ZM291.361 317.495C292.909 317.495 294.147 318.733 294.147 320.281C294.147 321.828 292.909 323.066 291.361 323.066C289.814 323.066 288.575 321.828 288.575 320.281C288.575 318.733 289.814 317.495 291.361 317.495Z" fill="#00BCC8"/>
<path d="M255.55 156.011C256.789 156.011 257.717 156.94 257.717 158.178C257.717 159.416 256.789 160.345 255.55 160.345C254.312 160.345 253.384 159.416 253.384 158.178C253.384 157.043 254.312 156.011 255.55 156.011Z" fill="#00BCC8"/>
<path d="M255.55 156.013C254.311 156.013 253.383 157.044 253.383 158.179C253.383 159.418 254.415 160.346 255.55 160.346C256.685 160.346 257.716 159.314 257.716 158.179C257.716 156.941 256.685 156.013 255.55 156.013ZM255.55 155.084C257.304 155.084 258.748 156.529 258.748 158.179C258.748 159.934 257.304 161.378 255.653 161.378C253.899 161.378 252.454 159.934 252.454 158.283C252.351 156.425 253.796 155.084 255.55 155.084Z" fill="#00BCC8"/>
<path d="M199.528 173.439C200.457 173.439 201.179 174.161 201.179 175.09C201.179 176.019 200.457 176.741 199.528 176.741C198.6 176.741 197.877 176.019 197.877 175.09C197.981 174.161 198.703 173.439 199.528 173.439Z" fill="#00BCC8"/>
<path d="M199.541 173.44C198.612 173.44 197.89 174.162 197.89 175.09C197.89 176.019 198.612 176.741 199.541 176.741C200.469 176.741 201.191 176.019 201.191 175.09C201.191 174.162 200.469 173.44 199.541 173.44ZM199.541 172.408C200.985 172.408 202.12 173.543 202.12 174.987C202.12 176.432 200.985 177.567 199.541 177.567C198.096 177.567 196.961 176.432 196.961 174.987C196.961 173.646 198.096 172.408 199.541 172.408Z" fill="#00BCC8"/>
<path d="M193.751 30.1304C195.196 30.1304 196.331 31.2654 196.331 32.7099C196.331 34.1545 195.196 35.2895 193.751 35.2895C192.307 35.2895 191.172 34.1545 191.172 32.7099C191.172 31.3686 192.307 30.1304 193.751 30.1304Z" fill="#00BCC8"/>
<path d="M193.757 30.124C192.312 30.124 191.177 31.259 191.177 32.7035C191.177 34.1481 192.312 35.2831 193.757 35.2831C195.201 35.2831 196.336 34.1481 196.336 32.7035C196.336 31.259 195.201 30.124 193.757 30.124ZM193.757 29.1953C195.717 29.1953 197.265 30.7431 197.368 32.7035C197.471 34.664 195.82 36.2117 193.86 36.3149C191.9 36.3149 190.352 34.7672 190.249 32.8067C190.249 30.8462 191.796 29.1953 193.757 29.1953Z" fill="#00BCC8"/>
<path d="M199.638 124.328C197.677 124.328 196.129 122.781 196.129 120.82C196.129 118.86 197.677 117.312 199.638 117.312C201.598 117.312 203.146 118.86 203.146 120.82C203.146 122.678 201.598 124.328 199.638 124.328Z" fill="#00BCC8"/>
<path d="M199.64 117.31C197.679 117.31 196.132 118.858 196.132 120.818C196.132 122.779 197.679 124.327 199.64 124.327C201.6 124.327 203.148 122.779 203.148 120.818C203.148 118.858 201.497 117.31 199.64 117.31ZM199.64 116.278C202.116 116.278 204.077 118.239 204.077 120.715C204.077 123.192 202.116 125.152 199.64 125.152C197.163 125.152 195.203 123.192 195.203 120.715C195.1 118.342 197.163 116.382 199.64 116.278Z" fill="#00BCC8"/>
<path d="M144.025 148.376C145.057 148.376 145.779 149.201 145.779 150.13C145.779 151.162 144.953 151.884 144.025 151.884C142.993 151.884 142.271 151.059 142.271 150.13C142.271 149.098 143.096 148.376 144.025 148.376Z" fill="#00BCC8"/>
<path d="M144.016 148.374C142.984 148.374 142.261 149.2 142.261 150.128C142.261 151.16 143.087 151.882 144.016 151.882C145.047 151.882 145.77 151.057 145.77 150.128C145.77 149.096 145.047 148.374 144.016 148.374ZM144.016 147.342C145.563 147.342 146.802 148.58 146.802 150.128C146.802 151.676 145.563 152.914 144.016 152.914C142.468 152.914 141.23 151.676 141.23 150.128C141.23 148.58 142.468 147.342 144.016 147.342Z" fill="#00BCC8"/>
<path d="M170.541 38.0713C171.676 38.0713 172.501 38.9999 172.501 40.0318C172.501 41.1668 171.573 41.9922 170.541 41.9922C169.406 41.9922 168.58 41.0636 168.58 40.0318C168.58 38.9999 169.406 38.0713 170.541 38.0713Z" fill="#00BCC8"/>
<path d="M170.545 38.0727C169.41 38.0727 168.585 39.0013 168.585 40.0332C168.585 41.1682 169.513 41.9936 170.545 41.9936C171.68 41.9936 172.506 41.065 172.506 40.0332C172.506 39.0013 171.68 38.0727 170.545 38.0727ZM170.545 37.144C172.196 37.144 173.537 38.4854 173.537 40.0332C173.537 41.6841 172.196 43.0255 170.648 43.0255C168.997 43.0255 167.656 41.6841 167.656 40.1363C167.553 38.4854 168.894 37.144 170.545 37.144Z" fill="#00BCC8"/>
<path d="M55.5909 417.994C56.6227 417.994 57.4482 418.819 57.4482 419.851C57.4482 420.883 56.6227 421.708 55.5909 421.708C54.5591 421.708 53.7336 420.883 53.7336 419.851C53.7336 418.819 54.5591 417.994 55.5909 417.994Z" fill="#00BCC8"/>
<path d="M55.5988 417.993C54.567 417.993 53.7415 418.818 53.7415 419.85C53.7415 420.882 54.567 421.707 55.5988 421.707C56.6306 421.707 57.4562 420.882 57.4562 419.85C57.4562 418.818 56.6306 417.993 55.5988 417.993ZM55.5988 417.064C57.1466 417.064 58.3848 418.302 58.3848 419.85C58.3848 421.398 57.1466 422.636 55.5988 422.636C54.0511 422.636 52.8129 421.398 52.8129 419.85C52.8129 418.302 54.0511 417.064 55.5988 417.064Z" fill="#00BCC8"/>
<path d="M30.7268 341.317C29.4731 341.317 28.4568 340.301 28.4568 339.047C28.4568 337.794 29.4731 336.777 30.7268 336.777C31.9805 336.777 32.9968 337.794 32.9968 339.047C32.9968 340.301 31.9805 341.317 30.7268 341.317Z" fill="#00BCC8"/>
<path d="M30.7221 336.789C29.4839 336.789 28.452 337.821 28.452 339.059C28.452 340.298 29.4839 341.33 30.7221 341.33C31.9603 341.33 32.9921 340.298 32.9921 339.059C32.9921 337.821 31.9603 336.789 30.7221 336.789ZM30.7221 335.861C32.5794 335.861 34.0239 337.305 34.0239 339.163C34.0239 341.02 32.5794 342.465 30.7221 342.465C28.8648 342.465 27.4202 341.02 27.4202 339.163C27.4202 337.305 28.8648 335.861 30.7221 335.861Z" fill="#00BCC8"/>
</g>
</svg>
