<svg width="146" height="48" viewBox="0 0 146 48" fill="none" xmlns="http://www.w3.org/2000/svg">
<rect x="0.6" y="1.36842" width="45.4" height="45.4" rx="7.4" fill="#00BCC8" fill-opacity="0.1" stroke="#00BCC8" stroke-width="1.2"/>
<path d="M56.1987 41.5258C55.604 41.4608 54.5037 41.1989 53.7536 40.9438L52.3899 40.48L53.8751 40.3549C57.5064 40.0492 60.1919 38.4276 61.4264 35.7951C61.9008 34.7834 61.974 34.3906 61.9705 32.873C61.9668 31.2919 61.9064 31.005 61.3544 29.9509C60.6431 28.5926 60.1077 28.0447 59.0693 27.6127C58.3438 27.3107 58.3308 27.2884 58.6384 26.8728C59.4576 25.7661 59.8123 24.691 59.8176 23.2979C59.824 21.608 59.8436 21.6121 61.8543 23.7202C62.8671 24.7821 63.4964 25.665 64.0432 26.7912C64.4654 27.6605 64.8107 28.486 64.8107 28.6256C64.8107 28.8266 65.7261 28.8794 69.2118 28.8794H73.6129V20.616V12.3526L72.8794 11.9132C72.476 11.6716 72.1063 11.4424 72.0578 11.4038C72.0094 11.3652 72.9776 10.327 74.2095 9.09664L76.4492 6.8596L76.547 16.2624L76.6448 25.6651L77.1875 24.5644C77.7767 23.3695 78.6132 22.6182 79.918 22.1119C80.6299 21.8357 81.8385 21.7775 88.1468 21.7153L95.5411 21.6425L95.4819 27.8422L95.4228 34.0419L94.9015 34.9185C94.1968 36.1037 93.2649 36.9581 92.1349 37.4552C91.6032 37.6891 91.0475 38.1092 90.8568 38.4215L90.5194 38.9741L90.1975 38.4155C89.9873 38.0507 89.4448 37.6624 88.6334 37.296C86.391 36.2833 85.3492 35.0368 85.3492 33.3663V32.5808H75.3734H65.3976V33.3152C65.3976 34.4727 64.6647 36.8084 63.9566 37.9077C62.2351 40.5802 59.4469 41.8805 56.1987 41.5258ZM91.5878 34.3533L92.1953 33.7881V29.5805V25.3729L86.3761 25.3751C80.6633 25.3773 80.539 25.3854 79.5789 25.8383C78.441 26.3749 76.7426 28.1055 76.7426 28.7283C76.7426 28.8116 79.4273 28.8797 82.7085 28.8797H88.6744V31.3298C88.6744 33.7781 88.6748 33.7803 89.2462 34.3493C90.0014 35.1014 90.7824 35.1024 91.5878 34.3533ZM112.821 39.9664C111.946 39.855 109.995 39.157 109.995 38.9554C109.995 38.9137 110.633 38.876 111.413 38.8716C114.978 38.8517 117.819 36.3481 117.819 33.2272V32.5808H113.681H109.543L109.672 29.7586C109.856 25.7251 110.407 24.6753 112.458 24.445L113.321 24.3482V23.1004C113.321 20.9519 113.949 20.436 116.816 20.2283C118.185 20.1292 118.89 19.9742 119.597 19.6173C120.118 19.3542 120.592 19.1391 120.649 19.1391C120.707 19.1391 120.753 21.3306 120.753 24.0092V28.8794H130.852H140.951L140.82 28.0638C140.536 26.2967 139.388 24.8533 137.833 24.3095C137.247 24.1047 135.781 23.9134 133.957 23.8037C128.764 23.4914 128.773 23.4971 128.773 20.4665V18.5348L129.409 19.0095C130.873 20.1029 131.672 20.3517 134.244 20.5162C137.093 20.6983 137.834 20.8586 139.018 21.5493C140.809 22.5949 142.146 24.6179 142.831 27.321L143.202 28.782L144.399 28.84L145.595 28.8981V30.7394V32.5808H144.617C143.68 32.5808 143.639 32.6033 143.641 33.1165C143.643 33.7679 144.489 35.6313 145.055 36.2335C145.464 36.6681 145.465 36.6718 145.072 36.6718C144.595 36.6718 143.325 35.7847 142.64 34.9734C142.192 34.4436 141.937 33.9347 141.61 32.9217C141.507 32.6028 140.84 32.5808 131.253 32.5808H121.006L120.883 33.8863C120.652 36.3495 119.434 37.9954 116.935 39.2207C115.557 39.8965 114.201 40.1423 112.821 39.9664ZM117.819 26.2495V23.6196H117.36C116.726 23.6196 115.644 24.0007 115.208 24.3772C114.93 24.617 114.867 24.877 114.936 25.4908C115.024 26.269 115.007 26.2963 114.339 26.4653C113.557 26.6631 112.991 27.3215 112.809 28.2463L112.685 28.8794H115.252H117.819V26.2495ZM99.8239 19.8728V7.16475L102.073 9.39868C103.311 10.6273 104.323 11.686 104.323 11.7512C104.323 11.8165 104.015 12.0351 103.638 12.237L102.954 12.6042V22.5925V32.5808H101.389H99.8239V19.8728ZM131.805 12.8318L130.632 11.7851L131.592 10.738C132.12 10.1621 132.67 9.56223 132.815 9.40497C133.042 9.15797 133.25 9.28887 134.342 10.3666L135.606 11.6141L134.409 12.698C133.752 13.2941 133.161 13.8036 133.096 13.8302C133.032 13.8568 132.451 13.4075 131.805 12.8318Z" fill="#111111"/>
<path d="M56.1987 41.5258C55.604 41.4608 54.5037 41.1989 53.7536 40.9438L52.3899 40.48L53.8751 40.3549C57.5064 40.0492 60.1919 38.4276 61.4264 35.7951C61.9008 34.7834 61.974 34.3906 61.9705 32.873C61.9668 31.2919 61.9064 31.005 61.3544 29.9509C60.6431 28.5926 60.1077 28.0447 59.0693 27.6127C58.3438 27.3107 58.3308 27.2884 58.6384 26.8728C59.4576 25.7661 59.8123 24.691 59.8176 23.2979C59.824 21.608 59.8436 21.6121 61.8543 23.7202C62.8671 24.7821 63.4964 25.665 64.0432 26.7912C64.4654 27.6605 64.8107 28.486 64.8107 28.6256C64.8107 28.8266 65.7261 28.8794 69.2118 28.8794H73.6129V20.616V12.3526L72.8794 11.9132C72.476 11.6716 72.1063 11.4424 72.0578 11.4038C72.0094 11.3652 72.9776 10.327 74.2095 9.09664L76.4492 6.8596L76.547 16.2624L76.6448 25.6651L77.1875 24.5644C77.7767 23.3695 78.6132 22.6182 79.918 22.1119C80.6299 21.8357 81.8385 21.7775 88.1468 21.7153L95.5411 21.6425L95.4819 27.8422L95.4228 34.0419L94.9015 34.9185C94.1968 36.1037 93.2649 36.9581 92.1349 37.4552C91.6032 37.6891 91.0475 38.1092 90.8568 38.4215L90.5194 38.9741L90.1975 38.4155C89.9873 38.0507 89.4448 37.6624 88.6334 37.296C86.391 36.2833 85.3492 35.0368 85.3492 33.3663V32.5808H75.3734H65.3976V33.3152C65.3976 34.4727 64.6647 36.8084 63.9566 37.9077C62.2351 40.5802 59.4469 41.8805 56.1987 41.5258ZM91.5878 34.3533L92.1953 33.7881V29.5805V25.3729L86.3761 25.3751C80.6633 25.3773 80.539 25.3854 79.5789 25.8383C78.441 26.3749 76.7426 28.1055 76.7426 28.7283C76.7426 28.8116 79.4273 28.8797 82.7085 28.8797H88.6744V31.3298C88.6744 33.7781 88.6748 33.7803 89.2462 34.3493C90.0014 35.1014 90.7824 35.1024 91.5878 34.3533ZM112.821 39.9664C111.946 39.855 109.995 39.157 109.995 38.9554C109.995 38.9137 110.633 38.876 111.413 38.8716C114.978 38.8517 117.819 36.3481 117.819 33.2272V32.5808H113.681H109.543L109.672 29.7586C109.856 25.7251 110.407 24.6753 112.458 24.445L113.321 24.3482V23.1004C113.321 20.9519 113.949 20.436 116.816 20.2283C118.185 20.1292 118.89 19.9742 119.597 19.6173C120.118 19.3542 120.592 19.1391 120.649 19.1391C120.707 19.1391 120.753 21.3306 120.753 24.0092V28.8794H130.852H140.951L140.82 28.0638C140.536 26.2967 139.388 24.8533 137.833 24.3095C137.247 24.1047 135.781 23.9134 133.957 23.8037C128.764 23.4914 128.773 23.4971 128.773 20.4665V18.5348L129.409 19.0095C130.873 20.1029 131.672 20.3517 134.244 20.5162C137.093 20.6983 137.834 20.8586 139.018 21.5493C140.809 22.5949 142.146 24.6179 142.831 27.321L143.202 28.782L144.399 28.84L145.595 28.8981V30.7394V32.5808H144.617C143.68 32.5808 143.639 32.6033 143.641 33.1165C143.643 33.7679 144.489 35.6313 145.055 36.2335C145.464 36.6681 145.465 36.6718 145.072 36.6718C144.595 36.6718 143.325 35.7847 142.64 34.9734C142.192 34.4436 141.937 33.9347 141.61 32.9217C141.507 32.6028 140.84 32.5808 131.253 32.5808H121.006L120.883 33.8863C120.652 36.3495 119.434 37.9954 116.935 39.2207C115.557 39.8965 114.201 40.1423 112.821 39.9664ZM117.819 26.2495V23.6196H117.36C116.726 23.6196 115.644 24.0007 115.208 24.3772C114.93 24.617 114.867 24.877 114.936 25.4908C115.024 26.269 115.007 26.2963 114.339 26.4653C113.557 26.6631 112.991 27.3215 112.809 28.2463L112.685 28.8794H115.252H117.819V26.2495ZM99.8239 19.8728V7.16475L102.073 9.39868C103.311 10.6273 104.323 11.686 104.323 11.7512C104.323 11.8165 104.015 12.0351 103.638 12.237L102.954 12.6042V22.5925V32.5808H101.389H99.8239V19.8728ZM131.805 12.8318L130.632 11.7851L131.592 10.738C132.12 10.1621 132.67 9.56223 132.815 9.40497C133.042 9.15797 133.25 9.28887 134.342 10.3666L135.606 11.6141L134.409 12.698C133.752 13.2941 133.161 13.8036 133.096 13.8302C133.032 13.8568 132.451 13.4075 131.805 12.8318Z" fill="url(#paint0_linear_86_6939)"/>
<path fill-rule="evenodd" clip-rule="evenodd" d="M17.9805 12.878L32.9441 21.591C34.9618 22.7659 34.9618 25.6806 32.9441 26.8554L17.9805 35.5685C15.9499 36.7508 13.4019 35.286 13.4019 32.9362V29.4049L13.4019 29.4016L13.4019 29.3983V24.5312C13.4019 24.5301 13.4019 24.529 13.4019 24.5279C13.4019 24.5268 13.4019 24.5258 13.4019 24.5247V19.6576L13.4019 19.6543L13.4019 19.651V15.5102C13.4019 13.1605 15.9499 11.6956 17.9805 12.878ZM13.4019 24.5346C13.4054 25.3726 14.0859 26.0509 14.9248 26.0509C15.7659 26.0509 16.4478 25.369 16.4478 24.5279C16.4478 23.6868 15.7659 23.005 14.9248 23.005C14.0859 23.005 13.4054 23.6833 13.4019 24.5213V19.6609C13.4054 20.499 14.0859 21.1773 14.9248 21.1773C15.7659 21.1773 16.4478 20.4954 16.4478 19.6543C16.4478 19.5506 16.4374 19.4492 16.4176 19.3513H16.4477L16.4477 16.1521C16.4477 15.681 16.9597 15.3882 17.3658 15.6271L31.0893 23.6997C31.4897 23.9353 31.4897 24.5143 31.0893 24.7499L17.3658 32.8226C16.9597 33.0614 16.4477 32.7686 16.4477 32.2975L16.4477 29.4145L16.4478 29.4016L16.4477 29.3886V29.0983H16.4176C16.277 28.4025 15.6621 27.8786 14.9248 27.8786C14.1876 27.8786 13.5727 28.4025 13.4321 29.0983H13.4019V24.5346ZM13.432 19.3513C13.4126 19.4472 13.4023 19.5462 13.4019 19.6477V19.3513H13.432Z" fill="url(#paint1_linear_86_6939)"/>
<defs>
<linearGradient id="paint0_linear_86_6939" x1="70.5131" y1="9.75323" x2="84.2534" y2="52.0135" gradientUnits="userSpaceOnUse">
<stop offset="0.28125" stop-color="#00BCC8"/>
<stop offset="1" stop-color="#167DB7"/>
</linearGradient>
<linearGradient id="paint1_linear_86_6939" x1="17.496" y1="14.4203" x2="33.3213" y2="30.6485" gradientUnits="userSpaceOnUse">
<stop offset="0.28125" stop-color="#00BCC8"/>
<stop offset="1" stop-color="#167DB7"/>
</linearGradient>
</defs>
</svg>
