<svg width="366" height="348" viewBox="0 0 366 348" fill="none" xmlns="http://www.w3.org/2000/svg">
<g opacity="0.5">
<path d="M365.306 38.3029L320.804 13.6677L332.724 2.93949L365.306 26.8594V26.3826L332.803 2.46268C332.724 2.38321 332.644 2.38321 332.565 2.46268L320.247 13.5088C320.168 13.5882 320.168 13.5882 320.168 13.6677C320.168 13.7472 320.247 13.7472 320.247 13.8266L365.306 38.7002V38.3029Z" fill="#00BCC8"/>
<path d="M365.147 71.9953L321.121 14.3014L365.306 38.6981V38.3008L320.565 13.5861C320.486 13.5067 320.406 13.5861 320.327 13.6656C320.247 13.7451 320.247 13.8245 320.327 13.904L365.147 72.631V71.9953Z" fill="#00BCC8"/>
<path d="M183.559 347.271L243.478 320.252L249.358 347.589H249.756L243.796 319.934C243.796 319.854 243.716 319.854 243.716 319.775C243.637 319.775 243.637 319.775 243.557 319.775L182.685 347.191L183.559 347.271Z" fill="#00BCC8"/>
<path d="M363.789 335.444L324.453 348H325.645L363.789 335.841V335.444Z" fill="#00BCC8"/>
<path d="M365.385 26.4573L333.359 2.85524L365.544 1.82215V1.4248L332.803 2.53736C332.724 2.53736 332.644 2.61683 332.644 2.6963C332.644 2.77576 332.644 2.85523 332.724 2.9347L365.464 27.0136L365.385 26.4573Z" fill="#00BCC8"/>
<path d="M364.674 160.686L321.284 158.143L356.329 136.925L364.753 143.442V142.965L356.488 136.528C356.409 136.449 356.329 136.449 356.25 136.528L320.569 158.143C320.489 158.223 320.489 158.302 320.489 158.382C320.489 158.461 320.569 158.541 320.648 158.541L364.674 161.163V160.686Z" fill="#00BCC8"/>
<path d="M42.7307 346.562L49.8829 334.404L51.3133 346.642H51.7106L50.2007 333.847C50.2007 333.768 50.1213 333.688 50.0418 333.688C49.9623 333.688 49.8829 333.688 49.8034 333.768L42.2539 346.642L42.7307 346.562Z" fill="#00BCC8"/>
<path d="M363.785 335.438L324.448 347.994H325.64L363.785 335.836V335.438Z" fill="#00BCC8"/>
<path d="M363.795 333.453L322.551 323.202C322.472 323.202 322.313 323.202 322.313 323.361L316.114 347.996H316.512L322.71 323.599L363.795 333.85V333.453Z" fill="#00BCC8"/>
<path d="M364.197 248.016L341.707 260.97L324.701 256.44L364.276 241.262V240.864L324.065 256.281C323.986 256.281 323.906 256.361 323.906 256.44C323.906 256.52 323.986 256.599 324.065 256.599L341.707 261.288C341.707 261.288 341.707 261.288 341.787 261.288H341.866L364.276 248.414L364.197 248.016Z" fill="#00BCC8"/>
<path d="M249.68 347.595L243.799 320.258L266.527 328.363L256.673 347.674H257.07L266.924 328.363C266.924 328.284 266.924 328.284 266.924 328.205C266.924 328.125 266.845 328.125 266.845 328.125L243.561 319.86C243.481 319.86 243.402 319.86 243.402 319.86C243.322 319.94 243.322 319.94 243.322 320.019L249.282 347.595H249.68Z" fill="#00BCC8"/>
<path d="M257.138 347.664L266.833 328.671L278.912 347.823H279.389L267.071 328.195C267.071 328.115 266.992 328.115 266.912 328.115C266.833 328.115 266.753 328.195 266.753 328.195L256.82 347.664H257.138Z" fill="#00BCC8"/>
<path d="M278.915 347.76H279.392L267.393 328.688L308.478 347.919H309.352L266.995 328.052C266.916 328.052 266.836 328.052 266.757 328.132C266.677 328.211 266.677 328.291 266.757 328.37L278.915 347.76Z" fill="#00BCC8"/>
<path d="M266.752 328.444L308.393 347.914H309.268L267.547 328.365L322.3 323.597L316.102 347.993H316.499L322.698 323.438C322.698 323.358 322.698 323.279 322.698 323.279C322.698 323.199 322.618 323.199 322.539 323.199L266.831 328.126C266.752 328.126 266.673 328.206 266.673 328.285C266.593 328.285 266.673 328.365 266.752 328.444Z" fill="#00BCC8"/>
<path d="M51.7321 346.642L50.3016 334.245L69.6919 346.801H70.4071L50.2222 333.768C50.1427 333.768 50.0632 333.688 49.9838 333.768C49.9043 333.768 49.9043 333.847 49.9043 333.927L51.4142 346.721L51.7321 346.642Z" fill="#00BCC8"/>
<path d="M175.37 220.918H175.29C175.211 220.918 175.211 220.838 175.211 220.759L173.304 211.54C173.304 211.461 173.304 211.461 173.304 211.381C173.304 211.302 173.383 211.302 173.463 211.302L220.826 205.819C220.905 205.819 220.985 205.898 221.064 205.978C221.064 206.057 221.064 206.136 220.905 206.216L175.37 220.918C175.449 220.918 175.449 220.918 175.37 220.918ZM173.701 211.699L175.529 220.52L218.998 206.454L173.701 211.699Z" fill="#00BCC8"/>
<path d="M25.2523 346.485L27.7158 319.783L49.808 333.849L42.338 346.564H42.7353L50.1259 333.929C50.2054 333.849 50.1259 333.77 50.0464 333.69L27.5569 319.307C27.4774 319.307 27.398 319.307 27.398 319.307C27.3185 319.307 27.3185 319.386 27.3185 319.466L24.855 346.485H25.2523Z" fill="#00BCC8"/>
<path d="M49.979 334.004H49.8996L27.41 319.62C27.3306 319.62 27.3306 319.54 27.3306 319.461C27.3306 319.382 27.3306 319.302 27.41 319.302L65.7932 292.362C65.8727 292.283 65.9521 292.283 66.0316 292.362C66.1111 292.442 66.1111 292.521 66.1111 292.601L50.2174 333.924C50.138 333.924 50.138 333.924 49.979 334.004C50.0585 334.004 50.0585 334.004 49.979 334.004ZM27.8869 319.461L49.979 333.527L65.5548 292.998L27.8869 319.461Z" fill="#00BCC8"/>
<path d="M118.173 335.045L49.9892 333.933C49.9097 333.933 49.9097 333.933 49.8302 333.853C49.8302 333.774 49.7508 333.774 49.8302 333.694L65.7239 292.371C65.7239 292.292 65.8034 292.292 65.8828 292.292C65.9623 292.292 66.0418 292.292 66.0418 292.292L118.332 334.728C118.411 334.807 118.411 334.886 118.411 334.966C118.332 335.045 118.252 335.045 118.173 335.045ZM50.3071 333.615L117.696 334.728L66.0418 292.848L50.3071 333.615Z" fill="#00BCC8"/>
<path d="M69.6036 346.719H70.3188L50.6902 334.004L117.523 335.037L96.146 346.798H96.9407L118.318 335.037C118.397 334.957 118.397 334.878 118.397 334.798C118.397 334.719 118.318 334.639 118.238 334.639L50.0544 333.527C49.975 333.527 49.8955 333.606 49.8955 333.686C49.8955 333.765 49.8955 333.845 49.975 333.924L69.6036 346.719Z" fill="#00BCC8"/>
<path d="M96.8624 346.798L117.604 335.355L110.531 346.878H110.928L118.239 334.958C118.319 334.878 118.239 334.799 118.239 334.719C118.16 334.64 118.08 334.64 118.001 334.719L95.9883 346.798H96.8624Z" fill="#00BCC8"/>
<path d="M111.01 346.869L118.241 335.029L159.565 347.108H160.916L118.241 334.631C118.162 334.631 118.082 334.631 118.003 334.711L110.533 346.79L111.01 346.869Z" fill="#00BCC8"/>
<path d="M299.663 237.843C299.663 237.843 299.584 237.843 299.663 237.843L220.751 206.215C220.672 206.215 220.672 206.135 220.672 206.056C220.672 205.976 220.672 205.897 220.751 205.897L260.644 172.997C260.724 172.997 260.724 172.917 260.803 172.917C260.883 172.917 260.883 172.997 260.962 172.997L299.902 237.525C299.981 237.605 299.902 237.684 299.902 237.764C299.743 237.843 299.743 237.843 299.663 237.843ZM221.228 205.976L299.266 237.287L260.724 173.394L221.228 205.976Z" fill="#00BCC8"/>
<path d="M299.658 237.847C299.578 237.847 299.499 237.847 299.499 237.768L260.56 173.239C260.56 173.16 260.56 173.16 260.56 173.081C260.56 173.001 260.639 173.001 260.639 173.001L293.3 158.379C293.38 158.379 293.38 158.379 293.459 158.379C293.539 158.379 293.539 158.458 293.539 158.538L299.737 237.688C299.817 237.768 299.817 237.847 299.658 237.847ZM261.036 173.239L299.42 236.894L293.3 158.776L261.036 173.239Z" fill="#00BCC8"/>
<path d="M299.664 237.85C299.585 237.85 299.505 237.77 299.505 237.691L293.307 158.54C293.307 158.461 293.307 158.461 293.386 158.381C293.386 158.381 293.466 158.302 293.545 158.302L320.803 158.063C320.803 158.063 320.882 158.063 320.962 158.143C320.962 158.222 321.041 158.222 320.962 158.302L299.982 237.691C299.823 237.77 299.744 237.85 299.664 237.85ZM293.625 158.699L299.744 236.578L320.405 158.461L293.625 158.699Z" fill="#00BCC8"/>
<path d="M364.264 240.858L324.133 256.195L300.133 237.759L364.264 230.845V230.448L299.577 237.361C299.497 237.361 299.418 237.441 299.418 237.52C299.418 237.6 299.418 237.679 299.497 237.679L323.894 256.434H323.974H324.053L364.105 241.096L364.264 240.858Z" fill="#00BCC8"/>
<path d="M293.474 158.697C293.395 158.697 293.315 158.617 293.315 158.617C293.315 158.538 293.315 158.459 293.395 158.379L320.414 132.472C320.494 132.393 320.573 132.393 320.653 132.472C320.732 132.472 320.732 132.552 320.732 132.631L320.811 158.3C320.811 158.379 320.732 158.459 320.653 158.459L293.474 158.697ZM320.414 133.029L293.951 158.3L320.494 158.061L320.414 133.029Z" fill="#00BCC8"/>
<path d="M364.907 110.945L320.722 132.322L320.643 14.312L365.145 72.6417V72.006L320.643 13.5968C320.563 13.5173 320.484 13.5173 320.405 13.5173C320.325 13.5173 320.246 13.5968 320.246 13.6763L320.405 132.561C320.405 132.64 320.405 132.72 320.484 132.72H320.563H320.643L364.907 111.263V110.945Z" fill="#00BCC8"/>
<path d="M320.647 158.458H320.568C320.488 158.458 320.488 158.378 320.488 158.299L320.409 132.631C320.409 132.551 320.409 132.551 320.488 132.472C320.568 132.472 320.568 132.392 320.647 132.392L356.408 136.445C356.487 136.445 356.567 136.525 356.567 136.604C356.567 136.684 356.567 136.763 356.487 136.843L320.806 158.458C320.727 158.458 320.727 158.458 320.647 158.458ZM320.727 132.79L320.806 157.981L355.693 136.843L320.727 132.79Z" fill="#00BCC8"/>
<path d="M364.826 126.279L356.243 136.45L321.198 132.477L364.905 111.339V110.941L320.482 132.477C320.403 132.477 320.403 132.557 320.403 132.715C320.403 132.795 320.482 132.874 320.562 132.874L356.322 136.927C356.402 136.927 356.402 136.927 356.481 136.848L364.826 126.914V126.279Z" fill="#00BCC8"/>
<path d="M364.753 140.655L356.648 136.602L364.833 126.827V126.271L356.171 136.522C356.171 136.602 356.091 136.602 356.091 136.681C356.091 136.761 356.171 136.761 356.171 136.84L364.674 141.052L364.753 140.655Z" fill="#00BCC8"/>
<path d="M364.742 142.96L357.908 137.635L364.742 141.053V140.655L356.398 136.523C356.318 136.443 356.239 136.523 356.159 136.602C356.08 136.682 356.159 136.761 356.239 136.841L364.742 143.437V142.96Z" fill="#00BCC8"/>
<path d="M118.153 335.026L159.556 347.105H160.907L118.709 334.787L193.648 296.245L175.529 347.184H175.926L194.125 295.927C194.125 295.848 194.125 295.768 194.045 295.689C193.966 295.61 193.886 295.61 193.807 295.689L118.074 334.708C117.994 334.708 117.994 334.787 117.994 334.867C117.994 334.946 118.074 335.026 118.153 335.026Z" fill="#00BCC8"/>
<path d="M175.844 347.273L193.963 296.175L243.074 320.015L182.599 347.273H183.473L243.631 320.174C243.71 320.174 243.71 320.095 243.71 320.015C243.71 319.936 243.631 319.856 243.631 319.856L193.963 295.777C193.883 295.777 193.883 295.777 193.804 295.777C193.724 295.777 193.724 295.857 193.724 295.857L175.447 347.273H175.844Z" fill="#00BCC8"/>
<path d="M197.148 237.293H197.069L175.294 220.923C175.215 220.843 175.215 220.764 175.215 220.684C175.294 220.605 175.374 220.605 175.453 220.605L209.942 233.161C210.022 233.161 210.101 233.24 210.101 233.32C210.101 233.399 210.022 233.479 209.942 233.479L197.148 237.293C197.228 237.293 197.148 237.293 197.148 237.293ZM176.486 221.4L197.148 236.975L209.307 233.32L176.486 221.4Z" fill="#00BCC8"/>
<path d="M209.951 233.479C209.951 233.479 209.872 233.479 209.951 233.479L175.383 220.923C175.303 220.923 175.224 220.843 175.224 220.764C175.224 220.684 175.303 220.605 175.383 220.605L220.838 205.903C220.918 205.903 220.997 205.903 220.997 205.983C221.077 206.062 221.077 206.142 220.997 206.142L210.11 233.399C210.11 233.479 210.031 233.479 209.951 233.479ZM176.018 220.764L209.872 233.081L220.6 206.301L176.018 220.764Z" fill="#00BCC8"/>
<path d="M193.886 296.104C193.727 296.104 193.727 296.025 193.727 295.946L196.985 237.219C196.985 237.139 197.065 237.06 197.144 237.06L209.939 233.245C210.018 233.245 210.098 233.245 210.098 233.325C210.177 233.404 210.177 233.404 210.177 233.484L194.124 296.025C194.045 296.025 193.965 296.104 193.886 296.104ZM197.303 237.298L194.204 294.038L209.7 233.642L197.303 237.298Z" fill="#00BCC8"/>
<path d="M299.649 237.852L209.929 233.481C209.85 233.481 209.85 233.481 209.771 233.401C209.771 233.322 209.771 233.322 209.771 233.242L220.737 205.905C220.737 205.826 220.817 205.826 220.817 205.826C220.896 205.826 220.896 205.826 220.976 205.826L299.808 237.454C299.887 237.454 299.967 237.613 299.888 237.693C299.808 237.772 299.729 237.852 299.649 237.852ZM210.168 233.163L298.537 237.454L220.896 206.303L210.168 233.163Z" fill="#00BCC8"/>
<path d="M220.829 206.218C220.67 206.218 220.67 206.138 220.67 206.059L211.452 134.855C211.452 134.776 211.452 134.697 211.531 134.697C211.611 134.697 211.69 134.697 211.77 134.697L260.881 173C260.96 173 260.96 173.08 260.96 173.159C260.96 173.239 260.96 173.239 260.881 173.318L220.988 206.218C220.908 206.218 220.908 206.218 220.829 206.218ZM211.928 135.253L221.067 205.662L260.563 173.159L211.928 135.253Z" fill="#00BCC8"/>
<path d="M260.714 173.326C260.634 173.326 260.634 173.326 260.634 173.326L211.523 135.022C211.443 134.943 211.443 134.943 211.443 134.863C211.443 134.784 211.523 134.704 211.523 134.704L254.277 115.552C254.356 115.552 254.356 115.552 254.436 115.552C254.515 115.552 254.515 115.632 254.515 115.711L260.873 173.246C260.873 173.326 260.873 173.405 260.793 173.405C260.793 173.326 260.793 173.326 260.714 173.326ZM212 134.863L260.475 172.69L254.197 115.87L212 134.863Z" fill="#00BCC8"/>
<path d="M254.438 115.771C254.438 115.771 254.359 115.771 254.438 115.771C254.359 115.771 254.279 115.691 254.279 115.612L233.856 30.8985C233.856 30.8191 233.856 30.8191 233.856 30.7396C233.856 30.6601 233.935 30.6601 234.015 30.6601L320.397 13.5745C320.476 13.5745 320.556 13.5745 320.556 13.6539C320.635 13.7334 320.635 13.8129 320.556 13.8923L254.597 115.691C254.518 115.771 254.518 115.771 254.438 115.771ZM234.253 30.978L254.518 115.135L320.079 13.9718L234.253 30.978Z" fill="#00BCC8"/>
<path d="M260.719 173.32H260.639C260.56 173.32 260.56 173.241 260.56 173.161L254.202 115.626C254.202 115.547 254.202 115.467 254.282 115.467C254.361 115.467 254.441 115.467 254.52 115.547L293.539 158.46C293.618 158.539 293.618 158.539 293.618 158.619C293.618 158.698 293.539 158.698 293.539 158.777L260.719 173.32C260.798 173.32 260.798 173.32 260.719 173.32ZM254.679 116.183L260.877 172.843L293.062 158.46L254.679 116.183Z" fill="#00BCC8"/>
<path d="M293.463 158.695C293.384 158.695 293.384 158.695 293.304 158.615L254.285 115.702C254.206 115.623 254.206 115.543 254.285 115.464C254.365 115.385 254.444 115.385 254.524 115.385L320.641 132.391C320.721 132.391 320.721 132.47 320.8 132.55C320.8 132.629 320.8 132.709 320.721 132.709L293.622 158.615C293.542 158.695 293.463 158.695 293.463 158.695ZM255 115.941L293.463 158.218L320.164 132.629L255 115.941Z" fill="#00BCC8"/>
<path d="M320.572 132.788L254.375 115.782C254.295 115.782 254.295 115.703 254.216 115.703C254.216 115.623 254.216 115.623 254.216 115.544L320.254 13.6654C320.333 13.5859 320.413 13.5859 320.492 13.5859C320.572 13.5859 320.651 13.6654 320.651 13.7449L320.81 132.629C320.81 132.709 320.81 132.709 320.731 132.788C320.651 132.788 320.572 132.788 320.572 132.788ZM254.772 115.464L320.413 132.312L320.254 14.3012L254.772 115.464Z" fill="#00BCC8"/>
<path d="M193.902 296.103C193.823 296.103 193.823 296.103 193.744 296.023C193.664 295.944 193.664 295.944 193.664 295.864L209.717 233.323C209.717 233.243 209.796 233.243 209.796 233.164C209.876 233.164 209.955 233.164 209.955 233.164L277.9 280.13C277.98 280.209 277.98 280.209 277.98 280.288C277.98 280.368 277.9 280.447 277.821 280.447L193.902 296.103C193.982 296.103 193.902 296.103 193.902 296.103ZM210.035 233.641L194.141 295.705L277.344 280.209L210.035 233.641Z" fill="#00BCC8"/>
<path d="M243.558 320.169H243.478L193.81 296.09C193.731 296.09 193.731 296.01 193.731 295.931C193.731 295.851 193.81 295.772 193.89 295.772L277.808 280.117C277.888 280.117 277.967 280.117 277.967 280.196C277.967 280.276 277.967 280.355 277.967 280.435L243.637 320.169C243.716 320.169 243.637 320.169 243.558 320.169ZM194.526 296.01L243.558 319.771L277.411 280.514L194.526 296.01Z" fill="#00BCC8"/>
<path d="M277.89 280.444H277.811L209.866 233.478C209.786 233.399 209.786 233.319 209.786 233.24C209.786 233.16 209.866 233.081 209.945 233.081L299.665 237.452C299.744 237.452 299.824 237.452 299.824 237.531C299.824 237.61 299.824 237.69 299.824 237.69L278.049 280.285C277.97 280.364 277.97 280.444 277.89 280.444ZM210.581 233.558L277.811 279.967L299.347 237.849L210.581 233.558Z" fill="#00BCC8"/>
<path d="M266.835 328.452C266.835 328.452 266.756 328.452 266.835 328.452L243.551 320.188C243.472 320.188 243.472 320.108 243.472 320.029C243.472 319.949 243.472 319.87 243.472 319.87L277.802 280.136C277.881 280.056 277.961 280.056 278.04 280.056C278.12 280.056 278.12 280.215 278.12 280.295L267.074 328.293C267.074 328.373 266.994 328.373 266.994 328.452C266.915 328.452 266.835 328.452 266.835 328.452ZM243.869 319.949L266.676 328.055L277.484 281.01L243.869 319.949Z" fill="#00BCC8"/>
<path d="M266.838 328.437C266.759 328.437 266.759 328.437 266.68 328.358C266.68 328.278 266.6 328.278 266.6 328.199L277.646 280.2C277.646 280.12 277.726 280.12 277.805 280.041C277.885 280.041 277.964 280.041 277.964 280.12L322.625 323.272C322.705 323.351 322.705 323.431 322.705 323.431C322.705 323.51 322.625 323.51 322.546 323.59L266.838 328.437ZM277.964 280.597L267.077 328.04L322.148 323.192L277.964 280.597Z" fill="#00BCC8"/>
<path d="M277.887 280.443C277.808 280.443 277.808 280.443 277.728 280.364C277.649 280.284 277.649 280.205 277.728 280.125L299.502 237.53C299.502 237.451 299.582 237.451 299.661 237.451C299.741 237.451 299.741 237.451 299.82 237.451L324.217 256.205C324.296 256.205 324.296 256.285 324.296 256.364C324.296 256.444 324.217 256.523 324.217 256.523L277.966 280.284C277.887 280.443 277.887 280.443 277.887 280.443ZM299.741 237.927L278.284 279.807L323.74 256.444L299.741 237.927Z" fill="#00BCC8"/>
<path d="M322.544 323.521C322.464 323.521 322.464 323.521 322.385 323.441L277.724 280.369C277.644 280.29 277.644 280.29 277.644 280.21C277.644 280.131 277.724 280.131 277.803 280.051L341.695 260.979C341.775 260.979 341.854 260.979 341.854 261.058C341.934 261.138 341.934 261.217 341.934 261.217L322.703 323.441C322.703 323.521 322.623 323.521 322.544 323.521ZM278.2 280.369L322.385 323.044L341.378 261.456L278.2 280.369Z" fill="#00BCC8"/>
<path d="M277.886 280.451C277.807 280.451 277.727 280.371 277.727 280.371C277.727 280.292 277.727 280.213 277.807 280.133L324.057 256.372C324.137 256.372 324.137 256.372 324.216 256.372L341.858 261.061C341.937 261.061 342.017 261.14 342.017 261.22C342.017 261.299 341.937 261.379 341.858 261.379L277.886 280.451ZM324.137 256.69L279.714 279.497L340.984 261.14L324.137 256.69Z" fill="#00BCC8"/>
<path d="M2.05299 304.211C1.97352 304.211 1.89404 304.131 1.89404 304.052C1.89404 303.972 1.89405 303.893 1.97352 303.813L54.8199 272.821C54.8994 272.821 54.8994 272.821 54.9788 272.821C55.0583 272.821 55.0583 272.9 55.0583 272.9L66.0249 292.37C66.0249 292.449 66.0249 292.449 66.0249 292.529C66.0249 292.608 65.9455 292.608 65.866 292.608L2.05299 304.211C2.13246 304.211 2.13246 304.211 2.05299 304.211ZM54.8994 273.298L3.08607 303.654L65.6276 292.37L54.8994 273.298Z" fill="#00BCC8"/>
<path d="M65.9473 292.669C65.8679 292.669 65.8679 292.669 65.9473 292.669C65.8679 292.669 65.7884 292.589 65.7884 292.589L54.8218 273.12C54.8218 273.04 54.8218 273.04 54.8218 272.961C54.8218 272.881 54.9012 272.881 54.9807 272.881L87.6422 266.365C87.7216 266.365 87.8011 266.365 87.8011 266.444C87.8806 266.524 87.8011 266.603 87.8011 266.683L66.1063 292.669C66.0268 292.589 65.9473 292.669 65.9473 292.669ZM55.2986 273.12L65.9473 292.112L87.1654 266.762L55.2986 273.12Z" fill="#00BCC8"/>
<path d="M158.291 161.565C158.132 161.565 158.053 161.406 158.132 161.327L168.384 121.831C168.384 121.752 168.543 121.672 168.622 121.672C168.702 121.672 168.781 121.831 168.781 121.911L158.53 161.406C158.45 161.486 158.371 161.565 158.291 161.565Z" fill="#00BCC8"/>
<path d="M158.281 161.559C158.202 161.559 158.202 161.559 158.202 161.479C158.122 161.4 158.122 161.321 158.122 161.321L168.373 121.825C168.373 121.745 168.453 121.745 168.453 121.745C168.532 121.745 168.532 121.745 168.612 121.745L211.684 134.699C211.763 134.699 211.843 134.778 211.843 134.858C211.843 134.937 211.843 135.017 211.763 135.017L158.44 161.559C158.36 161.559 158.36 161.559 158.281 161.559ZM168.691 122.063L158.599 161.003L211.127 134.858L168.691 122.063Z" fill="#00BCC8"/>
<path d="M173.465 211.707C173.385 211.707 173.306 211.628 173.306 211.548L158.127 161.404C158.127 161.324 158.127 161.245 158.207 161.166C158.286 161.086 158.366 161.086 158.445 161.166L220.987 205.827C221.066 205.906 221.066 205.986 221.066 205.986C221.066 206.065 220.987 206.145 220.907 206.145L173.465 211.707C173.544 211.707 173.465 211.707 173.465 211.707ZM158.604 161.801L173.624 211.31L220.351 205.906L158.604 161.801Z" fill="#00BCC8"/>
<path d="M220.829 206.213H220.749L158.208 161.551C158.128 161.551 158.128 161.472 158.128 161.392C158.128 161.313 158.208 161.234 158.208 161.234L211.531 134.691C211.611 134.691 211.611 134.691 211.69 134.691C211.769 134.691 211.769 134.771 211.769 134.85L220.988 206.054C220.988 206.133 220.988 206.213 220.908 206.213C220.908 206.213 220.908 206.213 220.829 206.213ZM158.685 161.392L220.67 205.656L211.531 135.089L158.685 161.392Z" fill="#00BCC8"/>
<path d="M140.962 246.833C140.883 246.833 140.883 246.833 140.803 246.754C140.724 246.674 140.724 246.595 140.803 246.515L173.385 211.391C173.465 211.311 173.465 211.311 173.544 211.311C173.624 211.311 173.624 211.391 173.703 211.47L175.61 220.688C175.61 220.768 175.61 220.847 175.531 220.847L141.042 246.833H140.962ZM173.385 211.947L142.472 245.323L175.213 220.688L173.385 211.947Z" fill="#00BCC8"/>
<path d="M140.966 246.822C140.887 246.822 140.807 246.742 140.807 246.742C140.807 246.663 140.807 246.583 140.887 246.504L175.376 220.597C175.455 220.518 175.535 220.518 175.614 220.597L197.389 236.968C197.468 237.047 197.468 237.127 197.468 237.127C197.468 237.127 197.389 237.286 197.309 237.286L140.966 246.822ZM175.376 220.995L141.602 246.345L196.594 237.047L175.376 220.995Z" fill="#00BCC8"/>
<path d="M193.887 296.101C193.807 296.101 193.807 296.101 193.728 296.021L140.723 246.751C140.643 246.671 140.643 246.592 140.643 246.592C140.643 246.512 140.723 246.512 140.802 246.433L196.986 236.897C197.066 236.897 197.066 236.897 197.145 236.976C197.224 236.976 197.224 237.056 197.224 237.135L193.966 295.862C194.125 296.021 194.046 296.021 193.887 296.101C193.966 296.101 193.966 296.101 193.887 296.101ZM141.358 246.751L193.728 295.465L196.907 237.294L141.358 246.751Z" fill="#00BCC8"/>
<path d="M364.502 196.685L299.973 237.293L320.794 158.62L364.581 177.136V176.739L320.715 158.222C320.635 158.222 320.635 158.222 320.556 158.222C320.476 158.222 320.476 158.302 320.476 158.381L299.497 237.77C299.497 237.85 299.497 237.929 299.576 237.929H299.655H299.735L364.422 197.162L364.502 196.685Z" fill="#00BCC8"/>
<path d="M364.264 230.533L300.372 237.367L364.423 197.077V196.6L299.497 237.447C299.418 237.526 299.418 237.606 299.418 237.685C299.418 237.765 299.497 237.844 299.577 237.844L364.185 230.93L364.264 230.533Z" fill="#00BCC8"/>
<path d="M364.598 176.657L321.764 158.538L364.677 161.081V160.684L320.731 158.062C320.652 158.062 320.572 158.141 320.572 158.22C320.572 158.3 320.572 158.379 320.652 158.459L364.598 177.054V176.657Z" fill="#00BCC8"/>
<path d="M65.9436 292.68C65.8642 292.68 65.8642 292.68 65.7847 292.6C65.7052 292.521 65.7052 292.441 65.7847 292.362L87.4795 266.376C87.4795 266.296 87.559 266.296 87.6385 266.296L130.551 266.137C130.631 266.137 130.71 266.217 130.71 266.296C130.71 266.376 130.71 266.455 130.631 266.535L65.9436 292.68ZM87.7179 266.694L66.4999 292.044L129.518 266.614L87.7179 266.694Z" fill="#00BCC8"/>
<path d="M118.154 335.047C118.075 335.047 118.075 335.047 118.075 334.967L65.7846 292.531C65.7051 292.452 65.7051 292.452 65.7051 292.372C65.7051 292.293 65.7846 292.214 65.7846 292.214L130.392 266.148C130.472 266.148 130.551 266.148 130.551 266.148C130.631 266.227 130.631 266.227 130.631 266.307L118.234 334.809C118.313 334.967 118.313 335.047 118.154 335.047C118.234 335.047 118.234 335.047 118.154 335.047ZM66.2614 292.531L118.075 334.57L130.313 266.704L66.2614 292.531Z" fill="#00BCC8"/>
<path d="M87.6418 266.699C87.5624 266.699 87.4829 266.62 87.4829 266.54C87.4829 266.461 87.4829 266.381 87.5624 266.302L140.886 246.435C140.965 246.435 141.045 246.435 141.124 246.514C141.203 246.594 141.203 246.673 141.124 246.752L130.714 266.461C130.714 266.54 130.634 266.54 130.555 266.54L87.6418 266.699ZM140.568 246.991L88.6749 266.302L130.475 266.143L140.568 246.991Z" fill="#00BCC8"/>
<path d="M118.158 335.039H118.078C117.999 334.959 117.999 334.959 117.999 334.88L130.396 266.378C130.396 266.299 130.476 266.299 130.476 266.219C130.555 266.219 130.555 266.219 130.634 266.219L193.971 295.781C194.05 295.781 194.05 295.861 194.05 295.94C194.05 296.02 194.05 296.099 193.971 296.099L118.237 335.118C118.237 335.039 118.237 335.039 118.158 335.039ZM130.714 266.617L118.476 334.482L193.573 295.861L130.714 266.617Z" fill="#00BCC8"/>
<path d="M193.884 296.101L130.468 266.539C130.389 266.539 130.389 266.459 130.389 266.459C130.389 266.38 130.389 266.38 130.389 266.301L140.799 246.592C140.799 246.513 140.878 246.513 140.958 246.513C141.037 246.513 141.037 246.513 141.117 246.592L194.122 295.863C194.202 295.942 194.202 296.022 194.122 296.101C194.043 296.101 193.963 296.101 193.884 296.101ZM130.786 266.301L192.93 295.227L141.037 246.91L130.786 266.301Z" fill="#00BCC8"/>
<path d="M364.103 269.315L342.169 261.13L364.182 248.495V248.097L341.613 261.05C341.534 261.05 341.534 261.13 341.534 261.209C341.534 261.289 341.613 261.368 341.693 261.368L364.103 269.713V269.315Z" fill="#00BCC8"/>
<path d="M168.539 121.981C168.46 121.981 168.46 121.981 168.38 121.901C168.301 121.822 168.38 121.663 168.46 121.663L211.531 92.8955C211.611 92.816 211.77 92.8955 211.77 92.9749C211.849 93.0544 211.77 93.2133 211.69 93.2133L168.619 121.981C168.619 121.981 168.618 121.981 168.539 121.981Z" fill="#00BCC8"/>
<path d="M211.692 135.015C211.612 135.015 211.612 135.015 211.692 135.015L168.54 122.062C168.461 122.062 168.381 121.982 168.381 121.903C168.381 121.823 168.381 121.744 168.461 121.744L211.533 92.9765C211.612 92.9765 211.692 92.897 211.692 92.9765C211.771 92.9765 211.771 93.056 211.771 93.1354V134.936C211.771 135.015 211.771 135.015 211.692 135.095C211.771 135.015 211.692 135.015 211.692 135.015ZM169.017 121.744L211.533 134.538V93.3738L169.017 121.744Z" fill="#00BCC8"/>
<path d="M211.694 135.018H211.615C211.535 135.018 211.535 134.938 211.535 134.859V93.0586C211.535 92.9791 211.535 92.8997 211.615 92.8997C211.694 92.8997 211.774 92.8997 211.774 92.8997L254.607 115.469C254.686 115.469 254.686 115.548 254.686 115.628C254.686 115.707 254.607 115.787 254.607 115.787L211.694 135.018ZM211.774 93.3765V134.541L253.971 115.628L211.774 93.3765Z" fill="#00BCC8"/>
<path d="M254.445 115.786H254.365L211.532 93.2174C211.452 93.1379 211.373 93.0585 211.452 92.979L233.862 30.7554C233.862 30.6759 233.942 30.5964 234.021 30.5964C234.101 30.5964 234.18 30.6759 234.18 30.7554L254.604 115.548C254.604 115.627 254.604 115.707 254.524 115.707C254.524 115.786 254.445 115.786 254.445 115.786ZM211.85 92.979L254.127 115.31L233.942 31.4706L211.85 92.979Z" fill="#00BCC8"/>
<path d="M363.945 295.143L322.86 322.877L341.773 261.528L363.945 290.057V289.421L341.853 260.971C341.773 260.892 341.773 260.892 341.694 260.892C341.615 260.892 341.535 260.971 341.535 261.051L322.304 323.274C322.304 323.354 322.304 323.433 322.383 323.513H322.463H322.542L363.866 295.619L363.945 295.143Z" fill="#00BCC8"/>
<path d="M363.786 333.445L323.019 323.273L364.025 295.618V295.141L322.383 323.193C322.304 323.273 322.304 323.273 322.304 323.352C322.304 323.432 322.383 323.511 322.463 323.511L363.786 333.763V333.445Z" fill="#00BCC8"/>
<path d="M364.024 289.506L342.329 261.533L364.183 269.639V269.241L341.852 260.897C341.773 260.897 341.693 260.897 341.614 260.977C341.534 261.056 341.534 261.136 341.614 261.215L364.024 290.062V289.506Z" fill="#00BCC8"/>
<path d="M332.72 0.786133C331.607 0.786133 330.733 1.66028 330.733 2.69337C330.733 3.80592 331.607 4.68007 332.64 4.68007C333.753 4.68007 334.627 3.80593 334.627 2.77284C334.706 1.66028 333.832 0.786133 332.72 0.786133Z" fill="#00BCC8"/>
<path d="M332.727 0.794682C333.84 0.794682 334.635 1.66883 334.635 2.78139C334.635 3.89394 333.76 4.68862 332.648 4.68862C331.535 4.68862 330.741 3.81447 330.741 2.70192C330.82 1.58936 331.694 0.794682 332.727 0.794682ZM332.727 0C331.217 0 330.025 1.19202 330.025 2.70192C330.025 4.21181 331.217 5.40384 332.727 5.40384C334.237 5.40384 335.429 4.21181 335.429 2.70192C335.429 1.27149 334.237 0 332.727 0Z" fill="#00BCC8"/>
<path d="M27.4865 318.275C26.8507 318.275 26.2944 318.832 26.2944 319.467C26.2944 320.103 26.8507 320.659 27.4865 320.659C28.1222 320.659 28.6785 320.103 28.6785 319.467C28.7579 318.832 28.2017 318.275 27.4865 318.275Z" fill="#00BCC8"/>
<path d="M27.4805 318.261C28.1162 318.261 28.6725 318.817 28.6725 319.453C28.6725 320.089 28.1162 320.645 27.4805 320.645C26.8447 320.645 26.2885 320.089 26.2885 319.453C26.2885 318.738 26.8447 318.261 27.4805 318.261ZM27.5599 317.466C26.5269 317.466 25.5732 318.34 25.5732 319.374C25.5732 320.407 26.4474 321.36 27.4805 321.36C28.593 321.36 29.4672 320.486 29.4672 319.453C29.4672 318.42 28.593 317.466 27.5599 317.466Z" fill="#00BCC8"/>
<path d="M49.9818 332.171C49.0282 332.171 48.313 332.887 48.313 333.84C48.313 334.794 49.0282 335.509 49.9818 335.509C50.9354 335.509 51.6507 334.794 51.6507 333.84C51.6507 332.887 50.9354 332.171 49.9818 332.171Z" fill="#00BCC8"/>
<path d="M49.976 332.171C50.9296 332.171 51.6448 332.886 51.6448 333.84C51.6448 334.794 50.9296 335.509 49.976 335.509C49.0223 335.509 48.3071 334.794 48.3071 333.84C48.3866 332.886 49.1018 332.092 49.976 332.171ZM50.0554 331.376C48.7045 331.376 47.6714 332.41 47.6714 333.761C47.6714 335.111 48.7045 336.145 50.0554 336.145C51.4064 336.145 52.4395 335.111 52.4395 333.761C52.4395 332.489 51.3269 331.376 50.0554 331.376Z" fill="#00BCC8"/>
<path d="M356.336 135.247C355.542 135.247 354.906 135.883 354.906 136.678C354.906 137.472 355.542 138.108 356.336 138.108C357.131 138.108 357.767 137.472 357.767 136.678C357.767 135.883 357.131 135.247 356.336 135.247Z" fill="#00BCC8"/>
<path d="M356.334 135.256C357.128 135.256 357.764 135.891 357.764 136.686C357.764 137.481 357.128 138.116 356.334 138.116C355.539 138.116 354.903 137.481 354.903 136.686C354.903 135.891 355.539 135.176 356.334 135.256ZM356.334 134.461C355.142 134.461 354.108 135.415 354.108 136.607C354.108 137.799 355.062 138.832 356.254 138.832C357.446 138.832 358.479 137.878 358.479 136.686C358.559 135.494 357.605 134.461 356.334 134.461Z" fill="#00BCC8"/>
<path d="M260.732 175.624C262.093 175.624 263.196 174.521 263.196 173.16C263.196 171.8 262.093 170.697 260.732 170.697C259.372 170.697 258.269 171.8 258.269 173.16C258.269 174.521 259.372 175.624 260.732 175.624Z" fill="#00BCC8"/>
<path d="M260.805 170.699C262.156 170.699 263.269 171.812 263.269 173.163C263.269 174.514 262.156 175.626 260.805 175.626C259.454 175.626 258.342 174.514 258.342 173.163C258.262 171.732 259.375 170.699 260.805 170.699ZM260.805 169.905C259.057 169.905 257.547 171.335 257.547 173.083C257.547 174.832 258.977 176.341 260.726 176.341C262.474 176.341 263.984 174.911 263.984 173.163C263.984 171.414 262.553 169.905 260.805 169.905Z" fill="#00BCC8"/>
<path d="M294.491 158.533C294.491 157.977 294.015 157.5 293.458 157.5C292.902 157.5 292.425 157.977 292.425 158.533C292.425 159.09 292.902 159.566 293.458 159.566C294.015 159.566 294.491 159.09 294.491 158.533Z" fill="#00BCC8"/>
<path d="M293.465 157.428C294.021 157.428 294.498 157.905 294.498 158.461C294.498 159.017 294.021 159.494 293.465 159.494C292.909 159.494 292.432 159.017 292.432 158.461C292.432 157.905 292.829 157.428 293.465 157.428ZM293.465 156.713C292.432 156.713 291.637 157.508 291.637 158.541C291.637 159.574 292.432 160.368 293.465 160.368C294.498 160.368 295.293 159.574 295.293 158.541C295.293 157.508 294.419 156.713 293.465 156.713Z" fill="#00BCC8"/>
<path d="M320.564 135.004C321.915 135.004 323.027 133.891 323.027 132.62C323.027 131.269 321.915 130.156 320.643 130.156C319.292 130.156 318.18 131.269 318.18 132.54C318.1 133.891 319.213 135.004 320.564 135.004Z" fill="#00BCC8"/>
<path d="M320.569 130.166C321.92 130.166 323.032 131.278 322.953 132.629C322.953 133.98 321.84 135.093 320.489 135.013C319.138 135.013 318.026 133.901 318.105 132.55C318.105 131.199 319.218 130.166 320.569 130.166ZM320.569 129.371C318.821 129.371 317.39 130.802 317.39 132.55C317.39 134.298 318.821 135.729 320.569 135.729C322.317 135.729 323.748 134.298 323.748 132.55C323.748 130.881 322.317 129.451 320.569 129.371Z" fill="#00BCC8"/>
<path d="M321.912 13.7433C321.912 12.8691 321.277 12.2334 320.402 12.2334C319.528 12.2334 318.893 12.8691 318.893 13.7433C318.893 14.6174 319.528 15.2532 320.402 15.2532C321.277 15.2532 321.912 14.6174 321.912 13.7433Z" fill="#00BCC8"/>
<path d="M320.408 12.238C321.282 12.238 321.918 12.9533 321.918 13.7479C321.918 14.6221 321.203 15.2578 320.408 15.2578C319.534 15.2578 318.898 14.5426 318.898 13.7479C318.898 12.8738 319.613 12.238 320.408 12.238ZM320.408 11.4434C319.137 11.4434 318.104 12.4764 318.104 13.6685C318.104 14.94 319.137 15.9731 320.329 15.9731C321.6 15.9731 322.633 14.94 322.633 13.7479C322.713 12.4764 321.68 11.4434 320.408 11.4434Z" fill="#00BCC8"/>
<path d="M209.941 231.091C208.749 231.091 207.716 232.044 207.716 233.316C207.716 234.508 208.669 235.541 209.941 235.541C211.212 235.541 212.166 234.587 212.166 233.316C212.166 232.124 211.133 231.091 209.941 231.091Z" fill="#00BCC8"/>
<path d="M209.944 231.094C211.136 231.094 212.169 232.127 212.169 233.319C212.169 234.511 211.136 235.545 209.944 235.545C208.752 235.545 207.719 234.511 207.719 233.319C207.719 232.127 208.752 231.094 209.944 231.094ZM209.944 230.379C208.355 230.379 207.004 231.651 207.004 233.319C207.004 234.909 208.275 236.26 209.944 236.26C211.534 236.26 212.885 234.988 212.885 233.319C212.885 231.73 211.534 230.379 209.944 230.379Z" fill="#00BCC8"/>
<path d="M243.557 318.107C242.524 318.107 241.65 318.981 241.65 320.014C241.65 321.047 242.524 321.921 243.557 321.921C244.59 321.921 245.464 321.047 245.464 320.014C245.464 318.981 244.59 318.107 243.557 318.107Z" fill="#00BCC8"/>
<path d="M243.558 318.108C244.591 318.108 245.465 318.982 245.465 320.015C245.465 321.048 244.591 321.922 243.558 321.922C242.524 321.922 241.65 321.048 241.65 320.015C241.65 318.982 242.524 318.108 243.558 318.108ZM243.558 317.393C242.127 317.393 240.935 318.585 240.935 320.015C240.935 321.445 242.127 322.637 243.558 322.637C244.988 322.637 246.18 321.445 246.18 320.015C246.18 318.585 245.067 317.393 243.558 317.393Z" fill="#00BCC8"/>
<path d="M266.849 325.822C265.498 325.822 264.386 326.935 264.386 328.286C264.386 329.637 265.498 330.749 266.849 330.749C268.2 330.749 269.313 329.637 269.313 328.286C269.313 326.935 268.2 325.822 266.849 325.822Z" fill="#00BCC8"/>
<path d="M266.846 325.814C268.197 325.814 269.309 326.927 269.309 328.278C269.309 329.629 268.197 330.741 266.846 330.741C265.495 330.741 264.382 329.629 264.382 328.278C264.382 326.847 265.495 325.814 266.846 325.814ZM266.846 325.02C265.097 325.02 263.667 326.45 263.667 328.198C263.667 329.947 265.097 331.377 266.846 331.377C268.594 331.377 270.024 329.947 270.024 328.198C270.024 326.529 268.594 325.099 266.846 325.02Z" fill="#00BCC8"/>
<path d="M277.891 278.844C277.096 278.844 276.54 279.479 276.54 280.195C276.54 280.989 277.175 281.546 277.891 281.546C278.685 281.546 279.241 280.91 279.241 280.195C279.241 279.479 278.606 278.844 277.891 278.844Z" fill="#00BCC8"/>
<path d="M277.881 278.847C278.676 278.847 279.232 279.483 279.232 280.198C279.232 280.993 278.597 281.549 277.881 281.549C277.087 281.549 276.531 280.913 276.531 280.198C276.531 279.483 277.087 278.847 277.881 278.847ZM277.881 278.132C276.689 278.132 275.736 279.085 275.736 280.277C275.736 281.47 276.689 282.423 277.881 282.423C279.074 282.423 280.027 281.47 280.027 280.277C279.948 279.085 279.074 278.132 277.881 278.132Z" fill="#00BCC8"/>
<path d="M324.13 253.807C322.699 253.807 321.507 254.999 321.428 256.43C321.428 257.86 322.62 259.052 324.05 259.131C325.481 259.131 326.673 257.939 326.752 256.509C326.752 254.999 325.56 253.807 324.13 253.807Z" fill="#00BCC8"/>
<path d="M324.143 253.816C325.573 253.816 326.765 255.008 326.765 256.518C326.765 257.949 325.573 259.141 324.063 259.141C322.633 259.141 321.441 257.949 321.441 256.439C321.441 255.008 322.633 253.816 324.143 253.816ZM324.143 253.022C322.236 253.022 320.726 254.532 320.726 256.439C320.726 258.346 322.236 259.856 324.143 259.856C326.05 259.856 327.56 258.346 327.56 256.439C327.48 254.611 325.971 253.022 324.143 253.022Z" fill="#00BCC8"/>
<path d="M2.14624 302.85C1.5105 302.85 1.03369 303.326 1.03369 303.962C1.03369 304.598 1.5105 305.075 2.14624 305.075C2.78199 305.075 3.25881 304.598 3.25881 303.962C3.17934 303.406 2.70252 302.929 2.14624 302.85Z" fill="#00BCC8"/>
<path d="M2.13685 302.851C2.7726 302.851 3.24942 303.328 3.24942 303.964C3.24942 304.6 2.7726 305.077 2.13685 305.077C1.50111 305.077 1.0243 304.6 1.0243 303.964C1.0243 303.408 1.50111 302.851 2.13685 302.851ZM2.13685 302.136C1.10377 302.136 0.309082 302.931 0.309082 303.964C0.309082 304.997 1.10377 305.792 2.13685 305.792C3.16994 305.792 3.96463 304.997 3.96463 303.964C3.96463 303.01 3.09047 302.136 2.13685 302.136Z" fill="#00BCC8"/>
<path d="M54.9768 271.221C54.0232 271.221 53.2285 272.015 53.2285 272.969C53.2285 273.923 54.0232 274.717 54.9768 274.717C55.9304 274.717 56.7251 273.923 56.7251 272.969C56.7251 272.015 55.9304 271.221 54.9768 271.221Z" fill="#00BCC8"/>
<path d="M54.9854 271.224C55.939 271.224 56.7337 272.019 56.7337 272.973C56.7337 273.926 55.939 274.721 54.9854 274.721C54.0317 274.721 53.2371 273.926 53.2371 272.973C53.2371 272.019 54.0317 271.224 54.9854 271.224ZM54.9854 270.509C53.6344 270.509 52.4424 271.622 52.4424 272.973C52.4424 274.324 53.5549 275.516 54.9059 275.516C56.2569 275.516 57.4489 274.403 57.4489 273.052C57.5284 271.622 56.4158 270.509 54.9854 270.509Z" fill="#00BCC8"/>
<path d="M158.301 160.29C157.745 160.29 157.268 160.767 157.268 161.323C157.268 161.879 157.745 162.356 158.301 162.356C158.857 162.356 159.334 161.879 159.334 161.323C159.414 160.767 158.937 160.29 158.301 160.29Z" fill="#00BCC8"/>
<path d="M158.294 160.285C158.85 160.285 159.327 160.762 159.327 161.318C159.327 161.875 158.85 162.352 158.294 162.352C157.738 162.352 157.261 161.875 157.261 161.318C157.261 160.762 157.738 160.285 158.294 160.285ZM158.294 159.491C157.261 159.491 156.466 160.285 156.466 161.318C156.466 162.352 157.261 163.146 158.294 163.146C159.327 163.146 160.122 162.352 160.122 161.318C160.122 160.365 159.327 159.57 158.294 159.491Z" fill="#00BCC8"/>
<path d="M220.828 203.589C219.477 203.589 218.365 204.702 218.365 205.973C218.365 207.324 219.477 208.437 220.749 208.437C222.1 208.437 223.212 207.324 223.212 206.053C223.292 204.702 222.179 203.589 220.828 203.589Z" fill="#00BCC8"/>
<path d="M220.828 203.593C222.179 203.593 223.291 204.705 223.212 206.056C223.212 207.407 222.099 208.52 220.748 208.44C219.397 208.44 218.285 207.328 218.364 205.977C218.444 204.626 219.556 203.593 220.828 203.593ZM220.907 202.878C219.159 202.878 217.729 204.308 217.729 206.056C217.729 207.805 219.159 209.235 220.907 209.235C222.656 209.235 224.086 207.805 224.086 206.056C224.007 204.308 222.656 202.878 220.907 202.878Z" fill="#00BCC8"/>
<path d="M173.467 212.726C174.103 212.726 174.659 212.169 174.659 211.534C174.659 210.898 174.103 210.342 173.467 210.342C172.831 210.342 172.275 210.898 172.275 211.534C172.275 212.169 172.831 212.726 173.467 212.726Z" fill="#00BCC8"/>
<path d="M173.469 210.267C174.104 210.267 174.661 210.823 174.661 211.459C174.661 212.094 174.104 212.651 173.469 212.651C172.833 212.651 172.277 212.094 172.277 211.459C172.277 210.823 172.833 210.267 173.469 210.267ZM173.469 209.552C172.356 209.552 171.482 210.426 171.482 211.538C171.482 212.651 172.356 213.525 173.469 213.525C174.581 213.525 175.455 212.651 175.455 211.538C175.455 210.426 174.581 209.552 173.469 209.552Z" fill="#00BCC8"/>
<path d="M175.447 219.39C174.652 219.39 174.096 220.026 174.096 220.741C174.096 221.536 174.731 222.092 175.447 222.092C176.241 222.092 176.798 221.456 176.798 220.741C176.798 220.026 176.162 219.39 175.447 219.39Z" fill="#00BCC8"/>
<path d="M175.455 219.403C176.249 219.403 176.806 220.039 176.806 220.754C176.806 221.548 176.17 222.105 175.455 222.105C174.66 222.105 174.104 221.469 174.104 220.754C174.024 219.959 174.66 219.403 175.455 219.403ZM175.455 218.608C174.263 218.608 173.309 219.562 173.309 220.674C173.309 221.866 174.263 222.82 175.375 222.82C176.567 222.82 177.521 221.866 177.521 220.754C177.521 219.562 176.567 218.608 175.455 218.608Z" fill="#00BCC8"/>
<path d="M197.152 236.11C196.596 236.11 196.04 236.587 196.04 237.143C196.04 237.699 196.516 238.256 197.073 238.256C197.629 238.256 198.185 237.779 198.185 237.222C198.265 236.587 197.788 236.11 197.152 236.11Z" fill="#00BCC8"/>
<path d="M197.153 236.1C197.709 236.1 198.186 236.577 198.186 237.213C198.186 237.769 197.709 238.246 197.074 238.246C196.438 238.246 196.04 237.769 196.04 237.133C196.12 236.577 196.597 236.1 197.153 236.1ZM197.153 235.305C196.12 235.305 195.325 236.1 195.325 237.133C195.325 238.166 196.12 238.961 197.153 238.961C198.186 238.961 198.981 238.166 198.981 237.133C198.981 236.18 198.186 235.305 197.153 235.305Z" fill="#00BCC8"/>
<path d="M299.668 235.777C298.635 235.777 297.761 236.572 297.761 237.605C297.761 238.638 298.556 239.512 299.589 239.512C300.622 239.512 301.496 238.717 301.496 237.684C301.576 236.651 300.702 235.777 299.668 235.777Z" fill="#00BCC8"/>
<path d="M299.675 235.786C300.708 235.786 301.502 236.66 301.502 237.693C301.502 238.726 300.628 239.521 299.595 239.521C298.562 239.521 297.767 238.647 297.767 237.614C297.847 236.66 298.642 235.786 299.675 235.786ZM299.675 235.071C298.244 235.071 297.052 236.263 297.052 237.693C297.052 239.124 298.244 240.316 299.675 240.316C301.105 240.316 302.297 239.124 302.297 237.693C302.297 236.263 301.105 235.071 299.675 235.071Z" fill="#00BCC8"/>
<path d="M320.652 156.171C319.46 156.171 318.507 157.125 318.507 158.317C318.507 159.509 319.46 160.462 320.652 160.462C321.845 160.462 322.798 159.509 322.798 158.317C322.798 157.125 321.845 156.171 320.652 156.171Z" fill="#00BCC8"/>
<path d="M320.642 156.146C321.834 156.146 322.787 157.1 322.787 158.292C322.787 159.484 321.834 160.438 320.642 160.438C319.449 160.438 318.496 159.484 318.496 158.292C318.496 157.1 319.529 156.146 320.642 156.146ZM320.721 155.352C319.132 155.352 317.86 156.623 317.781 158.212C317.701 159.802 319.052 161.073 320.642 161.153C322.231 161.153 323.502 159.881 323.582 158.292C323.582 156.703 322.31 155.431 320.721 155.352Z" fill="#00BCC8"/>
<path d="M65.9472 290.139C64.6757 290.139 63.6426 291.172 63.6426 292.443C63.6426 293.715 64.6757 294.748 65.9472 294.748C67.2186 294.748 68.2517 293.715 68.2517 292.443C68.2517 291.172 67.2186 290.139 65.9472 290.139Z" fill="#00BCC8"/>
<path d="M65.9542 290.138C67.2257 290.138 68.2588 291.171 68.2588 292.442C68.2588 293.714 67.2257 294.747 65.9542 294.747C64.6827 294.747 63.6497 293.714 63.6497 292.442C63.5702 291.171 64.6827 290.138 65.9542 290.138ZM65.9542 289.422C64.2854 289.422 62.855 290.773 62.855 292.442C62.855 294.111 64.2059 295.541 65.8748 295.541C67.5436 295.541 68.974 294.19 68.974 292.522C68.974 290.773 67.6231 289.422 65.9542 289.422Z" fill="#00BCC8"/>
<path d="M89.0017 266.537C89.0017 265.821 88.4454 265.186 87.6508 265.186C86.9355 265.186 86.2998 265.742 86.2998 266.537C86.2998 267.252 86.8561 267.887 87.6508 267.887C88.366 267.887 89.0017 267.252 89.0017 266.537Z" fill="#00BCC8"/>
<path d="M87.6404 265.177C88.3556 265.177 88.9914 265.813 88.9914 266.528C88.9914 267.243 88.3556 267.879 87.6404 267.879C86.9252 267.879 86.2894 267.243 86.2894 266.528C86.2894 265.733 86.9252 265.177 87.6404 265.177ZM87.6404 264.462C86.5278 264.462 85.5742 265.415 85.5742 266.528C85.5742 267.64 86.5278 268.594 87.6404 268.594C88.753 268.594 89.7066 267.64 89.7066 266.528C89.7066 265.415 88.753 264.462 87.6404 264.462Z" fill="#00BCC8"/>
<path d="M118.157 332.807C116.965 332.807 116.011 333.761 116.011 334.873C116.011 336.065 116.965 337.019 118.077 337.019C119.269 337.019 120.223 336.065 120.223 334.953C120.303 333.761 119.349 332.807 118.157 332.807Z" fill="#00BCC8"/>
<path d="M118.158 332.81C119.35 332.81 120.224 333.764 120.224 334.956C120.224 336.148 119.271 337.022 118.079 337.022C116.887 337.022 116.013 336.069 116.013 334.876C116.092 333.684 117.046 332.81 118.158 332.81ZM118.158 332.016C116.569 332.016 115.297 333.287 115.297 334.876C115.297 336.466 116.569 337.737 118.158 337.737C119.748 337.737 121.019 336.466 121.019 334.876C121.019 333.367 119.748 332.016 118.158 332.016Z" fill="#00BCC8"/>
<path d="M130.563 264.153C129.37 264.153 128.337 265.106 128.337 266.378C128.337 267.57 129.291 268.603 130.563 268.603C131.755 268.603 132.788 267.649 132.788 266.378C132.788 265.186 131.755 264.153 130.563 264.153Z" fill="#00BCC8"/>
<path d="M130.561 264.157C131.753 264.157 132.786 265.19 132.786 266.382C132.786 267.574 131.753 268.607 130.561 268.607C129.369 268.607 128.336 267.574 128.336 266.382C128.336 265.19 129.369 264.157 130.561 264.157ZM130.561 263.441C128.972 263.441 127.621 264.713 127.621 266.382C127.621 267.971 128.892 269.322 130.561 269.322C132.15 269.322 133.501 268.051 133.501 266.382C133.501 264.792 132.15 263.441 130.561 263.441Z" fill="#00BCC8"/>
<path d="M193.902 293.954C192.869 293.954 191.995 294.828 191.995 295.861C191.995 296.894 192.869 297.769 193.902 297.769C194.935 297.769 195.809 296.894 195.809 295.861C195.809 294.828 195.014 293.954 193.902 293.954Z" fill="#00BCC8"/>
<path d="M193.896 293.956C194.929 293.956 195.803 294.83 195.803 295.863C195.803 296.896 194.929 297.77 193.896 297.77C192.863 297.77 191.989 296.896 191.989 295.863C191.989 294.83 192.863 293.956 193.896 293.956ZM193.896 293.241C192.466 293.241 191.194 294.433 191.194 295.863C191.194 297.294 192.386 298.565 193.817 298.565C195.247 298.565 196.519 297.373 196.519 295.943C196.598 294.433 195.406 293.241 193.896 293.241Z" fill="#00BCC8"/>
<path d="M140.964 245.235C140.169 245.235 139.533 245.87 139.533 246.665C139.533 247.46 140.169 248.095 140.964 248.095C141.758 248.095 142.394 247.46 142.394 246.665C142.394 245.87 141.758 245.235 140.964 245.235Z" fill="#00BCC8"/>
<path d="M140.972 245.24C141.767 245.24 142.403 245.876 142.403 246.671C142.403 247.465 141.767 248.101 140.972 248.101C140.178 248.101 139.542 247.465 139.542 246.671C139.542 245.876 140.178 245.24 140.972 245.24ZM140.972 244.525C139.78 244.525 138.827 245.479 138.827 246.671C138.827 247.863 139.78 248.816 140.972 248.816C142.164 248.816 143.118 247.863 143.118 246.671C143.118 245.479 142.164 244.525 140.972 244.525Z" fill="#00BCC8"/>
<path d="M168.553 120.155C167.599 120.155 166.884 120.87 166.884 121.823C166.884 122.777 167.599 123.492 168.553 123.492C169.506 123.492 170.221 122.777 170.221 121.823C170.221 120.949 169.506 120.155 168.553 120.155Z" fill="#00BCC8"/>
<path d="M168.553 120.156C169.507 120.156 170.222 120.951 170.222 121.825C170.222 122.779 169.428 123.494 168.553 123.494C167.679 123.494 166.885 122.699 166.885 121.825C166.885 120.872 167.679 120.156 168.553 120.156ZM168.553 119.441C167.202 119.441 166.09 120.554 166.09 121.825C166.09 123.176 167.202 124.289 168.474 124.289C169.825 124.289 170.937 123.176 170.937 121.905C171.017 120.474 169.904 119.441 168.553 119.441Z" fill="#00BCC8"/>
<path d="M211.699 133.577C210.984 133.577 210.428 134.133 210.428 134.848C210.428 135.564 210.984 136.12 211.699 136.12C212.414 136.12 212.971 135.564 212.971 134.848C212.891 134.133 212.335 133.577 211.699 133.577Z" fill="#00BCC8"/>
<path d="M211.69 133.577C212.405 133.577 212.961 134.134 212.961 134.849C212.961 135.564 212.405 136.12 211.69 136.12C210.975 136.12 210.418 135.564 210.418 134.849C210.418 134.134 210.975 133.577 211.69 133.577ZM211.69 132.783C210.577 132.783 209.703 133.657 209.703 134.769C209.703 135.882 210.577 136.756 211.69 136.756C212.802 136.756 213.677 135.882 213.677 134.769C213.677 133.736 212.802 132.783 211.69 132.783Z" fill="#00BCC8"/>
<path d="M216.148 23.2048C215.036 23.2048 214.162 24.079 214.162 25.1915C214.162 26.3041 215.036 27.1782 216.148 27.1782C217.261 27.1782 218.135 26.3041 218.135 25.1915C218.135 24.1585 217.261 23.2048 216.148 23.2048Z" fill="#00BCC8"/>
<path d="M216.144 23.2011C217.257 23.2011 218.131 24.0752 218.131 25.1878C218.131 26.3003 217.257 27.1745 216.144 27.1745C215.032 27.1745 214.158 26.3003 214.158 25.1878C214.158 24.0752 215.032 23.2011 216.144 23.2011ZM216.144 22.4858C214.634 22.4858 213.442 23.6779 213.363 25.1878C213.283 26.6977 214.555 27.8897 216.065 27.9692C217.575 27.9692 218.767 26.7771 218.846 25.2672C218.846 23.7573 217.654 22.4858 216.144 22.4858Z" fill="#00BCC8"/>
<path d="M211.615 95.7534C213.125 95.7534 214.317 94.5614 214.317 93.0515C214.317 91.5416 213.125 90.3496 211.615 90.3496C210.105 90.3496 208.913 91.5416 208.913 93.0515C208.913 94.482 210.105 95.7534 211.615 95.7534Z" fill="#00BCC8"/>
<path d="M211.613 90.3481C213.123 90.3481 214.315 91.5402 214.315 93.0501C214.315 94.56 213.123 95.752 211.613 95.752C210.104 95.752 208.911 94.56 208.911 93.0501C208.911 91.5402 210.183 90.3481 211.613 90.3481ZM211.613 89.5535C209.706 89.5535 208.196 91.0634 208.196 92.9706C208.196 94.8778 209.706 96.3877 211.613 96.3877C213.521 96.3877 215.031 94.8778 215.031 92.9706C215.11 91.1428 213.521 89.6329 211.613 89.5535Z" fill="#00BCC8"/>
<path d="M254.446 114.275C253.652 114.275 253.095 114.911 253.095 115.626C253.095 116.421 253.731 116.977 254.446 116.977C255.241 116.977 255.797 116.341 255.797 115.626C255.797 114.831 255.161 114.275 254.446 114.275Z" fill="#00BCC8"/>
<path d="M254.453 114.273C255.248 114.273 255.804 114.909 255.804 115.624C255.804 116.419 255.168 116.975 254.453 116.975C253.659 116.975 253.102 116.339 253.102 115.624C253.102 114.829 253.659 114.273 254.453 114.273ZM254.453 113.479C253.261 113.479 252.308 114.432 252.308 115.624C252.308 116.816 253.261 117.77 254.453 117.77C255.645 117.77 256.599 116.816 256.599 115.624C256.599 114.432 255.645 113.479 254.453 113.479Z" fill="#00BCC8"/>
<path d="M234.025 29.3213C233.15 29.3213 232.515 30.0365 232.515 30.8312C232.515 31.7053 233.23 32.3411 234.025 32.3411C234.899 32.3411 235.534 31.6259 235.534 30.8312C235.534 30.0365 234.899 29.3213 234.025 29.3213Z" fill="#00BCC8"/>
<path d="M234.021 29.3226C234.896 29.3226 235.531 30.0378 235.531 30.8325C235.531 31.7067 234.816 32.3424 234.021 32.3424C233.147 32.3424 232.511 31.6272 232.511 30.8325C232.511 30.0378 233.147 29.3226 234.021 29.3226ZM234.021 28.6074C232.75 28.6074 231.717 29.6405 231.717 30.8325C231.717 32.104 232.75 33.1371 233.942 33.1371C235.213 33.1371 236.246 32.104 236.246 30.912C236.326 29.6405 235.293 28.6074 234.021 28.6074Z" fill="#00BCC8"/>
<path d="M322.555 321.926C321.761 321.926 321.125 322.562 321.125 323.357C321.125 324.151 321.761 324.787 322.555 324.787C323.35 324.787 323.986 324.151 323.986 323.357C323.986 322.562 323.35 321.926 322.555 321.926Z" fill="#00BCC8"/>
<path d="M322.549 321.926C323.344 321.926 323.98 322.561 323.98 323.356C323.98 324.151 323.344 324.787 322.549 324.787C321.755 324.787 321.119 324.151 321.119 323.356C321.119 322.561 321.755 321.926 322.549 321.926ZM322.549 321.21C321.357 321.21 320.404 322.164 320.404 323.356C320.404 324.548 321.357 325.502 322.549 325.502C323.741 325.502 324.695 324.548 324.695 323.356C324.695 322.164 323.741 321.21 322.549 321.21Z" fill="#00BCC8"/>
<path d="M341.705 262.872C342.671 262.872 343.454 262.09 343.454 261.124C343.454 260.158 342.671 259.376 341.705 259.376C340.74 259.376 339.957 260.158 339.957 261.124C339.957 262.09 340.74 262.872 341.705 262.872Z" fill="#00BCC8"/>
<path d="M341.709 259.384C342.662 259.384 343.457 260.179 343.457 261.133C343.457 262.086 342.662 262.881 341.709 262.881C340.755 262.881 339.96 262.086 339.96 261.133C339.96 260.179 340.755 259.384 341.709 259.384ZM341.709 258.669C340.278 258.669 339.166 259.782 339.166 261.212C339.166 262.643 340.278 263.755 341.709 263.755C343.139 263.755 344.252 262.643 344.252 261.212C344.252 259.782 343.139 258.669 341.709 258.669Z" fill="#00BCC8"/>
</g>
</svg>
