<svg width="461" height="443" viewBox="0 0 461 443" fill="none" xmlns="http://www.w3.org/2000/svg">
<g opacity="0.5" filter="url(#filter0_d_86_5698)">
<path d="M0.297504 387.121L55.9253 417.915L41.025 431.325L0.297504 401.425V402.021L40.9257 431.921C41.025 432.021 41.1243 432.021 41.2237 431.921L56.6207 418.114C56.72 418.014 56.72 418.014 56.72 417.915C56.72 417.816 56.6207 417.816 56.6207 417.716L0.297504 386.624V387.121Z" fill="#00BCC8"/>
<path d="M0.496033 345.005L55.5278 417.123L0.297352 386.627V387.123L56.2231 418.017C56.3225 418.116 56.4219 418.017 56.5212 417.917C56.6205 417.818 56.6205 417.719 56.5212 417.619L0.496033 344.211V345.005Z" fill="#00BCC8"/>
<path d="M227.482 0.910995L152.583 34.685L145.232 0.51363H144.735L152.185 35.0824C152.185 35.1817 152.285 35.1817 152.285 35.281C152.384 35.281 152.384 35.281 152.483 35.281L228.574 1.01031L227.482 0.910995Z" fill="#00BCC8"/>
<path d="M2.19277 15.6948L51.3638 -0.000181198H49.8737L2.19277 15.1981V15.6948Z" fill="#00BCC8"/>
<path d="M0.198582 401.928L40.2307 431.431L-0.000102997 432.722V433.219L40.9261 431.828C41.0254 431.828 41.1248 431.729 41.1248 431.629C41.1248 431.53 41.1247 431.431 41.0254 431.331L0.0992088 401.233L0.198582 401.928Z" fill="#00BCC8"/>
<path d="M1.08787 234.141L55.325 237.32L11.5181 263.842L0.988556 255.697V256.293L11.3195 264.339C11.4188 264.438 11.5181 264.438 11.6175 264.339L56.219 237.32C56.3183 237.221 56.3184 237.121 56.3184 237.022C56.3184 236.923 56.219 236.823 56.1197 236.823L1.08787 233.545V234.141Z" fill="#00BCC8"/>
<path d="M403.517 1.7966L394.577 16.9949L392.789 1.69726H392.292L394.179 17.6903C394.179 17.7896 394.279 17.8889 394.378 17.8889C394.477 17.8889 394.577 17.8889 394.676 17.7896L404.113 1.69726L403.517 1.7966Z" fill="#00BCC8"/>
<path d="M2.19888 15.7014L51.3699 0.0064106H49.8798L2.19888 15.2047V15.7014Z" fill="#00BCC8"/>
<path d="M2.18564 18.1833L53.7407 30.9976C53.84 30.9976 54.0387 30.9975 54.0387 30.7989L61.7869 0.00491142H61.2902L53.542 30.5009L2.18564 17.6866V18.1833Z" fill="#00BCC8"/>
<path d="M1.68384 124.979L29.7957 108.787L51.0535 114.449L1.58447 133.423V133.919L51.8482 114.648C51.9475 114.648 52.0469 114.549 52.0469 114.449C52.0469 114.35 51.9475 114.251 51.8482 114.251L29.7957 108.39C29.7957 108.39 29.7958 108.39 29.6964 108.39H29.597L1.58447 124.482L1.68384 124.979Z" fill="#00BCC8"/>
<path d="M144.83 0.50552L152.181 34.6769L123.771 24.5447L136.089 0.406208H135.592L123.275 24.5447C123.275 24.644 123.275 24.644 123.275 24.7434C123.275 24.8427 123.374 24.8427 123.374 24.8427L152.479 35.1736C152.578 35.1736 152.678 35.1736 152.678 35.1736C152.777 35.0742 152.777 35.0742 152.777 34.9749L145.327 0.50552H144.83Z" fill="#00BCC8"/>
<path d="M135.508 0.418993L123.389 24.1601L108.29 0.22031H107.694L123.091 24.7562C123.091 24.8555 123.191 24.8555 123.29 24.8555C123.389 24.8555 123.489 24.7562 123.489 24.7562L135.906 0.418993H135.508Z" fill="#00BCC8"/>
<path d="M108.286 0.299898H107.69L122.689 24.1404L71.3328 0.101215H70.2401L123.186 24.9351C123.285 24.9351 123.385 24.9351 123.484 24.8357C123.583 24.7364 123.583 24.6371 123.484 24.5377L108.286 0.299898Z" fill="#00BCC8"/>
<path d="M123.49 24.4443L71.4379 0.107183H70.3452L122.496 24.5437L54.0543 30.5038L61.8024 0.00784111H61.3057L53.5576 30.7025C53.5576 30.8018 53.5576 30.9011 53.5576 30.9011C53.5576 31.0005 53.6569 31.0005 53.7562 31.0005L123.39 24.8417C123.49 24.8417 123.589 24.7424 123.589 24.643C123.688 24.643 123.589 24.5437 123.49 24.4443Z" fill="#00BCC8"/>
<path d="M392.265 1.69701L394.053 17.1933L369.815 1.49832H368.921L394.152 17.7893C394.251 17.7893 394.351 17.8887 394.45 17.7893C394.549 17.7893 394.549 17.69 394.549 17.5907L392.662 1.59766L392.265 1.69701Z" fill="#00BCC8"/>
<path d="M237.718 158.853H237.817C237.916 158.853 237.916 158.952 237.916 159.052L240.3 170.575C240.3 170.674 240.3 170.674 240.3 170.773C240.3 170.873 240.201 170.873 240.102 170.873L180.898 177.727C180.798 177.727 180.699 177.627 180.6 177.528C180.6 177.429 180.6 177.329 180.798 177.23L237.718 158.853C237.618 158.853 237.618 158.853 237.718 158.853ZM239.804 170.376L237.519 159.35L183.182 176.932L239.804 170.376Z" fill="#00BCC8"/>
<path d="M425.365 1.89354L422.285 35.2702L394.67 17.6879L404.008 1.7942H403.511L394.273 17.5885C394.173 17.6878 394.273 17.7872 394.372 17.8865L422.484 35.8662C422.583 35.8662 422.683 35.8662 422.683 35.8662C422.782 35.8662 422.782 35.7669 422.782 35.6676L425.861 1.89354H425.365Z" fill="#00BCC8"/>
<path d="M394.456 17.4954H394.556L422.668 35.4751C422.767 35.4751 422.767 35.5744 422.767 35.6737C422.767 35.7731 422.767 35.8724 422.668 35.8724L374.689 69.5471C374.589 69.6464 374.49 69.6464 374.391 69.5471C374.291 69.4477 374.291 69.3484 374.291 69.2491L394.158 17.5947C394.258 17.5947 394.258 17.5947 394.456 17.4954C394.357 17.4954 394.357 17.4954 394.456 17.4954ZM422.071 35.6737L394.456 18.0914L374.987 68.7524L422.071 35.6737Z" fill="#00BCC8"/>
<path d="M309.214 16.1926L394.443 17.5833C394.543 17.5833 394.543 17.5833 394.642 17.6826C394.642 17.782 394.741 17.7819 394.642 17.8813L374.775 69.5357C374.775 69.635 374.676 69.635 374.576 69.635C374.477 69.635 374.378 69.635 374.378 69.635L309.015 16.5899C308.916 16.4906 308.916 16.3913 308.916 16.2919C309.015 16.1926 309.114 16.1926 309.214 16.1926ZM394.046 17.9806L309.81 16.5899L374.378 68.9397L394.046 17.9806Z" fill="#00BCC8"/>
<path d="M369.925 1.60139H369.031L393.567 17.495L310.026 16.2037L336.747 1.50205H335.754L309.033 16.2037C308.933 16.303 308.933 16.4024 308.933 16.5017C308.933 16.601 309.033 16.7004 309.132 16.7004L394.362 18.0911C394.461 18.0911 394.561 17.9917 394.561 17.8924C394.561 17.793 394.561 17.6937 394.461 17.5944L369.925 1.60139Z" fill="#00BCC8"/>
<path d="M335.852 1.50107L309.926 15.8054L318.766 1.40176H318.27L309.131 16.3021C309.032 16.4014 309.131 16.5007 309.131 16.6001C309.23 16.6994 309.33 16.6994 309.429 16.6001L336.945 1.50107H335.852Z" fill="#00BCC8"/>
<path d="M318.168 1.41257L309.128 16.2135L257.474 1.11454H255.785L309.128 16.7102C309.228 16.7102 309.327 16.7102 309.426 16.6109L318.764 1.51188L318.168 1.41257Z" fill="#00BCC8"/>
<path d="M82.3505 137.696C82.3505 137.696 82.4499 137.696 82.3505 137.696L180.991 177.232C181.09 177.232 181.09 177.331 181.09 177.43C181.09 177.53 181.09 177.629 180.991 177.629L131.124 218.754C131.025 218.754 131.025 218.853 130.925 218.853C130.826 218.853 130.826 218.754 130.727 218.754L82.0525 138.093C81.9531 137.994 82.0525 137.895 82.0525 137.795C82.2511 137.696 82.2512 137.696 82.3505 137.696ZM180.395 177.53L82.8472 138.391L131.025 218.257L180.395 177.53Z" fill="#00BCC8"/>
<path d="M82.3578 137.691C82.4571 137.691 82.5564 137.691 82.5564 137.79L131.231 218.451C131.231 218.55 131.231 218.55 131.231 218.649C131.231 218.749 131.131 218.749 131.131 218.749L90.3046 237.026C90.2052 237.026 90.2052 237.026 90.1059 237.026C90.0066 237.026 90.0066 236.927 90.0066 236.828L82.2584 137.89C82.159 137.79 82.1591 137.691 82.3578 137.691ZM130.635 218.451L82.6557 138.883L90.3046 236.53L130.635 218.451Z" fill="#00BCC8"/>
<path d="M82.3493 137.688C82.4487 137.688 82.548 137.787 82.548 137.886L90.2961 236.824C90.2961 236.924 90.2961 236.924 90.1968 237.023C90.1968 237.023 90.0975 237.122 89.9981 237.122L55.9261 237.42C55.9261 237.42 55.8268 237.42 55.7274 237.321C55.7274 237.222 55.6281 237.222 55.7274 237.122L81.952 137.886C82.1506 137.787 82.25 137.688 82.3493 137.688ZM89.8988 236.626L82.25 139.277L56.4228 236.924L89.8988 236.626Z" fill="#00BCC8"/>
<path d="M1.59953 133.928L51.7639 114.756L81.7632 137.802L1.59953 146.444V146.941L82.4585 138.299C82.5579 138.299 82.6572 138.199 82.6572 138.1C82.6572 138.001 82.6572 137.901 82.5579 137.901L52.0619 114.458H51.9626H51.8633L1.79822 133.63L1.59953 133.928Z" fill="#00BCC8"/>
<path d="M90.0872 236.628C90.1866 236.628 90.2859 236.727 90.2859 236.727C90.2859 236.827 90.2859 236.926 90.1865 237.025L56.4125 269.409C56.3132 269.508 56.2139 269.508 56.1145 269.409C56.0152 269.409 56.0152 269.309 56.0152 269.21L55.9158 237.125C55.9158 237.025 56.0152 236.926 56.1145 236.926L90.0872 236.628ZM56.4125 268.713L89.4912 237.125L56.3132 237.423L56.4125 268.713Z" fill="#00BCC8"/>
<path d="M0.796082 296.318L56.0266 269.596L56.1259 417.109L0.498085 344.197V344.992L56.1259 418.003C56.2252 418.103 56.3245 418.103 56.4239 418.103C56.5232 418.103 56.6226 418.003 56.6226 417.904L56.4239 269.298C56.4239 269.199 56.4239 269.1 56.3246 269.1H56.2252H56.1259L0.796082 295.92V296.318Z" fill="#00BCC8"/>
<path d="M56.1207 236.927H56.22C56.3194 236.927 56.3194 237.026 56.3194 237.126L56.4187 269.211C56.4187 269.31 56.4187 269.31 56.3194 269.41C56.2201 269.41 56.22 269.509 56.1207 269.509L11.4198 264.443C11.3205 264.443 11.2211 264.344 11.2211 264.244C11.2211 264.145 11.2211 264.046 11.3205 263.946L55.922 236.927C56.0214 236.927 56.0214 236.927 56.1207 236.927ZM56.0214 269.012L55.922 237.523L12.3138 263.946L56.0214 269.012Z" fill="#00BCC8"/>
<path d="M0.897842 277.152L11.626 264.437L55.4329 269.404L0.79847 295.827V296.323L56.327 269.404C56.4263 269.404 56.4263 269.304 56.4263 269.106C56.4263 269.006 56.3269 268.907 56.2276 268.907L11.5267 263.841C11.4273 263.841 11.4274 263.841 11.3281 263.94L0.897842 276.357V277.152Z" fill="#00BCC8"/>
<path d="M0.987851 259.181L11.1201 264.247L0.88854 276.466V277.161L11.7161 264.347C11.7161 264.247 11.8154 264.247 11.8154 264.148C11.8154 264.049 11.7161 264.049 11.7161 263.949L1.08716 258.685L0.987851 259.181Z" fill="#00BCC8"/>
<path d="M1.00213 256.3L9.54494 262.955L1.00213 258.684V259.18L11.4323 264.346C11.5317 264.445 11.631 264.346 11.7303 264.246C11.8297 264.147 11.7304 264.048 11.631 263.948L1.00213 255.704V256.3Z" fill="#00BCC8"/>
<path d="M309.238 16.2171L257.485 1.11816H255.796L308.543 16.5151L214.87 64.6928L237.518 1.01882H237.022L214.274 65.0901C214.274 65.1895 214.274 65.2888 214.373 65.3881C214.472 65.4875 214.572 65.4875 214.671 65.3881L309.338 16.6145C309.437 16.6145 309.437 16.5151 309.437 16.4158C309.437 16.3165 309.338 16.2171 309.238 16.2171Z" fill="#00BCC8"/>
<path d="M237.124 0.908531L214.476 64.7812L153.087 34.9805L228.681 0.908531H227.588L152.391 34.7819C152.292 34.7819 152.292 34.8812 152.292 34.9805C152.292 35.0799 152.391 35.1792 152.391 35.1792L214.476 65.2778C214.575 65.2778 214.575 65.2778 214.675 65.2778C214.774 65.2778 214.774 65.1785 214.774 65.1785L237.621 0.908531H237.124Z" fill="#00BCC8"/>
<path d="M210.495 138.383H210.594L237.812 158.846C237.911 158.945 237.911 159.044 237.911 159.144C237.812 159.243 237.713 159.243 237.613 159.243L194.502 143.548C194.402 143.548 194.303 143.449 194.303 143.35C194.303 143.25 194.402 143.151 194.502 143.151L210.495 138.383C210.395 138.383 210.495 138.383 210.495 138.383ZM236.322 158.25L210.495 138.78L195.297 143.35L236.322 158.25Z" fill="#00BCC8"/>
<path d="M194.491 143.151C194.491 143.151 194.59 143.151 194.491 143.151L237.702 158.846C237.801 158.846 237.9 158.946 237.9 159.045C237.9 159.144 237.801 159.244 237.702 159.244L180.882 177.621C180.783 177.621 180.683 177.621 180.683 177.521C180.584 177.422 180.584 177.323 180.683 177.323L194.292 143.251C194.292 143.151 194.391 143.151 194.491 143.151ZM236.907 159.045L194.59 143.648L181.18 177.124L236.907 159.045Z" fill="#00BCC8"/>
<path d="M214.572 64.8686C214.771 64.8686 214.771 64.9679 214.771 65.0673L210.698 138.476C210.698 138.575 210.599 138.675 210.5 138.675L194.507 143.443C194.407 143.443 194.308 143.443 194.308 143.344C194.209 143.244 194.209 143.244 194.209 143.145L214.274 64.968C214.374 64.968 214.473 64.8686 214.572 64.8686ZM210.301 138.377L214.175 67.4513L194.805 142.946L210.301 138.377Z" fill="#00BCC8"/>
<path d="M82.3681 137.685L194.518 143.148C194.617 143.148 194.617 143.148 194.716 143.248C194.716 143.347 194.716 143.347 194.716 143.446L181.008 177.618C181.008 177.717 180.909 177.717 180.909 177.717C180.809 177.717 180.809 177.717 180.71 177.717L82.1694 138.182C82.07 138.182 81.9707 137.983 82.07 137.884C82.1693 137.784 82.2687 137.685 82.3681 137.685ZM194.22 143.546L83.7587 138.182L180.809 177.121L194.22 143.546Z" fill="#00BCC8"/>
<path d="M180.894 177.227C181.092 177.227 181.092 177.326 181.092 177.426L192.615 266.43C192.615 266.53 192.615 266.629 192.516 266.629C192.417 266.629 192.317 266.629 192.218 266.629L130.829 218.749C130.729 218.749 130.729 218.65 130.729 218.551C130.729 218.451 130.729 218.451 130.829 218.352L180.695 177.227C180.794 177.227 180.794 177.227 180.894 177.227ZM192.019 265.934L180.596 177.922L131.226 218.551L192.019 265.934Z" fill="#00BCC8"/>
<path d="M131.038 218.342C131.137 218.342 131.137 218.342 131.137 218.342L192.526 266.221C192.625 266.321 192.625 266.321 192.625 266.42C192.625 266.519 192.526 266.619 192.526 266.619L139.084 290.559C138.984 290.559 138.984 290.559 138.885 290.559C138.786 290.559 138.786 290.459 138.786 290.36L130.839 218.441C130.839 218.342 130.839 218.242 130.938 218.242C130.938 218.342 130.938 218.342 131.038 218.342ZM191.93 266.42L131.336 219.136L139.183 290.161L191.93 266.42Z" fill="#00BCC8"/>
<path d="M138.882 290.286C138.882 290.286 138.981 290.286 138.882 290.286C138.981 290.286 139.081 290.385 139.081 290.484L164.61 396.376C164.61 396.475 164.61 396.475 164.61 396.575C164.61 396.674 164.511 396.674 164.411 396.674L56.4336 418.031C56.3343 418.031 56.235 418.031 56.235 417.932C56.1356 417.832 56.1356 417.733 56.235 417.634L138.683 290.385C138.783 290.286 138.783 290.286 138.882 290.286ZM164.113 396.277L138.783 291.08L56.831 417.534L164.113 396.277Z" fill="#00BCC8"/>
<path d="M131.032 218.349H131.131C131.23 218.349 131.23 218.449 131.23 218.548L139.177 290.467C139.177 290.566 139.177 290.666 139.078 290.666C138.979 290.666 138.879 290.666 138.78 290.566L90.0062 236.925C89.9069 236.826 89.9069 236.826 89.9069 236.726C89.9069 236.627 90.0062 236.627 90.0062 236.528L131.032 218.349C130.932 218.349 130.932 218.349 131.032 218.349ZM138.581 289.772L130.833 218.945L90.6023 236.925L138.581 289.772Z" fill="#00BCC8"/>
<path d="M90.1009 236.631C90.2002 236.631 90.2002 236.631 90.2995 236.731L139.073 290.372C139.173 290.471 139.173 290.57 139.073 290.67C138.974 290.769 138.875 290.769 138.775 290.769L56.1282 269.511C56.0289 269.511 56.0288 269.412 55.9295 269.313C55.9295 269.213 55.9296 269.114 56.0289 269.114L89.9022 236.731C90.0015 236.631 90.1009 236.631 90.1009 236.631ZM138.179 290.074L90.1009 237.227L56.7242 269.213L138.179 290.074Z" fill="#00BCC8"/>
<path d="M56.2151 269.014L138.961 290.272C139.061 290.272 139.061 290.371 139.16 290.371C139.16 290.471 139.16 290.471 139.16 290.57L56.6125 417.918C56.5131 418.017 56.4138 418.017 56.3145 418.017C56.2151 418.017 56.1158 417.918 56.1158 417.819L55.9171 269.213C55.9171 269.114 55.9171 269.114 56.0165 269.014C56.1158 269.014 56.2151 269.014 56.2151 269.014ZM138.465 290.669L56.4138 269.61L56.6125 417.123L138.465 290.669Z" fill="#00BCC8"/>
<path d="M214.552 64.8713C214.651 64.8713 214.651 64.8713 214.751 64.9707C214.85 65.07 214.85 65.07 214.85 65.1693L194.784 143.346C194.784 143.446 194.685 143.446 194.685 143.545C194.586 143.545 194.486 143.545 194.486 143.545L109.555 84.8377C109.455 84.7384 109.455 84.7384 109.455 84.6391C109.455 84.5397 109.555 84.4404 109.654 84.4404L214.552 64.8713C214.453 64.8713 214.552 64.8713 214.552 64.8713ZM194.387 142.949L214.254 65.368L110.25 84.7384L194.387 142.949Z" fill="#00BCC8"/>
<path d="M152.483 34.7887H152.583L214.667 64.8874C214.767 64.8874 214.767 64.9867 214.767 65.086C214.767 65.1853 214.667 65.2847 214.568 65.2847L109.67 84.8538C109.57 84.8538 109.471 84.8538 109.471 84.7544C109.471 84.6551 109.471 84.5558 109.471 84.4564L152.384 34.7887C152.285 34.7887 152.384 34.7887 152.483 34.7887ZM213.773 64.9867L152.483 35.2854L110.166 84.3571L213.773 64.9867Z" fill="#00BCC8"/>
<path d="M109.567 84.4446H109.667L194.598 143.152C194.698 143.251 194.698 143.35 194.698 143.45C194.698 143.549 194.598 143.648 194.499 143.648L82.3495 138.185C82.2502 138.185 82.1508 138.185 82.1508 138.086C82.1508 137.986 82.1508 137.887 82.1508 137.887L109.369 84.6432C109.468 84.5439 109.468 84.4446 109.567 84.4446ZM193.704 143.052L109.667 85.0406L82.7468 137.688L193.704 143.052Z" fill="#00BCC8"/>
<path d="M123.385 24.4344C123.385 24.4344 123.485 24.4344 123.385 24.4344L152.491 34.7653C152.59 34.7653 152.59 34.8647 152.59 34.964C152.59 35.0633 152.59 35.1627 152.59 35.1627L109.677 84.8303C109.578 84.9297 109.479 84.9297 109.379 84.9297C109.28 84.9297 109.28 84.731 109.28 84.6317L123.087 24.6331C123.087 24.5338 123.187 24.5338 123.187 24.4344C123.286 24.4344 123.385 24.4344 123.385 24.4344ZM152.093 35.0633L123.584 24.9311L110.075 83.7377L152.093 35.0633Z" fill="#00BCC8"/>
<path d="M123.382 24.4535C123.481 24.4535 123.481 24.4535 123.58 24.5528C123.58 24.6522 123.68 24.6522 123.68 24.7515L109.872 84.7501C109.872 84.8494 109.773 84.8494 109.673 84.9487C109.574 84.9487 109.475 84.9487 109.475 84.8494L53.6483 30.9103C53.5489 30.811 53.549 30.7116 53.549 30.7116C53.549 30.6123 53.6482 30.6123 53.7476 30.513L123.382 24.4535ZM109.475 84.2534L123.084 24.9502L54.2442 31.0096L109.475 84.2534Z" fill="#00BCC8"/>
<path d="M109.571 84.4461C109.67 84.4461 109.67 84.4461 109.769 84.5454C109.869 84.6448 109.869 84.7441 109.769 84.8434L82.5516 138.087C82.5516 138.187 82.4523 138.187 82.353 138.187C82.2536 138.187 82.2536 138.187 82.1543 138.187L51.6583 114.743C51.559 114.743 51.559 114.644 51.559 114.545C51.559 114.445 51.6583 114.346 51.6583 114.346L109.471 84.6448C109.571 84.4461 109.571 84.4461 109.571 84.4461ZM82.2536 137.591L109.074 85.2408L52.2543 114.445L82.2536 137.591Z" fill="#00BCC8"/>
<path d="M53.7498 30.5987C53.8491 30.5987 53.8491 30.5987 53.9484 30.6981L109.775 84.5378C109.874 84.6371 109.874 84.6371 109.874 84.7365C109.874 84.8358 109.775 84.8358 109.676 84.9351L29.81 108.776C29.7106 108.776 29.6113 108.776 29.6113 108.676C29.5119 108.577 29.512 108.478 29.512 108.478L53.5511 30.6981C53.5511 30.5987 53.6504 30.5987 53.7498 30.5987ZM109.179 84.5378L53.9484 31.1947L30.2073 108.18L109.179 84.5378Z" fill="#00BCC8"/>
<path d="M109.572 84.4361C109.671 84.4361 109.771 84.5354 109.771 84.5354C109.771 84.6347 109.771 84.7341 109.671 84.8334L51.8582 114.535C51.7589 114.535 51.7589 114.535 51.6596 114.535L29.6071 108.674C29.5078 108.674 29.4084 108.575 29.4084 108.475C29.4084 108.376 29.5078 108.277 29.6071 108.277L109.572 84.4361ZM51.7589 114.137L107.287 85.6281L30.6998 108.575L51.7589 114.137Z" fill="#00BCC8"/>
<path d="M454.364 54.7362C454.463 54.7362 454.562 54.8355 454.562 54.9349C454.562 55.0342 454.562 55.1335 454.463 55.2328L388.405 93.9736C388.306 93.9736 388.306 93.9736 388.206 93.9736C388.107 93.9736 388.107 93.8743 388.107 93.8743L374.399 69.5371C374.399 69.4378 374.399 69.4378 374.399 69.3385C374.399 69.2391 374.498 69.2391 374.597 69.2391L454.364 54.7362C454.264 54.7362 454.264 54.7362 454.364 54.7362ZM388.306 93.3776L453.072 55.4315L374.895 69.5371L388.306 93.3776Z" fill="#00BCC8"/>
<path d="M374.496 69.1634C374.595 69.1634 374.595 69.1634 374.496 69.1634C374.595 69.1634 374.695 69.2628 374.695 69.2628L388.403 93.6C388.403 93.6993 388.403 93.6993 388.403 93.7986C388.403 93.898 388.304 93.898 388.204 93.898L347.378 102.043C347.278 102.043 347.179 102.043 347.179 101.944C347.08 101.845 347.179 101.745 347.179 101.646L374.297 69.1634C374.397 69.2628 374.496 69.1634 374.496 69.1634ZM387.807 93.6L374.496 69.8588L347.974 101.547L387.807 93.6Z" fill="#00BCC8"/>
<path d="M259.066 233.043C259.264 233.043 259.364 233.242 259.264 233.341L246.45 282.711C246.45 282.81 246.252 282.909 246.152 282.909C246.053 282.909 245.954 282.711 245.954 282.611L258.768 233.242C258.867 233.142 258.966 233.043 259.066 233.043Z" fill="#00BCC8"/>
<path d="M259.079 233.05C259.178 233.05 259.178 233.05 259.178 233.15C259.277 233.249 259.277 233.348 259.277 233.348L246.463 282.718C246.463 282.817 246.364 282.817 246.364 282.817C246.264 282.817 246.264 282.817 246.165 282.817L192.325 266.626C192.226 266.626 192.127 266.526 192.127 266.427C192.127 266.328 192.127 266.228 192.226 266.228L258.88 233.05C258.979 233.05 258.979 233.05 259.079 233.05ZM246.066 282.42L258.681 233.746L193.021 266.427L246.066 282.42Z" fill="#00BCC8"/>
<path d="M240.099 170.365C240.198 170.365 240.298 170.464 240.298 170.564L259.271 233.244C259.271 233.344 259.271 233.443 259.171 233.542C259.072 233.642 258.973 233.642 258.873 233.542L180.696 177.716C180.597 177.617 180.597 177.517 180.597 177.517C180.597 177.418 180.696 177.319 180.796 177.319L240.099 170.365C240 170.365 240.099 170.365 240.099 170.365ZM258.675 232.748L239.9 170.862L181.491 177.617L258.675 232.748Z" fill="#00BCC8"/>
<path d="M180.894 177.234H180.994L259.17 233.061C259.27 233.061 259.27 233.16 259.27 233.26C259.27 233.359 259.17 233.458 259.17 233.458L192.516 266.636C192.417 266.636 192.417 266.636 192.318 266.636C192.218 266.636 192.218 266.537 192.218 266.438L180.696 177.433C180.696 177.334 180.696 177.234 180.795 177.234C180.795 177.234 180.795 177.234 180.894 177.234ZM258.574 233.26L181.093 177.93L192.516 266.14L258.574 233.26Z" fill="#00BCC8"/>
<path d="M280.727 126.458C280.827 126.458 280.827 126.458 280.926 126.558C281.025 126.657 281.025 126.756 280.926 126.856L240.198 170.762C240.099 170.861 240.099 170.861 240 170.861C239.901 170.861 239.9 170.762 239.801 170.663L237.417 159.14C237.417 159.04 237.417 158.941 237.516 158.941L280.628 126.458H280.727ZM240.198 170.067L278.84 128.346L237.914 159.14L240.198 170.067Z" fill="#00BCC8"/>
<path d="M280.722 126.472C280.822 126.472 280.921 126.572 280.921 126.572C280.921 126.671 280.921 126.77 280.822 126.87L237.71 159.253C237.611 159.352 237.512 159.352 237.412 159.253L210.194 138.79C210.095 138.69 210.095 138.591 210.095 138.591C210.095 138.591 210.194 138.392 210.294 138.392L280.722 126.472ZM237.71 158.756L279.928 127.068L211.188 138.69L237.71 158.756Z" fill="#00BCC8"/>
<path d="M214.571 64.8738C214.671 64.8738 214.671 64.8738 214.77 64.9732L281.027 126.561C281.126 126.66 281.126 126.76 281.126 126.76C281.126 126.859 281.027 126.859 280.927 126.958L210.697 138.879C210.598 138.879 210.598 138.879 210.499 138.779C210.399 138.779 210.399 138.68 210.399 138.581L214.472 65.1718C214.273 64.9731 214.373 64.9732 214.571 64.8738C214.472 64.8738 214.472 64.8738 214.571 64.8738ZM280.232 126.561L214.77 65.6685L210.797 138.382L280.232 126.561Z" fill="#00BCC8"/>
<path d="M1.30278 189.143L81.9631 138.382L55.9372 236.724L1.20347 213.579V214.076L56.0366 237.221C56.1359 237.221 56.1359 237.221 56.2352 237.221C56.3346 237.221 56.3346 237.122 56.3346 237.022L82.5591 137.786C82.5591 137.687 82.5591 137.588 82.4598 137.588H82.3605H82.2611L1.40215 188.547L1.30278 189.143Z" fill="#00BCC8"/>
<path d="M1.59904 146.833L81.4647 138.29L1.40042 188.653V189.249L82.5574 138.191C82.6567 138.092 82.6567 137.992 82.6567 137.893C82.6567 137.794 82.5574 137.694 82.4581 137.694L1.69842 146.336L1.59904 146.833Z" fill="#00BCC8"/>
<path d="M1.18261 214.178L54.7243 236.826L1.08323 233.647V234.144L56.0157 237.422C56.1151 237.422 56.2144 237.323 56.2144 237.223C56.2144 237.124 56.2144 237.025 56.115 236.925L1.18261 213.681V214.178Z" fill="#00BCC8"/>
<path d="M374.5 69.1496C374.6 69.1496 374.6 69.1496 374.699 69.249C374.798 69.3483 374.798 69.4476 374.699 69.547L347.58 102.03C347.58 102.129 347.481 102.129 347.382 102.129L293.741 102.328C293.641 102.328 293.542 102.228 293.542 102.129C293.542 102.03 293.542 101.93 293.641 101.831L374.5 69.1496ZM347.282 101.632L373.805 69.9443L295.032 101.732L347.282 101.632Z" fill="#00BCC8"/>
<path d="M309.237 16.1907C309.336 16.1907 309.336 16.1907 309.336 16.29L374.699 69.3351C374.798 69.4345 374.798 69.4344 374.798 69.5338C374.798 69.6331 374.699 69.7325 374.699 69.7325L293.939 102.314C293.84 102.314 293.741 102.314 293.741 102.314C293.641 102.215 293.641 102.215 293.641 102.116L309.138 16.4887C309.038 16.29 309.038 16.1907 309.237 16.1907C309.138 16.1907 309.138 16.1907 309.237 16.1907ZM374.103 69.3351L309.336 16.7867L294.039 101.619L374.103 69.3351Z" fill="#00BCC8"/>
<path d="M347.378 101.625C347.477 101.625 347.576 101.725 347.576 101.824C347.576 101.923 347.576 102.023 347.477 102.122L280.823 126.956C280.724 126.956 280.624 126.956 280.525 126.856C280.426 126.757 280.426 126.658 280.525 126.558L293.538 101.923C293.538 101.824 293.637 101.824 293.737 101.824L347.378 101.625ZM281.22 126.26L346.086 102.122L293.836 102.321L281.22 126.26Z" fill="#00BCC8"/>
<path d="M309.232 16.2009H309.332C309.431 16.3003 309.431 16.3002 309.431 16.3996L293.935 102.027C293.935 102.126 293.835 102.126 293.835 102.225C293.736 102.225 293.736 102.225 293.637 102.225L214.466 65.2726C214.367 65.2726 214.367 65.1732 214.367 65.0739C214.367 64.9746 214.367 64.8753 214.466 64.8753L309.133 16.1016C309.133 16.2009 309.133 16.2009 309.232 16.2009ZM293.537 101.729L308.835 16.8963L214.963 65.1732L293.537 101.729Z" fill="#00BCC8"/>
<path d="M214.575 64.8729L293.845 101.826C293.944 101.826 293.944 101.925 293.944 101.925C293.944 102.024 293.944 102.024 293.944 102.124L280.931 126.759C280.931 126.858 280.832 126.858 280.733 126.858C280.633 126.858 280.633 126.858 280.534 126.759L214.277 65.1709C214.178 65.0716 214.178 64.9722 214.277 64.8729C214.377 64.8729 214.476 64.8729 214.575 64.8729ZM293.448 102.124L215.767 65.9656L280.633 126.361L293.448 102.124Z" fill="#00BCC8"/>
<path d="M1.80094 98.3559L29.2175 108.587L1.70163 124.382V124.878L29.9128 108.687C30.0122 108.687 30.0122 108.587 30.0122 108.488C30.0122 108.389 29.9129 108.289 29.8135 108.289L1.80094 97.8592V98.3559Z" fill="#00BCC8"/>
<path d="M246.257 282.523C246.356 282.523 246.356 282.523 246.455 282.623C246.555 282.722 246.455 282.921 246.356 282.921L192.516 318.88C192.417 318.98 192.218 318.88 192.218 318.781C192.119 318.682 192.218 318.483 192.317 318.483L246.157 282.523C246.157 282.523 246.157 282.523 246.257 282.523Z" fill="#00BCC8"/>
<path d="M192.315 266.231C192.415 266.231 192.415 266.231 192.315 266.231L246.254 282.422C246.354 282.422 246.453 282.522 246.453 282.621C246.453 282.72 246.453 282.82 246.354 282.82L192.514 318.779C192.415 318.779 192.315 318.878 192.315 318.779C192.216 318.779 192.216 318.68 192.216 318.58V266.33C192.216 266.231 192.216 266.231 192.315 266.131C192.216 266.231 192.315 266.231 192.315 266.231ZM245.658 282.82L192.514 266.827V318.282L245.658 282.82Z" fill="#00BCC8"/>
<path d="M192.313 266.228H192.412C192.511 266.228 192.511 266.327 192.511 266.426V318.677C192.511 318.776 192.511 318.875 192.412 318.875C192.313 318.875 192.213 318.875 192.213 318.875L138.671 290.664C138.572 290.664 138.572 290.565 138.572 290.465C138.572 290.366 138.671 290.267 138.671 290.267L192.313 266.228ZM192.213 318.279V266.824L139.466 290.465L192.213 318.279Z" fill="#00BCC8"/>
<path d="M138.874 290.267H138.973L192.515 318.478C192.614 318.577 192.714 318.677 192.614 318.776L164.602 396.555C164.602 396.655 164.502 396.754 164.403 396.754C164.304 396.754 164.204 396.655 164.204 396.555L138.675 290.565C138.675 290.465 138.675 290.366 138.775 290.366C138.775 290.267 138.874 290.267 138.874 290.267ZM192.118 318.776L139.271 290.863L164.502 395.661L192.118 318.776Z" fill="#00BCC8"/>
<path d="M1.99879 66.0707L53.3552 31.4027L29.7134 108.09L1.99879 72.4282V73.2229L29.614 108.785C29.7133 108.884 29.7134 108.884 29.8127 108.884C29.912 108.884 30.0114 108.785 30.0114 108.686L54.0505 30.906C54.0505 30.8067 54.0505 30.7074 53.9512 30.608H53.8519H53.7525L2.0981 65.4747L1.99879 66.0707Z" fill="#00BCC8"/>
<path d="M2.19698 18.1936L53.156 30.9085L1.89899 65.4773V66.0732L53.9507 31.0079C54.05 30.9085 54.05 30.9085 54.05 30.8092C54.05 30.7099 53.9507 30.6105 53.8514 30.6105L2.19698 17.7963V18.1936Z" fill="#00BCC8"/>
<path d="M1.90004 73.1172L29.0186 108.083L1.70135 97.951V98.4477L29.6146 108.878C29.7139 108.878 29.8132 108.878 29.9126 108.779C30.0119 108.679 30.0119 108.58 29.9126 108.481L1.90004 72.4219V73.1172Z" fill="#00BCC8"/>
<path d="M41.0308 434.017C42.4215 434.017 43.5142 432.925 43.5142 431.633C43.5142 430.243 42.4215 429.15 41.1301 429.15C39.7395 429.15 38.6468 430.243 38.6468 431.534C38.5474 432.925 39.6401 434.017 41.0308 434.017Z" fill="#00BCC8"/>
<path d="M41.0208 434.007C39.6301 434.007 38.6368 432.914 38.6368 431.523C38.6368 430.133 39.7294 429.139 41.1201 429.139C42.5108 429.139 43.5042 430.232 43.5042 431.623C43.4048 433.013 42.3121 434.007 41.0208 434.007ZM41.0208 435C42.9081 435 44.3982 433.51 44.3982 431.623C44.3982 429.735 42.9081 428.245 41.0208 428.245C39.1334 428.245 37.6434 429.735 37.6434 431.623C37.6434 433.411 39.1334 435 41.0208 435Z" fill="#00BCC8"/>
<path d="M422.572 37.1555C423.366 37.1555 424.062 36.4602 424.062 35.6655C424.062 34.8708 423.366 34.1755 422.572 34.1755C421.777 34.1755 421.082 34.8708 421.082 35.6655C420.982 36.4602 421.678 37.1555 422.572 37.1555Z" fill="#00BCC8"/>
<path d="M422.579 37.1739C421.784 37.1739 421.089 36.4785 421.089 35.6839C421.089 34.8892 421.784 34.1938 422.579 34.1938C423.374 34.1938 424.069 34.8892 424.069 35.6839C424.069 36.5779 423.374 37.1739 422.579 37.1739ZM422.48 38.1672C423.771 38.1672 424.963 37.0745 424.963 35.7832C424.963 34.4918 423.87 33.2998 422.579 33.2998C421.188 33.2998 420.096 34.3925 420.096 35.6839C420.096 36.9752 421.188 38.1672 422.48 38.1672Z" fill="#00BCC8"/>
<path d="M394.452 19.7852C395.644 19.7852 396.538 18.8911 396.538 17.6991C396.538 16.5071 395.644 15.6131 394.452 15.6131C393.26 15.6131 392.366 16.5071 392.366 17.6991C392.366 18.8911 393.26 19.7852 394.452 19.7852Z" fill="#00BCC8"/>
<path d="M394.459 19.785C393.267 19.785 392.373 18.8909 392.373 17.6989C392.373 16.5069 393.267 15.6129 394.459 15.6129C395.651 15.6129 396.545 16.5069 396.545 17.6989C396.446 18.8909 395.552 19.8843 394.459 19.785ZM394.36 20.7783C396.049 20.7783 397.34 19.487 397.34 17.7983C397.34 16.1096 396.049 14.8182 394.36 14.8182C392.671 14.8182 391.38 16.1096 391.38 17.7983C391.38 19.3876 392.771 20.7783 394.36 20.7783Z" fill="#00BCC8"/>
<path d="M11.509 265.94C12.5024 265.94 13.2971 265.145 13.2971 264.152C13.2971 263.159 12.5024 262.364 11.509 262.364C10.5157 262.364 9.72101 263.159 9.72101 264.152C9.72101 265.145 10.5157 265.94 11.509 265.94Z" fill="#00BCC8"/>
<path d="M11.513 265.93C10.5196 265.93 9.72497 265.136 9.72497 264.142C9.72497 263.149 10.5196 262.354 11.513 262.354C12.5063 262.354 13.3011 263.149 13.3011 264.142C13.3011 265.136 12.5063 266.03 11.513 265.93ZM11.513 266.924C13.003 266.924 14.2944 265.732 14.2944 264.242C14.2944 262.752 13.1024 261.46 11.6124 261.46C10.1223 261.46 8.83099 262.652 8.83099 264.142C8.73165 265.632 9.92363 266.924 11.513 266.924Z" fill="#00BCC8"/>
<path d="M131.014 215.471C129.313 215.471 127.934 216.85 127.934 218.55C127.934 220.251 129.313 221.63 131.014 221.63C132.715 221.63 134.093 220.251 134.093 218.55C134.093 216.85 132.715 215.471 131.014 215.471Z" fill="#00BCC8"/>
<path d="M130.923 221.626C129.234 221.626 127.843 220.235 127.843 218.546C127.843 216.858 129.234 215.467 130.923 215.467C132.612 215.467 134.002 216.858 134.002 218.546C134.102 220.334 132.711 221.626 130.923 221.626ZM130.923 222.619C133.108 222.619 134.996 220.831 134.996 218.646C134.996 216.46 133.208 214.573 131.022 214.573C128.837 214.573 126.949 216.361 126.949 218.546C126.949 220.732 128.737 222.619 130.923 222.619Z" fill="#00BCC8"/>
<path d="M88.8153 236.833C88.8153 237.528 89.4113 238.125 90.1066 238.125C90.8019 238.125 91.3979 237.528 91.3979 236.833C91.3979 236.138 90.8019 235.542 90.1066 235.542C89.4113 235.542 88.8153 236.138 88.8153 236.833Z" fill="#00BCC8"/>
<path d="M90.0981 238.215C89.4028 238.215 88.8068 237.619 88.8068 236.923C88.8068 236.228 89.4028 235.632 90.0981 235.632C90.7935 235.632 91.3895 236.228 91.3895 236.923C91.3895 237.619 90.8928 238.215 90.0981 238.215ZM90.0981 239.109C91.3895 239.109 92.3828 238.115 92.3828 236.824C92.3828 235.533 91.3895 234.539 90.0981 234.539C88.8068 234.539 87.8134 235.533 87.8134 236.824C87.8134 238.115 88.9061 239.109 90.0981 239.109Z" fill="#00BCC8"/>
<path d="M56.2249 266.245C54.5362 266.245 53.1455 267.636 53.1455 269.225C53.1455 270.914 54.5362 272.304 56.1256 272.304C57.8143 272.304 59.2049 270.914 59.2049 269.324C59.3043 267.636 57.9136 266.245 56.2249 266.245Z" fill="#00BCC8"/>
<path d="M56.2187 272.293C54.53 272.293 53.1393 270.902 53.2387 269.214C53.2387 267.525 54.6294 266.134 56.3181 266.234C58.0068 266.234 59.3975 267.624 59.2982 269.313C59.2982 271.002 57.9074 272.293 56.2187 272.293ZM56.2187 273.286C58.4041 273.286 60.1921 271.498 60.1921 269.313C60.1921 267.128 58.4041 265.34 56.2187 265.34C54.0333 265.34 52.2453 267.128 52.2453 269.313C52.2453 271.399 54.0333 273.187 56.2187 273.286Z" fill="#00BCC8"/>
<path d="M54.5395 417.821C54.5395 418.914 55.3341 419.708 56.4268 419.708C57.5195 419.708 58.3142 418.914 58.3142 417.821C58.3142 416.728 57.5195 415.934 56.4268 415.934C55.3341 415.934 54.5395 416.728 54.5395 417.821Z" fill="#00BCC8"/>
<path d="M56.4195 419.702C55.3269 419.702 54.5322 418.808 54.5322 417.815C54.5322 416.722 55.4262 415.928 56.4195 415.928C57.5122 415.928 58.3069 416.822 58.3069 417.815C58.3069 418.908 57.4129 419.702 56.4195 419.702ZM56.4195 420.696C58.0089 420.696 59.3003 419.404 59.3003 417.914C59.3003 416.325 58.0089 415.034 56.5189 415.034C54.9296 415.034 53.6382 416.325 53.6382 417.815C53.5388 419.404 54.8302 420.696 56.4195 420.696Z" fill="#00BCC8"/>
<path d="M194.503 146.137C195.993 146.137 197.285 144.945 197.285 143.355C197.285 141.865 196.093 140.574 194.503 140.574C192.914 140.574 191.722 141.766 191.722 143.355C191.722 144.845 193.013 146.137 194.503 146.137Z" fill="#00BCC8"/>
<path d="M194.499 146.132C193.009 146.132 191.718 144.841 191.718 143.351C191.718 141.861 193.009 140.569 194.499 140.569C195.989 140.569 197.28 141.861 197.28 143.351C197.28 144.841 195.989 146.132 194.499 146.132ZM194.499 147.026C196.486 147.026 198.174 145.437 198.174 143.351C198.174 141.364 196.585 139.675 194.499 139.675C192.512 139.675 190.824 141.265 190.824 143.351C190.824 145.337 192.512 147.026 194.499 147.026Z" fill="#00BCC8"/>
<path d="M152.483 37.3655C153.775 37.3655 154.867 36.2728 154.867 34.9814C154.867 33.6901 153.775 32.5974 152.483 32.5974C151.192 32.5974 150.099 33.6901 150.099 34.9814C150.099 36.2728 151.192 37.3655 152.483 37.3655Z" fill="#00BCC8"/>
<path d="M152.482 37.3648C151.191 37.3648 150.098 36.2721 150.098 34.9807C150.098 33.6894 151.191 32.5967 152.482 32.5967C153.774 32.5967 154.866 33.6894 154.866 34.9807C154.866 36.2721 153.774 37.3648 152.482 37.3648ZM152.482 38.2588C154.27 38.2588 155.76 36.7688 155.76 34.9807C155.76 33.1927 154.27 31.7027 152.482 31.7027C150.694 31.7027 149.204 33.1927 149.204 34.9807C149.204 36.7688 150.595 38.2588 152.482 38.2588Z" fill="#00BCC8"/>
<path d="M123.368 27.7219C125.057 27.7219 126.448 26.3312 126.448 24.6425C126.448 22.9538 125.057 21.5631 123.368 21.5631C121.68 21.5631 120.289 22.9538 120.289 24.6425C120.289 26.3312 121.68 27.7219 123.368 27.7219Z" fill="#00BCC8"/>
<path d="M123.373 27.7325C121.684 27.7325 120.293 26.3418 120.293 24.6531C120.293 22.9644 121.684 21.5737 123.373 21.5737C125.061 21.5737 126.452 22.9644 126.452 24.6531C126.452 26.4411 125.061 27.7325 123.373 27.7325ZM123.373 28.7258C125.558 28.7258 127.346 26.9378 127.346 24.7524C127.346 22.567 125.558 20.779 123.373 20.779C121.187 20.779 119.399 22.567 119.399 24.7524C119.399 26.8385 121.187 28.6265 123.373 28.7258Z" fill="#00BCC8"/>
<path d="M109.567 86.4443C110.56 86.4443 111.256 85.6497 111.256 84.7556C111.256 83.7623 110.461 83.0669 109.567 83.0669C108.574 83.0669 107.878 83.8616 107.878 84.7556C107.878 85.6497 108.673 86.4443 109.567 86.4443Z" fill="#00BCC8"/>
<path d="M109.578 86.4405C108.585 86.4405 107.89 85.6458 107.89 84.7518C107.89 83.7584 108.684 83.063 109.578 83.063C110.572 83.063 111.267 83.8577 111.267 84.7518C111.267 85.6458 110.572 86.4405 109.578 86.4405ZM109.578 87.3345C111.068 87.3345 112.26 86.1425 112.26 84.6524C112.26 83.1624 111.068 81.9704 109.578 81.9704C108.088 81.9704 106.896 83.1624 106.896 84.6524C106.995 86.1425 108.088 87.3345 109.578 87.3345Z" fill="#00BCC8"/>
<path d="M51.7678 117.74C53.5559 117.74 55.0459 116.25 55.1453 114.462C55.1453 112.674 53.6552 111.184 51.8672 111.085C50.0792 111.085 48.5891 112.575 48.4898 114.363C48.4898 116.25 49.9798 117.74 51.7678 117.74Z" fill="#00BCC8"/>
<path d="M51.751 117.729C49.963 117.729 48.4729 116.239 48.4729 114.351C48.4729 112.563 49.963 111.073 51.8504 111.073C53.6384 111.073 55.1284 112.563 55.1284 114.451C55.1284 116.239 53.6384 117.729 51.751 117.729ZM51.751 118.722C54.135 118.722 56.0225 116.835 56.0225 114.451C56.0225 112.067 54.135 110.179 51.751 110.179C49.3669 110.179 47.4796 112.067 47.4796 114.451C47.5789 116.735 49.4663 118.722 51.751 118.722Z" fill="#00BCC8"/>
<path d="M454.247 56.4377C455.042 56.4377 455.638 55.8417 455.638 55.0471C455.638 54.2524 455.042 53.6563 454.247 53.6563C453.452 53.6563 452.856 54.2524 452.856 55.0471C452.956 55.7424 453.552 56.3384 454.247 56.4377Z" fill="#00BCC8"/>
<path d="M454.259 56.4356C453.464 56.4356 452.868 55.8396 452.868 55.0449C452.868 54.2502 453.464 53.6542 454.259 53.6542C455.053 53.6542 455.649 54.2502 455.649 55.0449C455.649 55.7402 455.053 56.4356 454.259 56.4356ZM454.259 57.3296C455.55 57.3296 456.543 56.3362 456.543 55.0449C456.543 53.7535 455.55 52.7602 454.259 52.7602C452.967 52.7602 451.974 53.7535 451.974 55.0449C451.974 56.2369 453.067 57.3296 454.259 57.3296Z" fill="#00BCC8"/>
<path d="M388.209 95.9736C389.401 95.9736 390.395 94.9803 390.395 93.7883C390.395 92.5962 389.401 91.6029 388.209 91.6029C387.017 91.6029 386.024 92.5962 386.024 93.7883C386.024 94.9803 387.017 95.9736 388.209 95.9736Z" fill="#00BCC8"/>
<path d="M388.198 95.9688C387.006 95.9688 386.013 94.9754 386.013 93.7834C386.013 92.5914 387.006 91.598 388.198 91.598C389.39 91.598 390.384 92.5914 390.384 93.7834C390.384 94.9754 389.39 95.9688 388.198 95.9688ZM388.198 96.8628C389.887 96.8628 391.377 95.4721 391.377 93.7834C391.377 92.0947 389.986 90.6047 388.298 90.6047C386.609 90.6047 385.119 91.9954 385.119 93.6841C385.02 95.4721 386.41 96.8628 388.198 96.8628Z" fill="#00BCC8"/>
<path d="M259.053 234.637C259.748 234.637 260.344 234.041 260.344 233.346C260.344 232.651 259.748 232.055 259.053 232.055C258.358 232.055 257.762 232.651 257.762 233.346C257.662 234.041 258.258 234.637 259.053 234.637Z" fill="#00BCC8"/>
<path d="M259.062 234.643C258.367 234.643 257.771 234.047 257.771 233.352C257.771 232.656 258.367 232.06 259.062 232.06C259.757 232.06 260.353 232.656 260.353 233.352C260.353 234.047 259.757 234.643 259.062 234.643ZM259.062 235.636C260.353 235.636 261.347 234.643 261.347 233.352C261.347 232.06 260.353 231.067 259.062 231.067C257.771 231.067 256.777 232.06 256.777 233.352C256.777 234.544 257.771 235.537 259.062 235.636Z" fill="#00BCC8"/>
<path d="M180.895 180.513C182.584 180.513 183.975 179.122 183.975 177.533C183.975 175.844 182.584 174.453 180.995 174.453C179.306 174.453 177.915 175.844 177.915 177.434C177.816 179.122 179.207 180.513 180.895 180.513Z" fill="#00BCC8"/>
<path d="M180.895 180.509C179.207 180.509 177.816 179.118 177.915 177.429C177.915 175.741 179.306 174.35 180.995 174.449C182.683 174.449 184.074 175.84 183.975 177.529C183.875 179.217 182.485 180.509 180.895 180.509ZM180.796 181.403C182.981 181.403 184.769 179.615 184.769 177.429C184.769 175.244 182.981 173.456 180.796 173.456C178.61 173.456 176.822 175.244 176.822 177.429C176.922 179.615 178.61 181.403 180.796 181.403Z" fill="#00BCC8"/>
<path d="M240.096 169.093C239.301 169.093 238.606 169.788 238.606 170.583C238.606 171.377 239.301 172.073 240.096 172.073C240.89 172.073 241.586 171.377 241.586 170.583C241.586 169.788 240.89 169.093 240.096 169.093Z" fill="#00BCC8"/>
<path d="M240.094 172.167C239.299 172.167 238.604 171.471 238.604 170.677C238.604 169.882 239.299 169.186 240.094 169.186C240.888 169.186 241.584 169.882 241.584 170.677C241.584 171.471 240.888 172.167 240.094 172.167ZM240.094 173.061C241.484 173.061 242.577 171.968 242.577 170.577C242.577 169.186 241.484 168.094 240.094 168.094C238.703 168.094 237.61 169.186 237.61 170.577C237.61 171.968 238.703 173.061 240.094 173.061Z" fill="#00BCC8"/>
<path d="M237.622 160.763C238.615 160.763 239.31 159.968 239.31 159.074C239.31 158.081 238.516 157.385 237.622 157.385C236.628 157.385 235.933 158.18 235.933 159.074C235.933 159.968 236.728 160.763 237.622 160.763Z" fill="#00BCC8"/>
<path d="M237.611 160.746C236.618 160.746 235.923 159.951 235.923 159.057C235.923 158.064 236.717 157.369 237.611 157.369C238.605 157.369 239.3 158.163 239.3 159.057C239.399 160.051 238.605 160.746 237.611 160.746ZM237.611 161.74C239.101 161.74 240.293 160.547 240.293 159.157C240.293 157.667 239.101 156.475 237.711 156.475C236.221 156.475 235.029 157.667 235.029 159.057C235.029 160.547 236.221 161.74 237.611 161.74Z" fill="#00BCC8"/>
<path d="M210.489 139.862C211.185 139.862 211.88 139.266 211.88 138.571C211.88 137.876 211.284 137.18 210.589 137.18C209.893 137.18 209.198 137.776 209.198 138.472C209.099 139.266 209.695 139.862 210.489 139.862Z" fill="#00BCC8"/>
<path d="M210.488 139.874C209.793 139.874 209.197 139.278 209.197 138.484C209.197 137.788 209.793 137.192 210.588 137.192C211.382 137.192 211.879 137.788 211.879 138.583C211.78 139.278 211.184 139.874 210.488 139.874ZM210.488 140.868C211.78 140.868 212.773 139.874 212.773 138.583C212.773 137.292 211.78 136.298 210.488 136.298C209.197 136.298 208.204 137.292 208.204 138.583C208.204 139.775 209.197 140.868 210.488 140.868Z" fill="#00BCC8"/>
<path d="M82.344 140.278C83.6354 140.278 84.728 139.284 84.728 137.993C84.728 136.702 83.7347 135.609 82.4433 135.609C81.152 135.609 80.0593 136.602 80.0593 137.894C79.9599 139.185 81.0527 140.278 82.344 140.278Z" fill="#00BCC8"/>
<path d="M82.3362 140.267C81.0448 140.267 80.0514 139.174 80.0514 137.883C80.0514 136.591 81.1442 135.598 82.4355 135.598C83.7269 135.598 84.7202 136.691 84.7202 137.982C84.6209 139.174 83.6276 140.267 82.3362 140.267ZM82.3362 141.161C84.1242 141.161 85.6143 139.671 85.6143 137.883C85.6143 136.095 84.1242 134.605 82.3362 134.605C80.5482 134.605 79.0581 136.095 79.0581 137.883C79.0581 139.671 80.5482 141.161 82.3362 141.161Z" fill="#00BCC8"/>
<path d="M56.1143 239.787C57.6044 239.787 58.7964 238.595 58.7964 237.105C58.7964 235.615 57.6044 234.423 56.1143 234.423C54.6243 234.423 53.4323 235.615 53.4323 237.105C53.4323 238.595 54.6243 239.787 56.1143 239.787Z" fill="#00BCC8"/>
<path d="M56.1278 239.817C54.6378 239.817 53.4457 238.625 53.4457 237.135C53.4457 235.645 54.6378 234.453 56.1278 234.453C57.6178 234.453 58.8099 235.645 58.8099 237.135C58.8099 238.625 57.5185 239.817 56.1278 239.817ZM56.0285 240.811C58.0152 240.811 59.6045 239.221 59.7038 237.234C59.8032 235.248 58.1145 233.658 56.1278 233.559C54.1411 233.559 52.5517 235.148 52.4524 237.135C52.4524 239.122 54.0418 240.711 56.0285 240.811Z" fill="#00BCC8"/>
<path d="M374.496 72.3259C376.085 72.3259 377.377 71.0346 377.377 69.4452C377.377 67.8558 376.085 66.5645 374.496 66.5645C372.907 66.5645 371.615 67.8558 371.615 69.4452C371.615 71.0346 372.907 72.3259 374.496 72.3259Z" fill="#00BCC8"/>
<path d="M374.487 72.3277C372.897 72.3277 371.606 71.0363 371.606 69.4469C371.606 67.8576 372.897 66.5662 374.487 66.5662C376.076 66.5662 377.367 67.8576 377.367 69.4469C377.467 71.0363 376.076 72.3277 374.487 72.3277ZM374.487 73.2217C376.573 73.2217 378.361 71.533 378.361 69.4469C378.361 67.3609 376.672 65.5728 374.586 65.5728C372.5 65.5728 370.712 67.2616 370.712 69.3476C370.712 71.533 372.401 73.2217 374.487 73.2217Z" fill="#00BCC8"/>
<path d="M345.678 101.829C345.678 102.723 346.373 103.517 347.366 103.517C348.26 103.517 349.055 102.822 349.055 101.829C349.055 100.935 348.36 100.14 347.366 100.14C346.472 100.14 345.678 100.935 345.678 101.829Z" fill="#00BCC8"/>
<path d="M347.379 103.529C346.485 103.529 345.69 102.734 345.69 101.84C345.69 100.946 346.485 100.151 347.379 100.151C348.273 100.151 349.068 100.946 349.068 101.84C349.068 102.833 348.273 103.529 347.379 103.529ZM347.379 104.423C348.77 104.423 349.962 103.231 349.962 101.84C349.962 100.449 348.77 99.2574 347.379 99.2574C345.988 99.2574 344.796 100.449 344.796 101.84C344.796 103.231 345.988 104.423 347.379 104.423Z" fill="#00BCC8"/>
<path d="M309.234 18.9907C310.724 18.9907 311.916 17.7987 311.916 16.408C311.916 14.918 310.724 13.726 309.333 13.726C307.843 13.726 306.651 14.918 306.651 16.3087C306.552 17.7987 307.744 18.9907 309.234 18.9907Z" fill="#00BCC8"/>
<path d="M309.232 18.9869C307.742 18.9869 306.649 17.7949 306.649 16.3048C306.649 14.8148 307.841 13.7221 309.331 13.7221C310.821 13.7221 311.914 14.9141 311.914 16.4041C311.815 17.8942 310.623 18.9869 309.232 18.9869ZM309.232 19.9802C311.219 19.9802 312.808 18.3909 312.808 16.4041C312.808 14.4174 311.219 12.8281 309.232 12.8281C307.245 12.8281 305.656 14.4174 305.656 16.4041C305.656 18.2915 307.245 19.9802 309.232 19.9802Z" fill="#00BCC8"/>
<path d="M293.726 104.809C295.216 104.809 296.508 103.617 296.508 102.028C296.508 100.538 295.316 99.2463 293.726 99.2463C292.236 99.2463 290.945 100.438 290.945 102.028C290.945 103.518 292.236 104.809 293.726 104.809Z" fill="#00BCC8"/>
<path d="M293.728 104.804C292.238 104.804 290.947 103.513 290.947 102.023C290.947 100.533 292.238 99.2412 293.728 99.2412C295.218 99.2412 296.509 100.533 296.509 102.023C296.509 103.513 295.218 104.804 293.728 104.804ZM293.728 105.698C295.715 105.698 297.403 104.109 297.403 102.023C297.403 100.036 295.814 98.3472 293.728 98.3472C291.741 98.3472 290.053 99.9365 290.053 102.023C290.053 104.009 291.741 105.698 293.728 105.698Z" fill="#00BCC8"/>
<path d="M214.552 67.5574C215.844 67.5574 216.936 66.4647 216.936 65.1733C216.936 63.882 215.844 62.7893 214.552 62.7893C213.261 62.7893 212.168 63.882 212.168 65.1733C212.168 66.4647 213.162 67.5574 214.552 67.5574Z" fill="#00BCC8"/>
<path d="M214.56 67.5547C213.268 67.5547 212.176 66.462 212.176 65.1706C212.176 63.8793 213.268 62.7866 214.56 62.7866C215.851 62.7866 216.944 63.8793 216.944 65.1706C216.944 66.462 215.851 67.5547 214.56 67.5547ZM214.56 68.4487C216.348 68.4487 217.937 66.9587 217.937 65.1706C217.937 63.3826 216.447 61.7932 214.659 61.7932C212.871 61.7932 211.282 63.2833 211.282 65.0713C211.182 66.9587 212.672 68.4487 214.56 68.4487Z" fill="#00BCC8"/>
<path d="M280.725 128.456C281.719 128.456 282.513 127.661 282.513 126.668C282.513 125.675 281.719 124.88 280.725 124.88C279.732 124.88 278.937 125.675 278.937 126.668C278.937 127.661 279.732 128.456 280.725 128.456Z" fill="#00BCC8"/>
<path d="M280.714 128.449C279.721 128.449 278.926 127.655 278.926 126.661C278.926 125.668 279.721 124.873 280.714 124.873C281.708 124.873 282.502 125.668 282.502 126.661C282.502 127.655 281.708 128.449 280.714 128.449ZM280.714 129.343C282.204 129.343 283.396 128.151 283.396 126.661C283.396 125.171 282.204 123.979 280.714 123.979C279.224 123.979 278.032 125.171 278.032 126.661C278.032 128.151 279.224 129.343 280.714 129.343Z" fill="#00BCC8"/>
<path d="M246.239 284.806C247.431 284.806 248.325 283.912 248.325 282.72C248.325 281.528 247.431 280.634 246.239 280.634C245.047 280.634 244.153 281.528 244.153 282.72C244.153 283.813 245.047 284.806 246.239 284.806Z" fill="#00BCC8"/>
<path d="M246.238 284.804C245.046 284.804 244.152 283.811 244.152 282.718C244.152 281.526 245.146 280.632 246.238 280.632C247.331 280.632 248.324 281.626 248.324 282.718C248.324 283.91 247.331 284.804 246.238 284.804ZM246.238 285.698C247.927 285.698 249.318 284.308 249.318 282.718C249.318 281.03 247.927 279.639 246.338 279.639C244.649 279.639 243.258 281.03 243.258 282.619C243.159 284.407 244.55 285.698 246.238 285.698Z" fill="#00BCC8"/>
<path d="M192.306 268.028C193.2 268.028 193.895 267.333 193.895 266.439C193.895 265.545 193.2 264.85 192.306 264.85C191.412 264.85 190.716 265.545 190.716 266.439C190.816 267.333 191.511 268.028 192.306 268.028Z" fill="#00BCC8"/>
<path d="M192.317 268.028C191.423 268.028 190.728 267.332 190.728 266.438C190.728 265.544 191.423 264.849 192.317 264.849C193.211 264.849 193.907 265.544 193.907 266.438C193.907 267.332 193.211 268.028 192.317 268.028ZM192.317 269.021C193.708 269.021 194.801 267.928 194.801 266.538C194.801 265.147 193.708 264.054 192.317 264.054C190.927 264.054 189.834 265.147 189.834 266.538C189.834 267.829 190.927 269.021 192.317 269.021Z" fill="#00BCC8"/>
<path d="M186.745 405.993C188.136 405.993 189.228 404.9 189.228 403.51C189.228 402.119 188.136 401.026 186.745 401.026C185.354 401.026 184.262 402.119 184.262 403.51C184.262 404.801 185.354 405.993 186.745 405.993Z" fill="#00BCC8"/>
<path d="M186.75 405.999C185.359 405.999 184.266 404.906 184.266 403.515C184.266 402.124 185.359 401.032 186.75 401.032C188.14 401.032 189.233 402.124 189.233 403.515C189.233 404.906 188.14 405.999 186.75 405.999ZM186.75 406.893C188.637 406.893 190.127 405.403 190.227 403.515C190.326 401.628 188.737 400.138 186.849 400.038C184.962 400.038 183.472 401.528 183.372 403.416C183.372 405.303 184.862 406.893 186.75 406.893Z" fill="#00BCC8"/>
<path d="M192.411 315.307C190.524 315.307 189.034 316.797 189.034 318.685C189.034 320.572 190.524 322.062 192.411 322.062C194.298 322.062 195.788 320.572 195.788 318.685C195.788 316.897 194.298 315.307 192.411 315.307Z" fill="#00BCC8"/>
<path d="M192.413 322.064C190.526 322.064 189.036 320.574 189.036 318.687C189.036 316.799 190.526 315.309 192.413 315.309C194.301 315.309 195.791 316.799 195.791 318.687C195.791 320.574 194.201 322.064 192.413 322.064ZM192.413 323.058C194.797 323.058 196.685 321.17 196.685 318.786C196.685 316.402 194.797 314.515 192.413 314.515C190.029 314.515 188.142 316.402 188.142 318.786C188.042 321.071 190.029 322.958 192.413 323.058Z" fill="#00BCC8"/>
<path d="M138.871 292.156C139.865 292.156 140.56 291.362 140.56 290.468C140.56 289.474 139.765 288.779 138.871 288.779C137.878 288.779 137.183 289.574 137.183 290.468C137.183 291.461 137.977 292.156 138.871 292.156Z" fill="#00BCC8"/>
<path d="M138.863 292.158C137.87 292.158 137.174 291.364 137.174 290.47C137.174 289.476 137.969 288.781 138.863 288.781C139.856 288.781 140.552 289.576 140.552 290.47C140.552 291.463 139.856 292.158 138.863 292.158ZM138.863 293.152C140.353 293.152 141.545 291.96 141.545 290.47C141.545 288.98 140.353 287.788 138.863 287.788C137.373 287.788 136.181 288.98 136.181 290.47C136.181 291.96 137.373 293.152 138.863 293.152Z" fill="#00BCC8"/>
<path d="M164.399 398.348C165.491 398.348 166.286 397.454 166.286 396.461C166.286 395.368 165.392 394.574 164.399 394.574C163.306 394.574 162.511 395.468 162.511 396.461C162.511 397.454 163.306 398.348 164.399 398.348Z" fill="#00BCC8"/>
<path d="M164.403 398.347C163.31 398.347 162.516 397.453 162.516 396.459C162.516 395.367 163.41 394.572 164.403 394.572C165.496 394.572 166.29 395.466 166.29 396.459C166.29 397.453 165.496 398.347 164.403 398.347ZM164.403 399.241C165.992 399.241 167.284 397.949 167.284 396.459C167.284 394.87 165.992 393.579 164.502 393.579C162.913 393.579 161.622 394.87 161.622 396.36C161.522 397.949 162.814 399.241 164.403 399.241Z" fill="#00BCC8"/>
<path d="M53.7351 32.5918C54.7285 32.5918 55.5232 31.7971 55.5232 30.8037C55.5232 29.8104 54.7285 29.0157 53.7351 29.0157C52.7418 29.0157 51.9471 29.8104 51.9471 30.8037C51.9471 31.7971 52.7418 32.5918 53.7351 32.5918Z" fill="#00BCC8"/>
<path d="M53.7427 32.5926C52.7494 32.5926 51.9547 31.7979 51.9547 30.8045C51.9547 29.8112 52.7494 29.0165 53.7427 29.0165C54.7361 29.0165 55.5308 29.8112 55.5308 30.8045C55.5308 31.7979 54.7361 32.5926 53.7427 32.5926ZM53.7427 33.4866C55.2328 33.4866 56.4248 32.2945 56.4248 30.8045C56.4248 29.3145 55.2328 28.1225 53.7427 28.1225C52.2527 28.1225 51.0607 29.3145 51.0607 30.8045C51.0607 32.2945 52.2527 33.4866 53.7427 33.4866Z" fill="#00BCC8"/>
<path d="M29.7978 106.409C28.5908 106.409 27.6124 107.388 27.6124 108.595C27.6124 109.802 28.5908 110.78 29.7978 110.78C31.0047 110.78 31.9832 109.802 31.9832 108.595C31.9832 107.388 31.0047 106.409 29.7978 106.409Z" fill="#00BCC8"/>
<path d="M29.7934 110.769C28.6014 110.769 27.608 109.775 27.608 108.583C27.608 107.391 28.6014 106.398 29.7934 106.398C30.9854 106.398 31.9788 107.391 31.9788 108.583C31.9788 109.775 30.9854 110.769 29.7934 110.769ZM29.7934 111.663C31.5815 111.663 32.9722 110.272 32.9722 108.484C32.9722 106.696 31.5815 105.305 29.7934 105.305C28.0054 105.305 26.6147 106.696 26.6147 108.484C26.6147 110.272 28.0054 111.663 29.7934 111.663Z" fill="#00BCC8"/>
</g>
<defs>
<filter id="filter0_d_86_5698" x="-4" y="-0.000244141" width="464.543" height="443" filterUnits="userSpaceOnUse" color-interpolation-filters="sRGB">
<feFlood flood-opacity="0" result="BackgroundImageFix"/>
<feColorMatrix in="SourceAlpha" type="matrix" values="0 0 0 0 0 0 0 0 0 0 0 0 0 0 0 0 0 0 127 0" result="hardAlpha"/>
<feOffset dy="4"/>
<feGaussianBlur stdDeviation="2"/>
<feComposite in2="hardAlpha" operator="out"/>
<feColorMatrix type="matrix" values="0 0 0 0 0 0 0 0 0 0 0 0 0 0 0 0 0 0 0.25 0"/>
<feBlend mode="normal" in2="BackgroundImageFix" result="effect1_dropShadow_86_5698"/>
<feBlend mode="normal" in="SourceGraphic" in2="effect1_dropShadow_86_5698" result="shape"/>
</filter>
</defs>
</svg>
