<svg width="68" height="68" viewBox="0 0 68 68" fill="none" xmlns="http://www.w3.org/2000/svg">
<rect width="68" height="68" rx="17.4688" fill="#00BCC8"/>
<path fill-rule="evenodd" clip-rule="evenodd" d="M48.1737 19.8133C44.4124 16.0667 39.4118 14.0017 34.0846 14C23.107 14 14.1725 22.89 14.1675 33.82C14.1658 37.3133 15.0835 40.7233 16.8269 43.73L14 54L24.5573 51.2433C27.4662 52.8233 30.7419 53.655 34.0745 53.6567H34.0829C45.0588 53.6567 53.995 44.765 54 33.835C54.0033 28.54 51.9334 23.5583 48.1737 19.8133ZM34.0846 50.3083H34.0779C31.107 50.3083 28.1947 49.5133 25.6525 48.0117L25.0479 47.655L18.7829 49.29L20.4559 43.21L20.0624 42.5867C18.4044 39.9633 17.5302 36.9317 17.5319 33.82C17.5353 24.7367 24.9625 17.3467 34.0929 17.3467C38.5141 17.3467 42.6707 19.0633 45.7957 22.1767C48.9207 25.2917 50.6406 29.43 50.6389 33.8317C50.6339 42.9183 43.2083 50.3083 34.0846 50.3083ZM43.1647 37.97C42.6674 37.7217 40.2206 36.5233 39.7634 36.3583C39.3079 36.1933 38.9763 36.11 38.6431 36.605C38.3098 37.1 37.3586 38.2167 37.0672 38.5483C36.7775 38.8783 36.4861 38.92 35.9887 38.6717C35.4913 38.4233 33.887 37.9017 31.9862 36.2133C30.5074 34.9 29.5076 33.2783 29.2179 32.7817C28.9282 32.285 29.1878 32.0183 29.4356 31.7717C29.66 31.55 29.933 31.1933 30.1825 30.9033C30.4337 30.6167 30.5158 30.41 30.6833 30.0783C30.8491 29.7483 30.767 29.4583 30.6414 29.21C30.5158 28.9633 29.521 26.525 29.1074 25.5333C28.7038 24.5667 28.2935 24.6983 27.987 24.6833C27.6973 24.6683 27.3657 24.6667 27.0324 24.6667C26.7009 24.6667 26.1616 24.79 25.7061 25.2867C25.2506 25.7833 23.9644 26.9817 23.9644 29.4183C23.9644 31.8567 25.748 34.2117 25.9958 34.5417C26.2437 34.8717 29.5043 39.875 34.4965 42.02C35.6839 42.53 36.6117 42.835 37.3335 43.0633C38.5259 43.44 39.6111 43.3867 40.4685 43.26C41.4247 43.1183 43.4126 42.0617 43.8279 40.905C44.2432 39.7483 44.2432 38.755 44.1176 38.55C43.9937 38.3417 43.6621 38.2183 43.1647 37.97Z" fill="white"/>
</svg>
